/* XPM */
static char * Collectible_xpm[] = {
"51 51 72 1",
" 	c #00FFE4",
".	c #FFDA38",
"+	c #FFDA33",
"@	c #FCD630",
"#	c #FFDA2D",
"$	c #FFE531",
"%	c #F1CE32",
"&	c #F6D231",
"*	c #BCA32A",
"=	c #B89F2C",
"-	c #C4A929",
";	c #D7B82B",
">	c #E9C62C",
",	c #726723",
"'	c #847523",
")	c #AA9328",
"!	c #D3B52A",
"~	c #3A3A1E",
"{	c #34351D",
"]	c #575121",
"^	c #877825",
"/	c #2F311C",
"(	c #2A2D1C",
"_	c #4D481F",
":	c #C1A629",
"<	c #625A21",
"[	c #5B5420",
"}	c #756922",
"|	c #A38E25",
"1	c #CEB12A",
"2	c #A69026",
"3	c #B69D28",
"4	c #E3C22A",
"5	c #F6D12C",
"6	c #EDCA2C",
"7	c #FCD62C",
"8	c #FFE12E",
"9	c #F2CE2B",
"0	c #BDA327",
"a	c #6D6222",
"b	c #524D1F",
"c	c #C1A627",
"d	c #141B1A",
"e	c #191F1A",
"f	c #21251B",
"g	c #061019",
"h	c #413F1D",
"i	c #7A6D22",
"j	c #DBBB2A",
"k	c #E0BF29",
"l	c #CAAD27",
"m	c #B89F26",
"n	c #AF9825",
"o	c #9C8825",
"p	c #685F21",
"q	c #45421E",
"r	c #26291B",
"s	c #C5A927",
"t	c #948224",
"u	c #57511F",
"v	c #0A1319",
"w	c #010A18",
"x	c #AB9526",
"y	c #8D7C24",
"z	c #000518",
"A	c #9A8725",
"B	c #494620",
"C	c #7F7122",
"D	c #CAAE29",
"E	c #A48F28",
"F	c #49461E",
"G	c #4D4920",
"               ......++.+@@+@                      ",
"               ......++@@++@+                      ",
"               ......++@++@#+                      ",
"               $$...+.+++@@+#                      ",
"               ..$.....+@@#+@                      ",
"               %%%%%&&@.++@@#                      ",
"               *====-;>&#+@#+                      ",
"               ,,,,,')!%+####                      ",
"               ~~{{~]^*%#####                      ",
"               {//({_':>#$+##                      ",
"               <<<[<}|1&#####                      ",
"               )))2)3145+####                      ",
"               >>>>>655###@##                      ",
"               +.+$++###7##7#                      ",
"               $$$$$$8###7###                      ",
"               +8+$##+#@#####                      ",
"               %6666955######                      ",
"               333330!>5#####                      ",
"               ,,aaa'2!9#####                      ",
"               {{{/{b'c6####7                      ",
"               deef/b'c6###7#                      ",
"                gfh[i|!9###7#7                     ",
"                 [^20!>5###7###7                   ",
"                  j>6957#####7###                  ",
"                  8#######8######                  ",
"                 888888888##8#7##7#                ",
"               ###############777#7#               ",
"              #######5996666957#77###              ",
"              ####8#5klmnnnmlk7#####7              ",
"            #+###8889loip<piol5#8######            ",
"           #@#######kn}q(r(q}nk######7#7           ",
"           @#+###56ksturvwvrutsk657#####           ",
"           #@###5k-xyaqezzzeqay2s45#####           ",
"           +#+#+51Aabq/     /hbaol9####7           ",
"           @#+8#9*iBre       erqC09#####           ",
"           ###8+9:i~g         v~Cc9#####           ",
"           +@#+#5!t~           ~t!5#####           ",
"           #+###7>:             s>7##77#           ",
"           +@#@###               #####7#           ",
"           #++#++##             ########           ",
"           .$+###+##8         8#######8#           ",
"           @@@@+@#####       ####77##77#           ",
"           ;;k>5+####7       #7####5>k;!           ",
"           yA)D>#$#####     #7##88#4lxAy           ",
"           B],Ej@8#####@######7#887k2}uF           ",
"           erG^:>@+#7##7###7##77#740'_(d           ",
"            d~aA*;>5@###7#7####54!soa{d            ",
"             (Bp'ED6@#####7####>l|'pF/             ",
"              ({B})>.#########74niF{(              ",
"               d(]Aj..+##@#7#+#jourd               ",
"               weGt;#$#######8#;tFew               "};
