/* XPM */
static char * Dead_xpm[] = {
"51 51 207 2",
"  	c #00FFE4",
". 	c #141B1B",
"+ 	c #192522",
"@ 	c #1D2A23",
"# 	c #1C211E",
"$ 	c #17201D",
"% 	c #273A2A",
"& 	c #2D442E",
"* 	c #324C32",
"= 	c #223226",
"- 	c #111618",
"; 	c #0D161A",
"> 	c #355235",
", 	c #3F613B",
"' 	c #456A3F",
") 	c #446A45",
"! 	c #395636",
"~ 	c #21261C",
"{ 	c #252A1C",
"] 	c #242E28",
"^ 	c #3D5D3A",
"/ 	c #516E3A",
"( 	c #53824C",
"_ 	c #5B9052",
": 	c #598748",
"< 	c #4A7444",
"[ 	c #35391E",
"} 	c #44451F",
"| 	c #474920",
"1 	c #4B4D20",
"2 	c #47572D",
"3 	c #5B8A4C",
"4 	c #4E7946",
"5 	c #0C1317",
"6 	c #626323",
"7 	c #787625",
"8 	c #787524",
"9 	c #6F7C31",
"0 	c #66813E",
"a 	c #26311B",
"b 	c #151A1A",
"c 	c #595E1E",
"d 	c #9A942A",
"e 	c #AA9C2A",
"f 	c #A39E2A",
"g 	c #9E9929",
"h 	c #A39829",
"i 	c #999D30",
"j 	c #939632",
"k 	c #788B3A",
"l 	c #4C824D",
"m 	c #2D321D",
"n 	c #666926",
"o 	c #8E8A26",
"p 	c #A7A329",
"q 	c #B0A92A",
"r 	c #ACA327",
"s 	c #A9A229",
"t 	c #B4A22D",
"u 	c #959C32",
"v 	c #7C943D",
"w 	c #638C48",
"x 	c #4D7D4C",
"y 	c #8C8928",
"z 	c #759340",
"A 	c #1C2B2A",
"B 	c #545521",
"C 	c #837827",
"D 	c #384426",
"E 	c #869538",
"F 	c #6D9042",
"G 	c #59773C",
"H 	c #486235",
"I 	c #96992F",
"J 	c #5D8349",
"K 	c #96874E",
"L 	c #80963C",
"M 	c #6D772E",
"N 	c #365638",
"O 	c #2B3F2A",
"P 	c #648B46",
"Q 	c #23352C",
"R 	c #2A443B",
"S 	c #3B6247",
"T 	c #213635",
"U 	c #2C524C",
"V 	c #365943",
"W 	c #527E4A",
"X 	c #31544C",
"Y 	c #253E3B",
"Z 	c #355B52",
"` 	c #466751",
" .	c #447351",
"..	c #3B6451",
"+.	c #26403C",
"@.	c #577948",
"#.	c #6F803B",
"$.	c #B5852C",
"%.	c #B9872D",
"&.	c #AC8A2D",
"*.	c #A79730",
"=.	c #2C5654",
"-.	c #4B734D",
";.	c #6A8A41",
">.	c #968038",
",.	c #AC7436",
"'.	c #B26239",
").	c #C96B31",
"!.	c #C3682F",
"~.	c #C3672F",
"{.	c #C46930",
"].	c #986737",
"^.	c #4B7650",
"/.	c #396651",
"(.	c #44734F",
"_.	c #698047",
":.	c #AE663B",
"<.	c #CB5333",
"[.	c #C64D36",
"}.	c #C75032",
"|.	c #D55739",
"1.	c #887548",
"2.	c #667A48",
"3.	c #2D5953",
"4.	c #5B764D",
"5.	c #B86341",
"6.	c #B54432",
"7.	c #A23C2E",
"8.	c #9C392D",
"9.	c #AD4231",
"0.	c #886D4A",
"a.	c #2F6052",
"b.	c #556751",
"c.	c #877450",
"d.	c #BD7649",
"e.	c #D56942",
"f.	c #BC573A",
"g.	c #8D3F2F",
"h.	c #642B27",
"i.	c #572323",
"j.	c #7F392D",
"k.	c #AB5137",
"l.	c #EB7347",
"m.	c #C4804C",
"n.	c #CC8B43",
"o.	c #6C432C",
"p.	c #382821",
"q.	c #221C1C",
"r.	c #553A29",
"s.	c #985C38",
"t.	c #FD954F",
"u.	c #E8894B",
"v.	c #31241F",
"w.	c #DA8549",
"x.	c #3D463B",
"y.	c #565D4A",
"z.	c #5B6652",
"A.	c #BC8A4D",
"B.	c #6C552A",
"C.	c #383924",
"D.	c #5A4D27",
"E.	c #C19738",
"F.	c #E7984A",
"G.	c #D58E4F",
"H.	c #536E50",
"I.	c #6A824E",
"J.	c #6B7750",
"K.	c #656A51",
"L.	c #60513B",
"M.	c #9B7B51",
"N.	c #947750",
"O.	c #768848",
"P.	c #AD9441",
"Q.	c #AC8A31",
"R.	c #D7A23D",
"S.	c #D19F3B",
"T.	c #B8A130",
"U.	c #A78C4E",
"V.	c #463829",
"W.	c #825B3A",
"X.	c #D48A50",
"Y.	c #DC8C50",
"Z.	c #8F824F",
"`.	c #9A9737",
" +	c #B09C2E",
".+	c #96892B",
"++	c #E28E51",
"@+	c #4D3C2B",
"#+	c #966139",
"$+	c #F4934F",
"%+	c #FD9650",
"&+	c #96962F",
"*+	c #FF9951",
"=+	c #75833C",
"-+	c #A48450",
";+	c #F79450",
">+	c #4E6A49",
",+	c #8E603B",
"'+	c #C48A4F",
")+	c #3C5C52",
"!+	c #795F41",
"~+	c #A47C51",
"{+	c #A87C51",
"]+	c #757B4F",
"^+	c #7B6E51",
"/+	c #63664F",
"(+	c #686952",
"                                                                                                      ",
"                                                                                                      ",
"                                                                                                      ",
"                                                                                                      ",
"                                                                                                      ",
"                                                                                                      ",
"                                                                                                      ",
"                                                                                                      ",
"                                                                                                      ",
"                                                                                                      ",
"                                                                              . . . . . . . .         ",
"                                                                            + @ # @ @ # $ $ . .       ",
"                                                                          + % & * * & & = # $ -       ",
"                          ; ; ; - ; . - ; - - ; ; . ; . - ; - - . ; ; ; . = > , ' ) ' ! & @ . ;       ",
"                          # ~ ~ ~ ~ @ ~ ~ ~ ~ ~ ~ ~ { # { { ] # { { { { # & ^ / ( _ : < > = . -       ",
"                        [ } | | | | | | | | | | | | 1 } } } } } } } } } } 2 / ( _ _ 3 4 ! = . - -     ",
"                    5 ~ } 6 7 7 7 8 8 8 7 7 7 7 7 7 7 7 8 8 8 8 7 7 7 8 7 9 0 : 3 _ _ 4 ! a . ; - b $ ",
"                    b [ c 7 d e f g g g g g g g g g h i h g g g g g h h d j k 3 ( 3 l < ! = $ . $ b b ",
"                  m [ } n o p q q r r r s q q r s r q s s q r r t r q r p u v w x < ' ^ > & % # + b - ",
"              ; { } c 8 y g p r q r r r q s s s r r r q q r r r s r r q r u z 3 < ^ * & * ! ^ & A b - ",
"              $ m B C g f p p p s s s s s s s s s s s s s s s s p s s r s u v w < > = = > ' ' ^ % $ - ",
"            @ = D n o p q r s e s s s s s f s e s s f s s s s f p p s s s i E F G ^ & & ^ 4 4 , % . - ",
"        . @ & * H 9 I r r r s p s s s f s f s s f s s s s s s s s e s s f i u E k / H H < ( ( , % $ - ",
"      - b = * ' J k i s r s e s f s s s s s s s s s s f s s f s s s s s s s s g E k G 4 l ( 4 ! % $ - ",
"      - . = > 4 w K u p p p p s p e p p p s e s s s p p s p s p p p s p p s r s I k G < < < ' > = b - ",
"      - . = > 4 F L u p r p s p p p s e e p p p s f e s p e e s e s p e s s r s o M H > > * * % @ $ . ",
"      - . = > < w L i p r p r p s p p s p p e p s s f s s p p p p p p p s s r s o n D { @ @ @ # $ . b ",
"      - . = N < w v i s r p p p p e p e p s p s s s s s p p e p e p s e s s r s y 6 O @ $ . . . b . . ",
"      ; . = > < P L i p s s p s p e p p p s p p p e p p e s s e p e p p s p r e y M ! O @ $ ; - . b . ",
"      ; . = > < P L i p r s e p s s e p p e e p p p s e p p p p s s p s s s p p u k G ^ & @ . -       ",
"      . + Q N < P L I p s s s s p s p p p s s p s s s p s p p s s p p s s s r p i L 0 < > = + -       ",
"    + A Q R ^ x P v g s r r p p p p p p p p p p p p p p p p p p p p p p p r q p i L P 4 S R T A +     ",
". . A T U V S x P L g p s p p p e p p p p p p p p p p p p p p p p p p p r r r s g v P W ) X R T A $ - ",
"- . A Y X Z ` x P v u f s e e e e e e e e e e e e e e s e e e e e e e s s r p f u v P x  ...U Y A $ - ",
"b $ A +.Z .. . .@.#.L j h $.$.$.%.%.%.%.%.%.%.$.$.%.$.$.$.%.%.%.%.%.%.%.&.&.*.j L z 3 (  ...X +.A $ - ",
". b A +.=.Z ..` -.W ;.v >.,.'.).).).).).).).!.!.~.'.!.!.!.).).).).).).~.{.,.].k F P 3 ( ^...X +.A $ - ",
"- . A +.X Z Z Z /.(.W _.].:.<.<.<.<.<.[.}.<.[.<.<.<.|.<.<.<.<.<.}.<.<.<.<.'.1.2.( _ ( ( ^./.Z Y A $ - ",
". $ A +.U Z 3.Z Z /. .4.1.5.|.<.6.7.7.8.8.9.[.|.|.|.|.|.[.9.7.8.8.7.6.<.|.5.0.4.x l ( x  ./.U Y A $ - ",
"- $ A Y U 3.3.3.3.a...b.c.d.e.f.g.h.i.i.h.j.k.e.l.l.l.l.k.j.h.i.i.h.9.k.e.d.c.b./.l l x  ...U Y A $ - ",
"- . A R U Z Z Z Z Z =.b.c.m.n.5.o.p.q.b p.r.s.e.t.t.u.).s.r.v.b q.v.o.:.w.d.c.b./. .( W  ...X Y A $ - ",
"- $ ] x.y.z.z.z.b.` /.b.c.A.n.,.B.C.m a [ D.].E.F.F.F.n.].D.[ a a C.B.,.G.A.c.b. .H.I.I.J.K.b.x.] $ - ",
"- $ C.L.0.M.M.N.c.K.H.4.O.P.E.Q.C 6 c c 6 8 &.E.R.R.S.E.&.8 6 B c 6 C &.T.*.O.4.4.I.K U.U.M.0.L.C.$ ; ",
"5 # V.W.d.X.Y.X.A.Z.I.J O.`. +e h o o o o .+h  +t T.t  +g .+o o o o &.*. +`.k 3 I.K A.G.++X.d.W.V.$ ; ",
"5 # @+#+X.$+%+$+G.U.O.3 0 E j u &+&+&+d &+&+&+&+&+&+j &+&+I &+&+&+I &+&+j L 0 J I.U.G.$+%+$+X.#+@+$ 5 ",
"5 # @+s.u.%+*+t.F.U.O.3 : 0 #.=+9 O.O.=+=+=+O.9 9 #.#.#.=+=+=+=+=+k =+=+9 @.@.-.J.-+Y.%+*+%+u.#+r.# 5 ",
"; $ @+#+w.%+%+;+++U.O.: W 4 >+>+>+>+>+>+>+>+>+>+>+>+>+>+>+>+>+>+>+>+>+>+>+` /.` z.M.X.;+*+%+w.#+@+# ; ",
"; b @+,+m.++++Y.'+K I.W (./.Z Z Z Z )+Z Z Z )+Z Z Z Z Z )+Z Z Z Z Z )+)+Z Z 3.Z z.N.'+Y.++++m.#+@+# ; ",
"5 ] @+!+N.~+{+~+M.]+4.-./.Z =.=.=.=.=.=.=.=.=.=.=.=.=.=.=.=.=.=.=.=.=.=.=.=.=.=.b.^+N.~+{+{+M.B.@+# 5 ",
"      y./+(+(+(+/+H.` /...                                                        z.(+(+(+K./+y.      ",
"      )+)+)+)+)+)+Z Z Z Z                                                         )+)+)+)+)+Z Z       ",
"      3.3.=.=.3.=.=.Z =.Z                                                           3.=.=.=.3.3.      "};
