/* XPM */
static char * Enemy2_xpm[] = {
"51 51 139 2",
"  	c #00FFE4",
". 	c #3C4646",
"+ 	c #3E4848",
"@ 	c #151B1A",
"# 	c #566061",
"$ 	c #5C6768",
"% 	c #1B2525",
"& 	c #233336",
"* 	c #141817",
"= 	c #375960",
"- 	c #6AB7C9",
"; 	c #5898A7",
"> 	c #385C64",
", 	c #6BBED2",
"' 	c #5B9DAD",
") 	c #44717B",
"! 	c #2A4246",
"~ 	c #60A7B8",
"{ 	c #6DC1D5",
"] 	c #5DA3B3",
"^ 	c #3D646D",
"/ 	c #34535A",
"( 	c #181F1F",
"_ 	c #5798A8",
": 	c #69B9CC",
"< 	c #3E6770",
"[ 	c #36585F",
"} 	c #273B3E",
"| 	c #62ABBD",
"1 	c #528C9A",
"2 	c #314E53",
"3 	c #73B4C3",
"4 	c #325156",
"5 	c #202F31",
"6 	c #63AEC0",
"7 	c #4D8491",
"8 	c #2F4B51",
"9 	c #67B9CD",
"0 	c #85ADB6",
"a 	c #8FA9AF",
"b 	c #1E2B2C",
"c 	c #66B3C5",
"d 	c #202E2F",
"e 	c #6FB6C7",
"f 	c #99A5A6",
"g 	c #8BABB2",
"h 	c #2E494F",
"i 	c #283E42",
"j 	c #67B5C8",
"k 	c #95A6A9",
"l 	c #9CA9AB",
"m 	c #A0ADAF",
"n 	c #2C454A",
"o 	c #92A8AD",
"p 	c #96A3A4",
"q 	c #CCD3D4",
"r 	c #D5DBDB",
"s 	c #406B74",
"t 	c #7CB1BD",
"u 	c #98A6A8",
"v 	c #DDE2E3",
"w 	c #EEF1F1",
"x 	c #F7F8F8",
"y 	c #D9DEDF",
"z 	c #467681",
"A 	c #A9B4B6",
"B 	c #E2E5E6",
"C 	c #FFFFFF",
"D 	c #A6B2B4",
"E 	c #81AFB9",
"F 	c #4C828E",
"G 	c #BBC4C5",
"H 	c #8CA7AC",
"I 	c #7AB4C2",
"J 	c #B7C0C2",
"K 	c #EBEDED",
"L 	c #C4CCCD",
"M 	c #B5BFC0",
"N 	c #B2BCBE",
"O 	c #ABB6B8",
"P 	c #ADB8BA",
"Q 	c #EEEFF0",
"R 	c #89AFB8",
"S 	c #4D8997",
"T 	c #DADFE0",
"U 	c #E5E9E9",
"V 	c #89B0B9",
"W 	c #5695A4",
"X 	c #BFC8C9",
"Y 	c #BEC7C8",
"Z 	c #A2AFB1",
"` 	c #75BCCD",
" .	c #C7CED0",
"..	c #D1D4D6",
"+.	c #A7A5AA",
"@.	c #E6E7E8",
"#.	c #939096",
"$.	c #47434D",
"%.	c #AEACB1",
"&.	c #F3F4F4",
"*.	c #B9B7BB",
"=.	c #332D39",
"-.	c #3B3641",
";.	c #403C46",
">.	c #D8D7D9",
",.	c #C9C7CA",
"'.	c #545059",
").	c #66626B",
"!.	c #747078",
"~.	c #39343F",
"{.	c #D1CFD2",
"].	c #6A666F",
"^.	c #9E9BA1",
"/.	c #6E6A73",
"(.	c #3E3944",
"_.	c #8D8A90",
":.	c #97949A",
"<.	c #5D5962",
"[.	c #36303C",
"}.	c #7E7B82",
"|.	c #8A878E",
"1.	c #605C65",
"2.	c #2F2A35",
"3.	c #7A767E",
"4.	c #E0DFE1",
"5.	c #CACED0",
"6.	c #58545E",
"7.	c #302B36",
"8.	c #838087",
"9.	c #243639",
"0.	c #ACA9AE",
"a.	c #C4C2C6",
"b.	c #487A85",
"c.	c #54909E",
"d.	c #4A7D89",
"e.	c #72BED0",
"f.	c #81B3BE",
"g.	c #131514",
"h.	c #508A97",
"                                                                                                      ",
"                                                                                                      ",
"                                                                                                      ",
"                                                                                                      ",
"                                                                                                      ",
"                        . +                                                                           ",
"                      @ # $ @                                                                         ",
"                          %                                   & &                                     ",
"                                                          * = - ; %                                   ",
"                                                        % @ > , ' %                                   ",
"                                                      * ) ' ) ! !                                     ",
"                                    * @ @           % ) ~ { ] ^ *                                     ",
"                                    ^ ) ) /         ( _ , : , ~ <                                     ",
"                  [ }             > | , { 1 2       = ] : 3 3 , | >                                   ",
"                4 | !           5 6 : : : , 7 % 8 4 | : 9 0 a 3 : 6 b                                 ",
"              8 c : [           d | : : - , 1 / : : - e e 0 f g : | h   } } } } i } }                 ",
"            8 c - - : > %       } | : - - - j j : e e a k l m g e - c n 1 : c c j j | !               ",
"          4 c e o e : j ^ @   i ~ : : : - - : - e o o l p q r p g : j | j : : : : - j | !             ",
"          4 , e k o 3 : 6 s n ~ : - : : t o a o a p u v w x y p a - - : : - - - : : : : !             ",
"        = ] 3 g k k a 3 : | z > j : 0 g o p p A B B B x C v D f o - : 9 E 3 9 : : : j =               ",
"      * < { 3 f u u f g 3 : ~ F - 0 k p G y r v C C C C C q p H 3 - : E k a 3 9 : | ^                 ",
"      * < , 3 k u p p f g t I , t k p J K C C C C C C C C L p g 9 - t k p f a t : ] %                 ",
"      * ^ , 3 f l J G D p f o t f u M w C C C C C C C C C v A H I t k p N O p g , ~ b                 ",
"      * < , 3 a l B C q P D p u f l w C C C C C C C C C C C B D f u p O Q L p R c S b                 ",
"      * ^ 6 : e a l v C C T l u u l w C C C C C C C C C C C C U D D O w C L p V W %   &               ",
"          [ : : 3 o l v C C v l u l w C C C C C C C C C C C C C x x x C C X p V W % & ' 2             ",
"          / : : - o p T C C C B D K C C C C C C C C C C C C C C C C C C Y l 0 : W & ' - ~ 4           ",
"          & > : - o f Z v C C C K C C C C C C C C C C C C C C C C C C C M p o E 6 _ - R ` 4           ",
"            } - : 3 o p q C C C C C C C C C C C C C C C C C U q C C C  .Z p p o 0 V R f 3 ' /         ",
"          n F : : 9 a p ..C C C C C C C C C C K +.C C C C B P m q C x O p J M p p f f u 3 { ^ @       ",
"          / , : - t o p q C C C C C C C C C @.#.$.%.&.C C v O l q C C D P K U L J p u k 3 , ^ *       ",
"          / : : - o p O v C C C C C C C C C *.=.-.;.@.C C C v q C C C L K C C C &.M u f 3 , ^ *       ",
"          / : : - o p v C C C C C C C @.>.&.,.'.;.).K @.>.&.C C C C C C C C C x w B l u 3 , ^ *       ",
"        % > : : 3 o l v C C C C C C &.!.~.#.C {.).Q Q ].~.^.x C C C C C C C C y u l u o 3 j ^ *       ",
"      @ ^ c : - o u B C C C C C C x /.;.(.;._.C &.&.).;.(.;.:.C C C C C C C r l k k o 3 : > %         ",
"      * ^ , : e k l K C C C C C C x <.~.(.[.}.C C &.'.~.(.[.|.C C C C C C q l f o 3 3 : , 4           ",
"      * ^ , : e k u U C C C C C C C ..1.2.3.4.C C C 5.6.7.8.@.C C C C C C w G f a : : : ^ 9.          ",
"      * < { : e k l K C T y C C C C C ,.0.>.C C C C C a.0.4.C C C C  .&.C C ..p g : - : !             ",
"        2 1 : 3 k u L w B L q r C C C C C C C C C C C C C C C &.q q L &.C B M p a - c b.i             ",
"          4 , - R k p v C U J G y T y y T y y y y y y y y y T ..J Y C C C L p o t : c &               ",
"          2 ] j - o p q x C C &.P P P P P P P P P P P P P P O L C C C C &.M o E : c W &               ",
"            ! - - g l p  .C C C C C C C C C C C C C C C C C C C C C C &.N p t : : ~ b                 ",
"            ! c - - g p p L C x C C C C C C C C C C C C C C C C C x &.P f t : : - ' b                 ",
"              n c - e g u l D J C C C C C C C C C C C C C C C C w O D l t - : : ; 9.                  ",
"                h | , ` R f p l N N &.C C C C C C C C C C y O N O p p t : : , c.i                     ",
"                  2 4 _ ` I E f p p N G G G G G G G G G G A p p o t I , { d.4 8                       ",
"                      / ^ S e.f.t t p p p p p p p p p p p f o t t , : z ^ n                           ",
"                        g.2 b.7 , , f.R 0 0 0 0 0 0 0 0 E V I , c b.z & g.                            ",
"                            * 9.h.1 1 6 , : , 9 , 9 , 9 , ] 1 1 b.% @                                 ",
"                                % @ @ d.] ' ' ' ' ' ' ' ' ^ @ @ (                                     ",
"                                      % % % % % b % % % %                                             "};
