/* XPM */
static char * Enemy4_xpm[] = {
"51 51 128 2",
"  	c #00FFE4",
". 	c #161B1A",
"+ 	c #1B2526",
"@ 	c #416E78",
"# 	c #4A7A84",
"$ 	c #314E53",
"% 	c #5EA3B3",
"& 	c #73CBE0",
"* 	c #395D65",
"= 	c #141817",
"- 	c #467782",
"; 	c #4D8591",
"> 	c #325157",
", 	c #181F1F",
"' 	c #243538",
") 	c #2A4246",
"! 	c #1E2A2B",
"~ 	c #3C646D",
"{ 	c #6AB9CC",
"] 	c #60A7B8",
"^ 	c #283E42",
"/ 	c #416C75",
"( 	c #6AB7C9",
"_ 	c #67B9CC",
": 	c #273B3F",
"< 	c #43717B",
"[ 	c #65B2C4",
"} 	c #5695A4",
"| 	c #223235",
"1 	c #62AABB",
"2 	c #74B4C3",
"3 	c #8AACB3",
"4 	c #2C464A",
"5 	c #5B9DAC",
"6 	c #202F31",
"7 	c #518C9A",
"8 	c #6DC0D5",
"9 	c #8EA9AF",
"0 	c #92A8AD",
"a 	c #2F4B50",
"b 	c #6BBDD1",
"c 	c #34535A",
"d 	c #65A5B5",
"e 	c #99A5A6",
"f 	c #53909F",
"g 	c #71BCCE",
"h 	c #7DB1BD",
"i 	c #121412",
"j 	c #85ADB6",
"k 	c #95A7A9",
"l 	c #497E8A",
"m 	c #6BB4C5",
"n 	c #98A6A8",
"o 	c #3F6973",
"p 	c #81B5C1",
"q 	c #5898A7",
"r 	c #9DAAAC",
"s 	c #A9B4B6",
"t 	c #89B4BE",
"u 	c #C3CBCC",
"v 	c #FFFFFF",
"w 	c #EEF1F1",
"x 	c #A6B2B4",
"y 	c #A2AFB0",
"z 	c #84B3BD",
"A 	c #8AAFB8",
"B 	c #96A3A5",
"C 	c #F4F6F6",
"D 	c #BFC8C9",
"E 	c #E3E7E8",
"F 	c #66B6C9",
"G 	c #89A6AC",
"H 	c #C8CFD0",
"I 	c #ABB7B8",
"J 	c #F7F8F8",
"K 	c #7CB5C2",
"L 	c #EBEDED",
"M 	c #D5DADB",
"N 	c #DDE1E2",
"O 	c #E6E9EA",
"P 	c #AAC0C5",
"Q 	c #B6C1C2",
"R 	c #85A7AE",
"S 	c #DADDDE",
"T 	c #74A0AA",
"U 	c #B5BFC0",
"V 	c #A1ADAF",
"W 	c #ADB8BA",
"X 	c #5FA8B9",
"Y 	c #B1BCBD",
"Z 	c #4F8996",
"` 	c #84AFB8",
" .	c #BBC4C5",
"..	c #4C828E",
"+.	c #273C40",
"@.	c #CCD3D4",
"#.	c #A5A2A7",
"$.	c #73BED0",
"%.	c #F0EFF0",
"&.	c #A19FA4",
"*.	c #45404A",
"=.	c #D1D7D8",
"-.	c #CECCCF",
";.	c #37323D",
">.	c #3E3944",
",.	c #D1D3D5",
"'.	c #588E9A",
").	c #D8D7D9",
"!.	c #625E67",
"~.	c #403B46",
"{.	c #5C5861",
"].	c #88858C",
"^.	c #38333E",
"/.	c #7E7A82",
"(.	c #E2E4E5",
"_.	c #827E85",
":.	c #78747C",
"<.	c #726E76",
"[.	c #67636C",
"}.	c #68646D",
"|.	c #2E2935",
"1.	c #ABA9AE",
"2.	c #DADFE0",
"3.	c #5798A7",
"4.	c #508895",
"5.	c #7FAFBA",
"6.	c #477883",
"7.	c #4F8B98",
"                                                                                                      ",
"                                                                                                      ",
"                                    . .                                                               ",
"                                  + @ # $                                                             ",
"                                  + % & * =                                                           ",
"                                  + - ; >                                                             ",
"                                    , .     ' ) )                                                     ",
"                                          ! ~ { ] ^                                                   ",
"                                        , / ( _ ( ] :             !                                   ",
"                                      . < [ _ _ _ ( ] )         ^ } |                                 ",
"                                    , - 1 { _ 2 3 ( _ )       4 5 1 6                                 ",
"                                    . 7 8 ( 2 9 0 ( ( ^     a } b 1 6                                 ",
"                      * c           / d b _ 2 e 0 _ _ ; ) > f g h ] !                                 ",
"                    c % ~ i       + % { _ 2 j e k h ( 8 > @ g j 0 [ ~ 6                               ",
"                  + } 8 l ^       + 5 { m 3 e n e n h { $ o p n k 2 ( ~ |                             ",
"                  : q { b ; '     + 5 ( 3 e r s s n k 2 ~ # t e n k 2 { * !                           ",
"                ! % { ( ( { 7 6 6 ! 5 3 e n u v w x k 2 m j r r y n k 2 { ~ +                         ",
"                ! ] { j z _ _ 1 5 ' 5 A B u v v v C x k k k D v E r n k 2 F @ ,                       ",
"                ! % { j k 0 j { ( % G n B H v v v v w I B u J v v E r n k K [ < .                     ",
"                ! % _ 3 e e k j _ { 0 n u C v v v v v I u C v L u v E x e h _ 1 - +                   ",
"                ! ] { 3 e n n k j j k B M v v v v v v N C v O P t H v N x G 2 b } +                   ",
"                ! / 1 3 e n e n e e n Q L v v v v v v v v v M R m r C v S s 9 K } .     * a           ",
"                  . < T 0 n y U n n n E v v v v v v v v v v M 3 m V C v v u B 3 % >   > % c           ",
"                    = ; z e Q C W n s L v v v v v v v v v v M G K Q J v v u B 3 { X | % b @ '         ",
"                    . ; z B U v J Y w v v v v v v v v v v v N V Q v v v v u B j _ } ) d { b ~ =       ",
"                    + ; z B Q v v J v v v v v v v v v v v v v J J v v v v D B 3 } ) d 0 2 b ~ =       ",
"                  + Z F ` B U v v v v v v v v v v v v v v v v v v v v v D r n j [ d 9 k 2 b ~ .       ",
"                + Z [ z 0 B Y v v v  .L v v v v v v v v v v v v v v v v U B n k 9 9 n n 2 8 ~ =       ",
"              ! ..m { j e Y O v J D r s E v v v v v v v v v v v v v v v Q B B I N N N V 2 - )         ",
"            +.# { ( h 0 B u v v v @.r Q L v v v J #.J v v v v v v v v v Y Y @.E v v @.t $.>           ",
"            4 { _ ( 9 B s N v v v v @.C v v v %.&.*.&.L v v v v v v v v =.E v v J @.k ( Z 4           ",
"            ) ( _ _ 9 B =.v v v v v v v v v v -.;.>.;.,.v v v v v v v v v v v C =.n 3 '.:             ",
"            * ( ( m 9 V S v v v v v v v L ).L S !.~.{.).L ).L v v v v v v v v N B 0 [ a               ",
"          > ( _ ( 0 n S v v v v v v v J ].^./.C (.!.(.J /.;.].J v v v v v v v M e 3 ( m $             ",
"          c { { ( 0 e N v v v v v v v _.~.>.~.:.v %.J :.~.>.~._.v v v v v v M r 9 m ( _ [ >           ",
"          > b ( ( 0 B N v v v v v v v <.;.~.;.[.v v v }.;.~.;.<.v v v v v v @.B 9 _ { { { c           ",
"          c b { ( 0 n N v v v v v v v S <.|.}.).v v v ).}.|.<.S v v v v v v C u k 3 ( ( { c           ",
"          c b { ( 0 B N v E =.v v v v v ,.1.H v v v v v H 1.,.v v v v @.L v v E e 0 ( _ 8 c           ",
"          4 ..{ ( k n  .L L u @.=.v v v v v v v v v v v v v v v J @.@.u w v L  .e k ( { ; 4           ",
"            ^ { _ j k B @.v w Q  .M 2.2.S S 2.S S S S 2.S 2.S N M Q  .C v v @.B k ` ( { ^             ",
"            ) q _ _ 3 e u C v v J Q W W W W W W W W W W W W W I  .v v v v C u k j _ m 3.)             ",
"              ' 5 m 3 k B  .J v v v v v v v v v v v v v v v v v v v v v J  .B j _ { [ '               ",
"                | % ( 3 n n Q v J J v v v v v v v v v v v v v v v J J v Q n ` { _ ( ] '               ",
"                  ' q ( j e r x x s w v v v v v v v v v v v v v C s x x r h ( { { ] :                 ",
"                    ^ f { j e e n n I W E v v v v v v v v M W W s e e n z ( { b 5 )                   ",
"                      4 7 $.K h e e B B I  . . . . . . .D x B B B k h h { 8 4.> $                     ",
"                        $ ~ l b p 5.h k e B B B B B B e B e e 0 5.h b b l ~ >                         ",
"                          i ^ # l _ b K j j j j j j j j j j A K b _ l 6.^ i                           ",
"                              . ! ..7 4.X b { { b b b _ b b X 7.7.; ! .                               ",
"                                  , , . < % 5 5 5 5 5 5 3.% < . . +                                   ",
"                                        + + + + + + + + + + +                                         "};
