/* XPM */
static char * Enemy3_xpm[] = {
"51 51 137 2",
"  	c #00FFE4",
". 	c #2B4246",
"+ 	c #26393C",
"@ 	c #323B3C",
"# 	c #5B9DAD",
"$ 	c #6BBDD1",
"% 	c #416D77",
"& 	c #1E2A2B",
"* 	c #141817",
"= 	c #475152",
"- 	c #6D797A",
"; 	c #1B2525",
"> 	c #202F30",
", 	c #5EA3B4",
"' 	c #6BB7C9",
") 	c #69B9CC",
"! 	c #44727C",
"~ 	c #62AABB",
"{ 	c #65B2C4",
"] 	c #161B1B",
"^ 	c #283E42",
"/ 	c #64AFC1",
"( 	c #477883",
"_ 	c #487A85",
": 	c #223335",
"< 	c #4C828E",
"[ 	c #67B9CD",
"} 	c #6DC1D5",
"| 	c #54909E",
"1 	c #2C4549",
"2 	c #4A7D89",
"3 	c #79B4C1",
"4 	c #82AFB9",
"5 	c #5898A7",
"6 	c #395D65",
"7 	c #131514",
"8 	c #3F6972",
"9 	c #34545A",
"0 	c #8EAAAF",
"a 	c #99A5A6",
"b 	c #96A3A5",
"c 	c #98A6A8",
"d 	c #6DB6C7",
"e 	c #518C99",
"f 	c #375960",
"g 	c #314D53",
"h 	c #73B4C3",
"i 	c #A6B2B4",
"j 	c #B7C1C2",
"k 	c #AEB9BA",
"l 	c #72B7C8",
"m 	c #202828",
"n 	c #3C646C",
"o 	c #5593A1",
"p 	c #36585F",
"q 	c #92A8AD",
"r 	c #9CAAAC",
"s 	c #D5DADB",
"t 	c #FEFEFF",
"u 	c #E6E9EA",
"v 	c #467782",
"w 	c #243639",
"x 	c #D8DEDE",
"y 	c #EAECED",
"z 	c #A2AEB0",
"A 	c #96A6A9",
"B 	c #DDE2E2",
"C 	c #85ADB6",
"D 	c #7CB1BD",
"E 	c #F3F5F5",
"F 	c #EEF1F1",
"G 	c #C4CCCD",
"H 	c #E2E5E6",
"I 	c #5897A6",
"J 	c #8CABB1",
"K 	c #BEC7C8",
"L 	c #F7F8F8",
"M 	c #DADFE0",
"N 	c #A0ADAF",
"O 	c #C8CFD0",
"P 	c #A9B5B6",
"Q 	c #D1D7D8",
"R 	c #F7F7F8",
"S 	c #CDD4D5",
"T 	c #82B3BE",
"U 	c #BEC8CA",
"V 	c #CCCBCD",
"W 	c #C0C7C8",
"X 	c #ABB7B8",
"Y 	c #76ADBA",
"Z 	c #B2BCBE",
"` 	c #A9C0C5",
" .	c #A4BDC2",
"..	c #4D8591",
"+.	c #2E4A4F",
"@.	c #BBC4C6",
"#.	c #BBBABD",
"$.	c #325056",
"%.	c #F0EFF0",
"&.	c #A4A2A7",
"*.	c #4C4751",
"=.	c #C4C2C6",
"-.	c #5698A7",
";.	c #38333F",
">.	c #3E3944",
",.	c #433E49",
"'.	c #273C40",
").	c #49444E",
"!.	c #58545D",
"~.	c #7E7A82",
"{.	c #A29FA5",
"].	c #5B5760",
"^.	c #75727A",
"/.	c #46414C",
"(.	c #AAA7AC",
"_.	c #3A3540",
":.	c #99979C",
"<.	c #322D39",
"[.	c #7A767E",
"}.	c #4F4A54",
"|.	c #86838A",
"1.	c #C0BEC2",
"2.	c #302B36",
"3.	c #6D6A72",
"4.	c #D0CFD1",
"5.	c #524D57",
"6.	c #D3D4D6",
"7.	c #B8B6BA",
"8.	c #928F95",
"9.	c #B1AFB4",
"0.	c #B5BFC0",
"a.	c #2F4B50",
"b.	c #73BCCD",
"c.	c #4D8997",
"d.	c #72BED0",
"e.	c #508997",
"f.	c #181F1F",
"                                                                                                      ",
"                                                                                                      ",
"                                                                                                      ",
"                                                                                                      ",
"                                                                                                      ",
"                                                                                                      ",
"                                    . . +                   @ @                                       ",
"                                  + # $ % &               * = - ;                                     ",
"                                > , ' ) ' ! ; & & & & & & & & ;                                       ",
"                                > ~ ) ) ) { , , , , , , , ~ % ]                                       ",
"                  ]             ; ^ , ) ) ) ) ) ) ) $ ) ) ) / ( ]                                     ",
"                ; _ +         : < < / ) [ [ [ ' ) [ ) ) ) ) } | ;                                     ",
"              & ! { < 1     + 2 ) $ ) [ 3 4 4 4 4 4 ) ) $ } 5 6   * 7 7 * 7 *                         ",
"            + 8 ' ) } 9 7 1 ( $ ) ) [ 3 0 a b b a c 4 d e _ 6     f 6 6 6 6 6 g                       ",
"            . ) ) ) ) ! & 6 $ ) ' [ h 0 a i j k c c 0 l ! m 7   n [ ) $ $ $ } o 1                     ",
"            . ) ' d ' $ n p ) ) ) h q b r s t u c c d ) $ v w 6 ) [ h h d h d $ # +                   ",
"            . ' ) q 3 ) 8 n $ ) d q c r x t t y z A h ) ) ' { ' ' h q c c c 4 ' ) , w                 ",
"            1 ' d q c 3 / / ) h c c c B t t t t y r A h ) ' ' h A q c r r r r C ) ' , +               ",
"            . ' ' q a q q D h q c c B t t t t t E r c q q D h q c b c B F E G b C [ ' , ^             ",
"            . ) ' h q a b q 0 c c c F t t t t t t B r c a 0 q b i B H t t s i a 0 ' ' [ I g           ",
"            + 8 { ) J a j K b c r s L t t t t t t t M i b b b i B t t t s N C D D [ ) ) } p 7         ",
"              : { ) 0 b s E j b z L t t t t t t t t t s O P i B t t t x i b 4 [ [ ) ) $ < 1           ",
"              w / ) 0 b Q t u b N R t t t t t t t t t t t B s t t t t P b q D [ ' ) ) e w             ",
"              : / ) 0 b S t B b z R t t t t t t t t t t t t t t t t L P b D [ ) ) { e &               ",
"              1 { [ J b S t u z z R t t t t t t t t t t t L L t t t t P b T ' d ) ~ + w   : :         ",
"            . { ' ' 0 a s t t y P L t t t t t t t t t t t O U t t t L P b c c C ' d { / 1 < % *       ",
"            1 ' ' J b s L t t t E t t t t t t t t t t t V T D W t L X r c r c c q J ' ) ~ ' n ]       ",
"          g # d J c b B t t t t t t t t t t t t t t t t j Y Y Z t L r b S y y S b c J J h $ n *       ",
"          9 $ d c c S E t t t t t t t t t t t t t t t t y `  .y t R r Q L t t L S c c a h } 8 *       ",
"        g e d C c b y t t t t t t t t t t t t t t t t t t u H t t t s L t t t F K c c 4 d ..+.        ",
"      7 n } h c r @.E t t t t t t s L t t t t E #.t t t t t t t t t t t t t F @.b c C d $ $.          ",
"      ^ 2 $ h c r R t t t t t t L @.E t t t %.&.*.=.L t t t t t t t t t t t S b c C ) ) -.g           ",
"    ] _ $ ) h c r E t t t t t t t t t t t t #.;.>.,.H t t t t t t t t t t L G b C ) ' , '.            ",
"    ] ( $ ) h b r E t t t t t t t t t E y t =.).,.!.u E y R t t t t t t t G a C ) ) / +               ",
"    ] v $ [ h c r F t t t t t t t t t ~.,.{.t =.].H R ^./.(.t t t t t t t G a C ' ) { +               ",
"    ] _ $ [ h c r P y t t t t t t L ~.,._.).:.L H E ^.,._.).&.t t t t t t L G b C ' ' # .             ",
"      ^ 2 $ ' D A b u t t t t t t L !.;.>.<.[.t t E }.;.>.<.|.t t t t t t t S b 0 ) ) ) .             ",
"      7 n } ) d A r y t t t t t t t 1.!.2.3.4.t t L #.5.2.^.6.t t t t t t t 6.b J ) ) ) .             ",
"        g e ) l A r W E u B t t t t t 7.8.V t t t t t 9.8.6.t t t t s R t u 0.b 0 ' ' _ +             ",
"          $.$ d C c b B B G x H t t t t t t t t t t t t t t t R x s K E t W b q 4 ) { :               ",
"          g , ) ' q b S t H X j u u u u u u u u u u u u u u y x k 0.L t E 0.q 4 [ ' o :               ",
"            . , ' J c b G L t F P i i i i i i P i i i i i i z W t t t R Z b D ) ) , &                 ",
"              '.~ ' J r b G t L L L t L t L L L L t L t L t L L t L L k b D ) ) ) # &                 ",
"                + , ) J a r i j t t t t t t t t t t t t t t t t F P i c D ' ) ) -.w                   ",
"                  1 # l C c a r Z Z E t t t t t t t t t t s k Z X a b D ) ) } | ^                     ",
"                    a.-.b.3 4 a b b 0.@.K @.K j @.@.@.K W i b a q D 3 ) } 2 $.+.                      ",
"                      p n c.d.T D 4 b b b b b b b b b b a a q D 3 $ $ ! n 1                           ",
"                        7 g _ ..[ $ T C C C C C C C C C T C 3 $ { _ v : 7                             ",
"                            * w e.e e / $ $ [ $ [ $ [ $ $ , c.e 2 ] ]                                 ",
"                                ; ] ] 2 , 5 # # # , # # , 6 ] f.;                                     ",
"                                      ; ; ; ; ; ; ; ; ; ;                                             "};
