/* XPM */
static char * Enemy1_xpm[] = {
"51 51 131 2",
"  	c #00FFE4",
". 	c #263A3D",
"+ 	c #2A4246",
"@ 	c #141817",
"# 	c #385B63",
"$ 	c #6BBDD1",
"% 	c #5B9DAC",
"& 	c #1B2526",
"* 	c #233335",
"= 	c #243638",
"- 	c #67B6C9",
"; 	c #5898A7",
"> 	c #121413",
", 	c #3D646D",
"' 	c #5594A2",
") 	c #1E2A2B",
"! 	c #406B75",
"~ 	c #66B2C4",
"{ 	c #60A6B7",
"] 	c #69B9CC",
"^ 	c #293E42",
"/ 	c #161B1A",
"( 	c #54919F",
"_ 	c #2D464B",
": 	c #508996",
"< 	c #6EB6C7",
"[ 	c #82AFB9",
"} 	c #6DC1D5",
"| 	c #304D53",
"1 	c #70C5DA",
"2 	c #44737D",
"3 	c #74B4C3",
"4 	c #96A6A9",
"5 	c #7CB1BD",
"6 	c #487A85",
"7 	c #518C99",
"8 	c #4E8592",
"9 	c #4A7D89",
"0 	c #98A6A8",
"a 	c #6AB7C9",
"b 	c #64AFC1",
"c 	c #477883",
"d 	c #67BACE",
"e 	c #62ABBC",
"f 	c #181F1F",
"g 	c #202E30",
"h 	c #4C828E",
"i 	c #A1ADAE",
"j 	c #7AB5C3",
"k 	c #A5B1B3",
"l 	c #EBEDED",
"m 	c #96A3A5",
"n 	c #5EA3B3",
"o 	c #85ADB6",
"p 	c #93A8AC",
"q 	c #F3F4F4",
"r 	c #A9B4B6",
"s 	c #E5E9E9",
"t 	c #FFFFFF",
"u 	c #8EA9AF",
"v 	c #8AABB2",
"w 	c #72B7C8",
"x 	c #0E0C0A",
"y 	c #467681",
"z 	c #ADB9BA",
"A 	c #BEC7C8",
"B 	c #BBC5C6",
"C 	c #34545A",
"D 	c #325157",
"E 	c #D5DBDC",
"F 	c #BFC8C9",
"G 	c #C7CFD0",
"H 	c #EFF1F1",
"I 	c #D1D7D8",
"J 	c #73BBCC",
"K 	c #8DA6AB",
"L 	c #F7F8F8",
"M 	c #CCD3D4",
"N 	c #ABB6B8",
"O 	c #9DAAAC",
"P 	c #B6C0C2",
"Q 	c #C4CCCD",
"R 	c #DDE2E2",
"S 	c #D1D6D7",
"T 	c #E2E4E5",
"U 	c #F6F7F8",
"V 	c #B5BFC0",
"W 	c #909FA2",
"X 	c #A7A5AA",
"Y 	c #B1BCBD",
"Z 	c #82B4BF",
"` 	c #E7E7E8",
" .	c #939096",
"..	c #47434D",
"+.	c #AEACB1",
"@.	c #B9B7BB",
"#.	c #332D39",
"$.	c #3B3641",
"%.	c #403C46",
"&.	c #DADEDF",
"*.	c #C9C7CA",
"=.	c #545059",
"-.	c #66626B",
";.	c #D8D7D9",
">.	c #747078",
",.	c #39343F",
"'.	c #928F95",
").	c #D1CFD2",
"!.	c #EFEFF0",
"~.	c #6A666F",
"{.	c #9E9BA1",
"].	c #6E6A73",
"^.	c #8A878E",
"/.	c #3E3944",
"(.	c #97949A",
"_.	c #5D5962",
":.	c #7E7B82",
"<.	c #36303C",
"[.	c #605C65",
"}.	c #2F2A35",
"|.	c #7A767E",
"1.	c #E0DFE1",
"2.	c #CBCED0",
"3.	c #58545E",
"4.	c #302B36",
"5.	c #838087",
"6.	c #2E494E",
"7.	c #DADFE0",
"8.	c #ACA9AE",
"9.	c #C4C2C6",
"0.	c #99A4A6",
"                                                                                                      ",
"                                                                                                      ",
"                                                                                                      ",
"                                                                                                      ",
"                                                                                                      ",
"                                                                                                      ",
"                          . + +                                                                       ",
"                        @ # $ % &         * = *                                                       ",
"                        @ # - ; &       > , - ' ) )                                                   ",
"                            = *         @ ! $ ~ { % =                                                 ",
"                                        @ ! $ ] ] ] ; ^     / /                                       ",
"                                        > , $ - ] ] ] ( _ # : ! @     @ /                             ",
"                                        @ , $ < [ ] ] } | ! 1 { ! & & ! 2 _                           ",
"                                        > , $ 3 4 5 ] ] 6 7 ] $ { & & 2 ~ 8 _                         ",
"                                        ^ 9 $ 3 0 4 5 a $ ] $ b 9 &   @ : } 8 ^                       ",
"                      . . ^ .         / c $ d 3 0 0 0 5 a e % 9 f     . ' ] $ 7 =                     ",
"                  g g 8 ] ~ h f       / c $ ] 3 0 i 0 0 j 2 ) &     * % ] a - ] ' g                   ",
"                g % e ~ $ 9 )         f 6 $ 5 4 k l k m j - 2 /   * n - - o o ] ] % )                 ",
"              * ; - ] ] $ c /       f 6 ~ 5 p m k q k m 5 ] ~ 6 . % - ] o 4 4 [ ] n )                 ",
"            . ( - ] ] $ 9 ^       f 9 b ] 5 0 r s t s r u 3 $ e ' ] ] [ 4 0 0 v ] ~ 7 *               ",
"          _ 7 ] ] ] [ w , x     & y ~ ] j u m z t t t z m u 5 d ] o v m m A B 4 5 ] a = @             ",
"          C } ] ] 5 4 j 7 D   g ! a ] d o m k E t t t E r m u 5 o 0 0 F G H I m u ] e * C +           ",
"          D ] a 5 4 0 o J ' | , ] ] ] 3 K k E t t t t t B m 0 0 0 0 B L t t M m u ] ~ , { 6 ^         ",
"        = ! ] < 4 0 N i o a $ ] - 3 3 u i E t t t t t t M i m 0 O P L t t q Q m o ] ] ] ] $ , /       ",
"      @ , $ a 3 4 0 l B m o < ] 3 p 0 O R t t t t t t t t S O m r L t t t Q m o ] 3 a ] ] $ , @       ",
"      @ , $ 3 0 0 O H Q 0 0 o 3 p 0 O R t t t t t t t t t t E 0 z t t t t F m o 3 4 p 3 - $ , @       ",
"      @ , $ 3 0 O s t L Q m 4 p 0 0 T t t t t t t t t t t t L q U t t t A 0 o 5 p 0 4 p 3 $ , /       ",
"      > , $ 3 4 O q t t q l S m O T t t t t t t t t t t t t t t t t t t V m p K r R O 0 3 $ , @       ",
"      , n ] 3 4 O q t t t t U R T t t t t t t t t t t t t t t t t t t t V W V R s L O 0 3 $ , @       ",
"    / 6 } - 3 0 O q t t t t t t t t t t t t t l X t t t t t t t t t t t Y Y l t L Q 0 Z < } , /       ",
"    / y $ d 3 4 O q t t t t t t t t t t t t `  ...+.U t t t t t t t t t I s t U Q m 0 < ] ' C         ",
"    / c $ ] 3 0 O q t t t t t t t t t t t t @.#.$.%.T t t t t t t t t t t t U G m 0 v a ] D           ",
"    / c $ ] 3 0 O q t t t t t t t t t T &.q *.=.%.-.l ` ;.q t t t t t t t L Q m p v a ] ] C           ",
"    / c $ ] 3 m O q t t t t t t t t q >.,.'.t ).-.!.!.~.,.{.L t t t t t t Q m 0 v a ] ] ~ D           ",
"    / c $ ] 3 m O q t t t t t t t L ].%.%.%.^.t !.q -.%./.%.(.t t t t t t Q m v a ] ] a |             ",
"    / c $ ] 3 0 O q t t t t t t t L _.,.%.#.:.t t q =.,./.<.^.t t t t t t L Q 4 v ] - - +             ",
"    / 6 } ] 3 m O U t t t t t t t t S [.}.|.1.t t t 2.3.4.5.T t t t t t t t M m u - ] a +             ",
"      6.: ] 3 0 0 B q t 7.&.t t t t t *.8.;.t t t t t 9.8.1.t t t t Q q t t I m u ] ~ ! .             ",
"      > , } < o 4 m l t T Q M E t t t t t t t t t t t t t t t q M M Q U t T V m u ] b *               ",
"        C % d < 0 0 M U t s P B &.7.&.7.&.&.&.&.&.&.&.&.&.&.7.S P A t t t Q m 4 Z ] ~ =               ",
"          D $ < v 0 m M L t t q z z z N z z z z z z z z z z r Q t t t t q P 4 [ ] ~ ' =               ",
"          D e ] a v 0 m G t t t t t t t t t t t t t t t t t t t t t t U Y m 5 ] a { )                 ",
"            6.~ a a v 4 4 Q t L t t t t t t t t t t t t t t t t t L U z 0 5 ] ] ] % )                 ",
"              _ ~ ] 3 v 0 O k V t t t t t t t t t t t t t t t t H r k O 5 - ] ] ; =                   ",
"                _ e ] a v 0 0.O Y Y q t t t t t t t t t t E z Y N 4 m 5 a ] $ 7 ^                     ",
"                  C n } 3 3 o 0.m m Y B B B B B B B B B B k m 0.4 5 j ] $ } : _                       ",
"                    # , ' } J Z 5 Z m m m m m m m m m m 0.0.u 5 5 ] $ $ 9 , |                         ",
"                      x # 6 y 8 ] $ Z o o o o o o o o o o o j $ $ - 9 c ^ >                           ",
"                          / @ = : 7 7 e $ d ] $ $ d $ d $ n : 7 7 8 ) /                               ",
"                                f f f 9 n % % % % % % % % , / f & /                                   ",
"                                      & & & & & & & & & &                                             "};
