/* XPM */
static char * Enemy0_xpm[] = {
"51 51 111 2",
"  	c #00FFE4",
". 	c #1C2728",
"+ 	c #79757D",
"@ 	c #3C4646",
"# 	c #2F3838",
"$ 	c #243639",
"% 	c #325056",
"& 	c #66B2C4",
"* 	c #5EA3B4",
"= 	c #385C63",
"- 	c #5897A6",
"; 	c #1E2A2B",
"> 	c #36585F",
", 	c #61AABB",
"' 	c #69B9CC",
") 	c #273B3E",
"! 	c #3C646D",
"~ 	c #64AFC1",
"{ 	c #5A9CAC",
"] 	c #1B2525",
"^ 	c #141817",
"/ 	c #6DC0D4",
"( 	c #273C40",
"_ 	c #6BBED1",
": 	c #4D828F",
"< 	c #43717B",
"[ 	c #6AB7C9",
"} 	c #67B9CD",
"| 	c #54919F",
"1 	c #2C454A",
"2 	c #202E2F",
"3 	c #497E8A",
"4 	c #3F6871",
"5 	c #131513",
"6 	c #6EB6C7",
"7 	c #7FAFBA",
"8 	c #508996",
"9 	c #2F4B50",
"0 	c #416C75",
"a 	c #304D52",
"b 	c #73B4C3",
"c 	c #95A6A9",
"d 	c #7BB1BD",
"e 	c #34545A",
"f 	c #2E494E",
"g 	c #477883",
"h 	c #98A6A8",
"i 	c #426E78",
"j 	c #233436",
"k 	c #4E8491",
"l 	c #66B7CA",
"m 	c #181F1F",
"n 	c #A1ADAE",
"o 	c #518C99",
"p 	c #85ADB6",
"q 	c #AAB5B6",
"r 	c #EAEBEC",
"s 	c #A5B2B3",
"t 	c #93A8AC",
"u 	c #ABB7B8",
"v 	c #F3F4F5",
"w 	c #F7F8F8",
"x 	c #95A3A5",
"y 	c #8BABB2",
"z 	c #8CA9AF",
"A 	c #83B2BC",
"B 	c #ADB8BA",
"C 	c #FFFFFF",
"D 	c #E6E9EA",
"E 	c #76B1BE",
"F 	c #C4CCCD",
"G 	c #8EA4A9",
"H 	c #B2BCBD",
"I 	c #CCD3D4",
"J 	c #D5DBDB",
"K 	c #F6F7F8",
"L 	c #202E30",
"M 	c #A2AFB1",
"N 	c #DBDCDE",
"O 	c #83AFB8",
"P 	c #DDE2E2",
"Q 	c #BAC3C5",
"R 	c #9CAAAC",
"S 	c #BEC7C8",
"T 	c #E2E4E5",
"U 	c #B5BFC0",
"V 	c #7DB6C3",
"W 	c #EEF0F1",
"X 	c #8D8A91",
"Y 	c #BFC8C9",
"Z 	c #2A4246",
"` 	c #487A85",
" .	c #D0D7D7",
"..	c #413C47",
"+.	c #161B1A",
"@.	c #D0CFD1",
"#.	c #322D39",
"$.	c #E0DFE1",
"%.	c #C4C3C6",
"&.	c #6E6A73",
"*.	c #7C7980",
"=.	c #726F77",
"-.	c #3B3641",
";.	c #3D3843",
">.	c #5694A2",
",.	c #B7C1C2",
"'.	c #5FA8B9",
").	c #99A5A6",
"!.	c #74BFD1",
"~.	c #81B5C1",
"{.	c #467782",
"                                    .                                                                 ",
"                                  . + @                                                               ",
"                                    @ #                                                               ",
"                                                                                                      ",
"                                                                                                      ",
"                                                                                                      ",
"                                                                                                      ",
"                              $ $             $                                                       ",
"                            % & * $         = - ; ;                                                   ",
"                          > , ' ' * )     ! ~ & , { )                 ] ]                             ",
"                        ^ = / ' ' ' (   ^ ! _ ' ' ' - (             ] : - %                           ",
"                          ( < _ & =     ^ ! _ [ } ' ' | 1         2 3 & _ { =                         ",
"                            ( 4 ! ]     5 = _ 6 7 [ [ _ 8 9       2 0 , ' _ - =                       ",
"                            5 ^ ^       a 8 _ b c d ' ' _ 8 a       ] { ' [ _ { e                     ",
"                          ( a f       ^ g / } b c h d [ ' / g ^     ] { _ ' ' ' * f                   ",
"                      ) $ i / { .     j k _ [ d h c h d [ _ k j     ( * ' 6 6 [ ' , .                 ",
"                    ; k ' l ' { .   m 8 ' } b h h n h h d } ' o ] ) , ' ' p p [ ' * $                 ",
"                  . o ' ' ' _ { ]   ] o ' } d h q r s h d } _ o ) , & [ [ p c p } l * $               ",
"                . | & ' [ ' ' { ] ] 8 & } d t u v w s x d } ' ~ * ' l y t t h y } ' & j               ",
"              j 8 l ' } d z A { ; : l ' 7 t B r C C D q E } } } [ y y x x F F x p [ & $               ",
"              j & ' ' d t h y ~ : [ } d G H D C C C C H z b b p y x h I J K J x z ' & L 5 ! e         ",
"            j < & ' b t h x t d _ } d t H D C C C C C B x y y x M F I K C D H x z ' & < ! * 0 ^       ",
"          ) 0 ' [ b t x u B x c d d c x N C C C C C C I M h h x s C C C C F x t O [ } _ _ / ! ^       ",
"          e _ ' [ c h s P D s h c h h x J C C C C C C C Q x c R S C C C C F x p } ' b b b ' ! ^       ",
"        . ! ' [ b t c P C C T c x x t G J C C C C C C C F h x U C C C C C F x y [ b c h c V 4 ^       ",
"      ^ ! ' ' 6 t h h P C C D h h t b z J C C C C C C C C I c Q C C C C C F x c h c h h t V ! ^       ",
"      ^ ! _ [ 6 c h P C C C C T R b [ y J C C C C C C C C w v v C C C C C F x x h h h h V ' ! ^       ",
"      5 ! _ b z h x D C C C C W c y y x J C C C C C C C C C C C C C C C C F x B r P R h b / ! ^       ",
"      ! * ' b h R J w C C C C w J h x F v C C C v X v C C C C C C C C C C Y U r C w R d ' g Z         ",
"    ^ ` _ ' b c R v C C C C C C C J  .v C C C r X ..X D C C C C C C C C C S F C K F R [ / %           ",
"    +.` _ l b h R v C C C C C C C C C C C C C @.#...#. .C C C C C C C C C N P v F x p [ 8 f           ",
"    ^ g _ ' b h R v C C C C C C C C C C $.%.$.T &...&.T $.%.$.C C C C C C C C P x t [ ' Z             ",
"    +.` _ ' b h R v C C C C C C C C C r *.#.=.r r =.D r =.#.+ r C C C C C C w  .x y 6 * (             ",
"    +.< l ' b c R v C C C C C C C C C + -.;.#.=.C C C &.-.;.;.+ C C C C C C  .h y ' ~ )               ",
"      . 0 _ b h R v C C C C C C C C C + -.;.-.&.C C C &.;.;.;.+ C C C C C C  .h t ' ~ j               ",
"      ^ ! _ b h R v C C C C C C C C C r *.#.=.D C C C T =.#.+ r C C C C C C w I c y ~ j               ",
"      ^ 4 / [ d R H W C C P F C C C C C $.%.N C C C C C N %.$.C C C C F D C C P h t & >.Z             ",
"        1 3 ' 6 c x r C C W I S F C C C C C C C C C C C C C C C v F Y  .v C C P h t [ ' Z             ",
"          % _ [ A c F W C C v F F I I I I I I I I I I I I I I I I F F w C C r S c 7 [ [ Z             ",
"          9 >.[ ' t x P C C C C C S ,.Q ,.,.Q ,.,.,.,.Q ,.,.Q ,.F C C C C C I x z ' ' ' 1             ",
"            Z ' [ y c I r v C C C C C C C C C C C C C C C C C C C C C C C v F c p ' [ { (             ",
"            Z * [ ' y h x S w C C C C C C C C C C C C C C C C C C C C C w Q x p [ ' & $               ",
"              ( '.' ' p h h Q w C C C C C C C C C C C C C C C C C C w w Q h O ' ' ' , j               ",
"                ( * ' [ p h R s B v C C C C C C C C C C C C C C C K B s R 7 [ [ ' * )                 ",
"                  1 { / [ p ).).h B H u T C C C C C C C C J B H H B h h d [ [ _ { Z                   ",
"                    a % 8 / V A h x x x u S S Q S Q Q S S s x x x x d d [ ' / - a                     ",
"                        a ! 3 !.~.A d t x x x x x x x x x h h t O d _ _ / 8 ! e                       ",
"                          5 ( {.3 l _ ~.p p p p p p p p p p p V _ l 3 {.` 9 5                         ",
"                              ^ . k 8 8 '._ } ' _ } _ } _ _ '.o o k . ^ +.                            ",
"                                  ] ] ^ < * { { { { { { { * < ^ +.]                                   ",
"                                        ] . . ] . ] ] . ] ] ]                                         "};
