/* XPM */
static char *TilesetElement_2__resized[] = {
/* columns rows colors chars-per-pixel */
"51 51 53 1 ",
"  c #0E1416",
". c #101617",
"X c #101718",
"o c #141B1B",
"O c #181F1F",
"+ c #19201F",
"@ c #1C2422",
"# c #212927",
"$ c #242C28",
"% c #282F2C",
"& c #26302C",
"* c #2A322E",
"= c #2C3630",
"- c #2E3833",
"; c #333C36",
": c #36423B",
"> c #3A453C",
", c #40483F",
"< c #3F4B42",
"1 c #424C42",
"2 c #465046",
"3 c #46554A",
"4 c #4A554A",
"5 c #4C594D",
"6 c #525B4E",
"7 c #4F5D50",
"8 c #535E51",
"9 c #556456",
"0 c #596254",
"q c #5A6758",
"w c #5D6D5D",
"e c #5E705F",
"r c #626D5D",
"t c #63705F",
"y c #5F7160",
"u c #637463",
"i c #6A7564",
"p c #677865",
"a c #6A7A67",
"s c #6C7B68",
"d c #707E6B",
"f c #73826E",
"g c #778570",
"h c #788671",
"j c #7C8974",
"k c #818C76",
"l c #838E78",
"z c #86917A",
"x c #8D977F",
"c c #8E987F",
"v c #8E9880",
"b c #919B82",
"n c #96A086",
/* pixels */
"        ..    .XXoOXXOXOXoXooooOoooooo+oooooooooooo",
"XXoX.XXXoo..XXoXOXXOOoooOoOoOXoXoo+oooooooooooooooo",
"@@++@+@+++@@@OOOOoooooXOXXoXXOoOoooooooooooooooo+oo",
"********;%%%%%$@OOoooooooOoOoooXoooooooooooooo+oooo",
",,,,,,,,,,,,,;;%@OoXooOXooooOoOXo+ooo+oo+oooo+ooooo",
"00008000000066,;%@OXXXooOXOXXoooooooooooooooooooooo",
"dddiddddihhiir6,%@OXXXoXXooOoXOXooooooooooooooooooo",
"llzkkzkkllxxldr,;@XXXOoOOoXOoOooooooooooooooooooo+o",
"cccccccccccnxhr2;#oXXXooXoOXoOXooooooooooo+oooo+ooo",
"ccncnccnnnnnxhr6;@X  XXXXXXXXXXXoXXoooooooooooooooo",
"nccccncccnnnxkr4;+o   XXXXXXXXXXXXXXooooooooooooooo",
"cnccccccccncxkr2;@X  XXXXoXooXXoXoooooooooooooooooo",
"ccccccxccnncckr6;#OXooOOOOOoOOOOo+ooooooooooooooooo",
"ccccxccxcccnxhi6,%$@@##$#$$#%#%#$$#@++oooooooooo+oo",
"ccccccxxccnczki0,,;%;;;;;;;;;;;;:-=$#+ooooooooooooo",
"ccccxxxcccccxkir0,,,,1262662626642>;%+oooooooo+oooo",
"xxxcxxxccvvcxlgur66699qwwwrr0rrrr84,=#+..Xooooooooo",
"ccxxccxxccvcxzhfirrreyassssssddsdr0,;#+X.oooooooooo",
"xxcxxxcxccxcxljgauttpffhggggghhjfsr4:#+..oooooo+ooo",
"xcxxcxxxccxxxzjfsppaffhhjjhjhjkjgdr4;$+..Xooooooooo",
"xxcxxxccccvcxzjfspuaffhhjjjhjjjkkdr4;$Oo.Xooooooooo",
"cxxxcxxxccvvxzjgapupafghhhhhhjjjhsr2:$OX.oooooooooo",
"cxcxcxccccvvxzjfauuppfffhhhhhhjjgsr4;$OX.oooooooooo",
"xxcxxxxcccbcxzjfapupafffhhhhhhjjgsq4;$OX.Xooooooooo",
"xcxxxxcxccccxzjffeyyfffghhggghjjgsw2;$o. .oooooXooo",
"xxcxcxcxcbccxzjffefeeffghhhgghjjgsq4;$o. ..XXXXoXoo",
"ccxxxcxxccccxxjfeeyffffghhgggjhjhsw3;$o. .oXXoooooX",
"xxxcxxxcccccxjjgfyeeefffhhgggghjfsw3;$OoXXooooOoooo",
"xccxccxxccccxxhfffeeffffhhhgghjjffq5<&@+++@@@@@@@@@",
"xxxxxxcxccbcxjjfyyfyyfffghgggghhffe7<:=&&&&=&&&&=&&",
"cxxcxcxxccccxjgffeeeyfgghhggghjhgff97<<::<<:<::<<::",
"xxxcxxxcxxbcxxfffefyfffghghgghhhgfyy9773<33<3333333",
"ccxxxxccccbcxzjfapypaffgghggghhhgffyyw99999w9999799",
"xxxcxcxxccvcxzjfapyppffggggggghgggffyyyyeeyyyyeyeee",
"xxxcxxcxcccvxzjfpyypafffhgggghhggffpfypyyyyyfyyyeee",
"ccxxcxxxccccxzjffypyafffghhgggghgffapfyyyyyyyyyyfyy",
"xxxcxxxcccbvxzjfpyyppffghhgggghggffpypyyyyefyyyyyfe",
"xcxcxcxcccccxzjffypppffghghgghhggfffayyyyeeyyyyyyye",
"xcxxxcxxccccxzjfappyaffgghgggghhgffappyyyeyyyyyyyyy",
"ccccccccccccxzjfapyypffghggggghgggfapyyyeyyyyyyyyyy",
"vvvvvvvvbcbcczjfapyyaffggggggggjffffyyyyeeyyyyyyyyy",
"vvvvvvvvcbcccxjfappppffggjggggggffffffyyeyyyyyyyyyy",
"vxvxvxvxccccxzjfaypyaffgggggggggfffyyyyyeeyyyyyyyyy",
"zxzxxzxzxxxxzzjfapypafffgjggggggfffffyyyeeyyyyyyyyy",
"lzljzllzzzlzkjffaypppffgggggggggffffyyyyyyyyyyyyyyy",
"hhhjhhghghhhhffaayyppffggggggggjfffffyyyyyyyyyyyyyy",
"sffsfssffsfsfsaupyypaffgggjgggjgfffyyyyeeyyyyyyyyyy",
"pppppppppppaupuuyyyppfggggggggggfffffyyyeeyyyyyyyyy",
"uuyyyyyuyyyyyyyyyyyaffffjgggggggfffyyyyeeeeeeyyyyyy",
"yyyyyyyyyyyyyyyyyyypafffggggggggfffffeyeeeeeyyyyyyy",
"wywyywyywyywyyyyyyyyaffggggggggjgffffyyyeeeeyyyyyyy"
};
