/* XPM */
static char *TilesetElement_resized[] = {
/* columns rows colors chars-per-pixel */
"51 51 129 2 ",
"   c #5D6F5E",
".  c #5D6F5F",
"X  c #5D705F",
"o  c #5E705F",
"O  c #5E7160",
"+  c #5F7160",
"@  c #607160",
"#  c #607260",
"$  c #607261",
"%  c #617261",
"&  c #617361",
"*  c #617362",
"=  c #627362",
"-  c #627462",
";  c #637462",
":  c #637463",
">  c #637563",
",  c #647563",
"<  c #647564",
"1  c #647664",
"2  c #657664",
"3  c #667664",
"4  c #667764",
"5  c #667765",
"6  c #677765",
"7  c #677865",
"8  c #677866",
"9  c #687866",
"0  c #687966",
"q  c #697966",
"w  c #697967",
"e  c #697A67",
"r  c #6A7A67",
"t  c #6A7A68",
"y  c #6B7A68",
"u  c #6B7B68",
"i  c #6C7B68",
"p  c #6C7C69",
"a  c #6D7C69",
"s  c #6D7D69",
"d  c #6D7D6A",
"f  c #6E7D6A",
"g  c #6E7E6A",
"h  c #6F7E6A",
"j  c #6F7E6B",
"k  c #6F7F6B",
"l  c #707F6B",
"z  c #707F6C",
"x  c #71806C",
"c  c #72806C",
"v  c #72816C",
"b  c #72806D",
"n  c #72816D",
"m  c #73816D",
"M  c #73826D",
"N  c #73826E",
"B  c #74826E",
"V  c #74836E",
"C  c #75836F",
"Z  c #75846F",
"A  c #76846F",
"S  c #768470",
"D  c #768570",
"F  c #778570",
"G  c #788570",
"H  c #788571",
"J  c #788670",
"K  c #788671",
"L  c #798671",
"P  c #798771",
"I  c #798772",
"U  c #7A8772",
"Y  c #7A8872",
"T  c #7B8872",
"R  c #7B8873",
"E  c #7B8973",
"W  c #7C8973",
"Q  c #7C8974",
"!  c #7D8A74",
"~  c #7D8A75",
"^  c #7E8A74",
"/  c #7E8A75",
"(  c #7E8B75",
")  c #7F8B75",
"_  c #7F8B76",
"`  c #7F8C75",
"'  c #7F8C76",
"]  c #808C76",
"[  c #808D76",
"{  c #818D76",
"}  c #818D77",
"|  c #818E77",
" . c #828E77",
".. c #828E78",
"X. c #838E78",
"o. c #838F78",
"O. c #838F79",
"+. c #848F79",
"@. c #849079",
"#. c #859079",
"$. c #85907A",
"%. c #85917A",
"&. c #86917A",
"*. c #86927A",
"=. c #86927B",
"-. c #87927B",
";. c #87937B",
":. c #88937B",
">. c #88937C",
",. c #89937C",
"<. c #89947C",
"1. c #89947D",
"2. c #8A947D",
"3. c #8A957D",
"4. c #8B957D",
"5. c #8B957E",
"6. c #8B967E",
"7. c #8C967E",
"8. c #8C967F",
"9. c #8C977F",
"0. c #8D977F",
"q. c #8E977F",
"w. c #8E987F",
"e. c #8E9880",
"r. c #8F9880",
"t. c #8F9980",
"y. c #8F9981",
"u. c #909981",
"i. c #909A81",
/* pixels */
"F F F F J K K K K K K K K K K K K K K K K K K K K K K K K K K K K K K K K K K K K K K K K K J F F F F ",
"F F F F F F F F F F F F F F F F F F F F F F F F F F F F F F F F F F F F F F F F F F F F F F F F F F F ",
"F F F A Z C V V V V V V V V V V V V V V V V V V V V V V V V V V V V V V V V V V V V V V V C Z A F F F ",
"J G D C M x l j h h h h h h h h j j k k j j j h j j j k k k k k k k k k k k k k k j j j l x M C D G J ",
"L J A N l p e q 0 0 0 0 0 0 0 0 q q w w w q 0 0 q q w w w w w w w w w w w w w w w w q q r p l N A J L ",
"L F C c a 9 1 : ; : > > > > > > > , , , , > > > > > , , , , , , , , , , , , , , , > : : 1 9 a c C F L ",
"D Z M k y 5 ; = = ; : > > > > : ; - = = - ; : : : ; - = = = = = = = = = = = = = = * & & ; 5 y k M Z D ",
"c x k s r 7 3 4 7 q r t y y r e 9 6 3 2 5 9 w e w 9 5 2 < , , , , , , , , , , , , , , , 1 6 r a k x x ",
"u u u y r r u s l n V Z A A C N x f p i d z M B m l s u r e e e e e e e e e e e e e e e e e r r r r r ",
"1 2 6 0 y f x C P ! ] | .. .{ ( Y A M m Z U / _ ! I C v l l l l l l l l l l l l l l z l k d y 9 5 1 , ",
"@ % : 6 u x A R [ $.>.3.5.5.1.=.| Q K J E } &.;.$.[ T F C C Z A A S A A A A A A A D F D Z n s 9 , = % ",
"X O * 4 u n J / O.>.8.e.y.t.q.3.#.) T U ( @.1.5.,.o.~ P J K U E W W Q Q Q Q Q Q Q ! ! ! E F x u 5 > - ",
"  o & 3 u n K ( @.1.0.y.i.u.e.5.%.` T Y ( #.3.7.1.+./ U I R ( [  .X.X.o.o.o.o.o.o.O.@.+. .~ F x i q 7 ",
". O & 4 u n K / +.,.9.r.u.y.w.3.#.) Y U / @.1.6.,.o.! U Y ! | $.-.:.>.>.>.>.>.>.>.,.<.<.-.o.! D v j d ",
"o + = 5 u v G ~ o.:.7.w.r.e.0.2.#.) T Y ( +.<.4.:...Q I T ) @.,.4.5.4.3.2.2.2.2.2.3.4.4.<.%.] R D V M ",
"o + = 5 u v G ! o.:.6.q.r.e.9.3.&.{ ! ! [ %.1.4.:. .Q I R ] &.4.7.5.<.-.&.%.%.&.&.&.=.*.%.o.' W L F A ",
"o + = 5 u v G ! o.:.6.q.e.e.0.5.:.@. .| @.:.4.5.;. .Q I E { -.5.5.:.o.( W T T R E W Q Q Q W T I K J G ",
"o + = 5 u v G ! o.:.6.q.e.w.0.7.3.>.=.=.>.3.7.5.-.| Q I W } -.4.<.o.R B l g g h k k l z x n B Z F J K ",
"o + = 5 u v G ! o.:.6.q.e.q.0.9.7.5.3.3.5.8.9.6.-.| W I W } -.3.-.' C p 6 2 2 4 5 5 3 4 6 r f n Z F K ",
"o + = 5 u v G ! o.:.6.q.e.q.0.9.7.5.4.4.6.9.9.6.-.| W I W } -.2.-.) V u 3 , , < < : * % & 1 r l V F K ",
"o + = 5 u v G ! o.:.6.q.e.w.0.7.3.,.;.-.,.4.7.5.-.| Q I E } =.3.>.| L x a u u p u 9 , % # ; q j V F K ",
"o + = 5 u v G ! o.:.6.q.e.e.0.5.>.#.X...#.>.4.5.;. .Q I E { *.3.2.&.] R J F H H Z z e , $ ; 0 h V F K ",
"o + = 5 u v G ! o.:.6.q.r.e.9.3.&.| ( ^ { %.2.4.;. .Q I R ] &.3.7.3.;.$.+.+.@.+.{ I l 8 - : 0 h V F K ",
"o + = 5 u v G ! o.:.6.q.r.e.9.2.%.] Q W ' #.<.4.:. .Q I R ] &.4.9.0.8.7.6.7.9.7.>.' V r : > 0 h V F K ",
"o + = 5 u v G ! o.:.6.q.e.e.9.3.*. .) ( | &.2.4.;. .Q I R ] &.4.0.e.e.e.e.y.u.t.5. .A y > > 0 h V F K ",
"o + = 5 u v G ! o.:.6.q.e.e.0.5.>.%.o.o.$.>.5.5.;. .Q I R ] &.4.0.r.r.r.r.u.i.y.5...A y > > 0 h V F K ",
"o + = 5 u v G ! o.:.6.q.e.w.0.7.4.<.>.:.<.5.7.5.-.| Q I R ] &.4.0.e.e.e.e.r.y.r.3.| Z t > > 0 h V F K ",
"o + = 5 u v G ! o.:.6.q.e.q.0.9.8.7.7.7.8.0.0.6.-.| W I R ] &.4.0.e.q.0.0.e.r.w.2.} C t > > 0 h V F K ",
"o + = 5 u v G ! o.:.6.q.e.q.0.0.0.0.0.q.w.e.q.6.-.} W I R ] &.4.0.e.e.q.q.r.y.e.3.} Z t > > 0 h V F K ",
"o + = 5 u v G ! o.:.6.q.e.q.0.0.0.q.w.e.e.e.q.6.-.} W I R ] &.4.0.e.r.r.r.u.i.y.5...A y > > 0 h V F K ",
"o + = 5 u v G ! o.:.6.q.e.q.0.0.0.0.q.q.e.e.q.6.-.} W I R ] &.4.0.e.r.r.r.u.i.y.5...A y > > 0 h V F K ",
"o + = 5 u v G ! o.:.6.q.e.q.0.0.0.0.0.0.q.e.q.6.-.} W I R ] &.4.0.q.0.9.8.0.e.0.<.[ C r > > 0 h V F K ",
"o + = 5 u v G ! o.:.6.q.e.q.0.0.0.0.0.0.q.e.q.6.-.} W I R ] &.4.7.5.<.-.&.*.-.*.o.E b 9 ; > 0 h V F K ",
"o + = 5 u v G ! o.:.6.q.e.e.q.q.q.0.0.0.q.e.q.6.-.} W I E [ *.3.3.-...~ R T R R L m u 1 & ; 0 h V F K ",
"o + = 5 u v G ! o.:.6.q.e.e.e.w.q.0.0.0.q.e.q.6.-.} W I E { =.3.>.X.T N k f g h d r 2 & # ; 0 j V F K ",
"o + = 5 u v G ! o.:.6.q.e.q.0.0.0.0.0.0.q.e.q.6.-.} W I W } -.2.-.' C p 6 2 2 3 3 , = $ $ , e l V F K ",
"o + = 5 u v G ! o.:.6.0.9.7.5.5.6.7.9.0.q.e.q.6.-.} W I W } -.2.-.) V u 3 , , < 2 < , , 2 9 a x C F K ",
"o + = 5 u v G ~ o.>.5.7.4.,.-.-.,.3.7.0.w.e.q.6.-.} W I W } -.3.,...I b s u u p a a a d g l n V A F G ",
"o + = 5 u v G ~ O.>.5.4.>.#...X.#.>.5.0.e.e.q.6.-.} W I E } -.5.4.=.} W L H H K K L P I I P L J F F F ",
"o + = 5 u v G ^ O.>.4.2.&.} / ( | &.3.9.e.r.q.6.-.} W I E [ *.4.7.4.>.%.+.O.O.O.+.@.@.@.+.| ( R K F A ",
"o + = 5 u v G ^ +.>.4.<.@.( T R ` #.2.9.e.r.q.6.-.| W I T ' #.<.5.6.4.2.1.1.1.1.1.2.3.3.<.&.} Q P F A ",
"o + = 5 u v G ^ +.>.4.,.O.! I U ( @.1.9.e.r.q.6.-.| Q P U ! | %.-.>.>.>.>.>.>.>.>.,.<.,.;.#.[ Q P F A ",
"o + = 5 u v G ^ +.>.4.,.o.! P U ( @.1.9.e.r.q.6.-. .Q P L T ^ ] | ..X.X.o.o.o.o.o.o.O.o.X.[ ^ T K F S ",
"o + = 5 u v G ^ +.>.4.,.O.~ I U ( @.1.9.e.r.q.6.;. .Q L J K U E Q Q Q ! ! ! ! ! ! ! ! ! Q W Y L J F D ",
"o + = 5 u v G ^ +.>.4.,.O./ U Y ( @.1.9.e.r.q.6.;. .Q L F F K P I U I I I I I I I I U I I P K J F F F ",
"o + = 5 u v G ^ +.>.4.,.+./ U Y ( @.1.9.e.r.q.6.;. .Q L G K I T E E E E E E E E E E E E R Y I K F F F ",
"o + = 5 u v G ^ +.>.4.,.+./ U Y ( @.1.9.e.r.q.6.-. .Q P L Y ! ' [ { { [ [ [ [ [ [ [ { { ] ( W U K F D ",
"o + = 5 u v G ^ +.>.4.,.+./ U Y ( @.1.9.e.r.q.6.-.| Q P U ! { @.&.*.*.&.&.&.&.&.&.*.*.*.%.o.` W L F A ",
"o + = 5 u v G ^ +.>.4.,.+./ U Y ( @.1.9.e.r.q.6.-.| W I T ) @.>.4.6.5.4.4.4.4.4.4.5.5.5.2.=. .! P F A ",
"o + = 5 u v G ^ +.>.4.,.+./ U Y ( @.1.9.e.r.q.6.-.} W I R ] &.4.0.e.w.0.0.0.0.0.0.q.e.q.8.>.o./ I F A ",
"o + = 5 u v G ^ +.>.4.,.+./ U Y ( @.1.9.e.r.q.6.-.} W I E [ =.7.e.t.t.r.e.e.e.e.e.r.t.t.0.1.+.( I F A "
};
