/* XPM */
static char *TilesetField_resized[] = {
/* columns rows colors chars-per-pixel */
"51 51 52 1 ",
"  c #79A748",
". c #7AA748",
"X c #7BA848",
"o c #7CA848",
"O c #7DA848",
"+ c #7DA948",
"@ c #7FA949",
"# c #80AA49",
"$ c #83AB49",
"% c #84AB49",
"& c #87AC4A",
"* c #88AD4A",
"= c #8AAD4A",
"- c #8BAE4A",
"; c #8CAE4B",
": c #8DAF4B",
"> c #8EAF4B",
", c #8FAF4B",
"< c #90B04B",
"1 c #91B04B",
"2 c #92B04B",
"3 c #92B14B",
"4 c #93B14C",
"5 c #94B14C",
"6 c #95B14C",
"7 c #95B24C",
"8 c #96B24C",
"9 c #97B24C",
"0 c #98B34C",
"q c #99B34C",
"w c #9BB44D",
"e c #9CB44D",
"r c #9DB54D",
"t c #9EB54D",
"y c #9FB54D",
"u c #A0B64D",
"i c #A1B64E",
"p c #A2B74E",
"a c #A3B74E",
"s c #A4B74E",
"d c #A5B84E",
"f c #A6B84E",
"g c #A7B84E",
"h c #A7B94E",
"j c #A8B94F",
"k c #A9B94F",
"l c #AABA4F",
"z c #ABBA4F",
"x c #ACBA4F",
"c c #ACBB4F",
"v c #ADBB4F",
"b c #AEBB4F",
/* pixels */
"zzzzzzzzzzzzzzzzzzzzzzzzzzzzzzzzzzzzzzzzzzzzzzzzzzz",
"zzzxcxzzzzzzzzzzzzzzzzzzzzzzzzzzzcxzzzzzzzzzzzzzzzz",
"zzzzzzzzzzzzzzzzzzzzzzzzzzzzzzzzzzzzzzzzzzzzzzzzzzz",
"zxzy3txczzzzzzzzzzzzzzzzzzzzzzzzi4wzvzzzzzzzzzzzzzz",
"zcz3 :hzzzzzzzzzzzzzzzzzzzzzzzxx9X*dxzzzzzzzzzzzzzz",
"zxzt:&-tzxzzzzzzzzzzzzzzzzzzzzzzu,&=wlxzzzzzzzzzzzz",
"zzzxh-.6zxzzzzzzzzzzzzzzzzzzzzzzxk<.<lczzzzzzzzzzzz",
"zzzczt6izzzzzzzzzzzzzzzzzzzzzzzzccu6ylxzzzzzzzzzzzz",
"zzzzzzzzzzzzzzzzzzzzzzzzzzzzzzzzzzzzzzzzzzzzzzzzzzz",
"zzzzzxxzzzzzzzxcxzzzzzzzzzzzzzzzzzxxxzzzzzzxcxzzzzz",
"zzzzzzzzzzzzxxaeazzzzzzzzzzzzzzzzzzzzzzzzxxdeilxzzz",
"zzzzzzzzzzzzvz2O4lczzzzzzzzzzzzzzzzzzzzzzcx8+>kczzz",
"zzzzzzzzzzzza7*%0lxzzzzzzzzzzzzzzzzzzzzzxd9=$5kczzz",
"zzzzzzzzzzxx8X*pkzzzzzzzzzzzzzzzzzzzzzzzcwO%ukzzzzz",
"zzzzzzzzzzxzr-9zbzzzzzzzzzzzzzzzzzzzzzzzxu;5kbzzzzz",
"zzzzzzzzzzzzljkzzzzzzzzzzzzzzzzzzzzzzzzzzljkzzzzzzz",
"zzzzzzzzzzzzxvczzzzzzzzzzzzzzzzzzzzzzzzzzxvczzzzzzz",
"zzzzzzzzzzzzzzzzzzzzzzzzzzzzzzzzzzzzzzzzzzzzzzzzzzz",
"zzzzzzzzzzzzzzzzzzzzzzzzzzzzzzzzzzzzzzzzzzzzzzzzzzz",
"zzzzzzzzzzzzzzzzzzzzzzzzzzzzzzzzzzzzzzzzzzzzzzzzzzz",
"zzzzzzzzzzzzzzzzzzzzzzzzzzzzzzzzzzzzzzzzzzzzzzzzzzz",
"zzzzzzzzzzzzzzzzzzzzzzzzzzzzzzzzzzzzzzzzzzzzzzzzzzz",
"zzzzzzzzzzzzzzzzzzzzzzzzzzzzzzzzzzzzzzzzzzzzzzzzzzz",
"zzzzzzzzzzzzzzzzzzzzzzzzzzzzzzzzzzzzzzzzzzzzzzzzzzz",
"zzzzzzzzzzzzzzzzzzzzzzzzzzzzzzzzzzzzzzzzzzzzzzzzzzz",
"zzzzzzzzzzzzzzzzzzzzzzzzzzzzzzzzzzzzzzzzzzzzzzzzzzz",
"zzzzzzzzzzzzzzzzzzzzzzzzzzzzzzzzzzzzzzzzzzzzzzzzzzz",
"zzzzzzzzzzzzzzzzzzzzzzzzzzzzzzzzzzzzzzzzzzzzzzzzzzz",
"zzzzzzzzzzzzzzzzzzzzzzzzzzzzzzzzzzzzzzzzzzzzzzzzzzz",
"zzzzzzzzzzzzzzzzzzzzzzzzzzzzzzzzzzzzzzzzzzzzzzzzzzz",
"zzzzzzzzzzzzzzzzxxzzzzzzzzzzzzzzzxxzzzzzzzzzzzzzzzz",
"zzzzzzzzzzzzzzzzxxzzzzzzzzzzzzzzzxxzzzzzzzzzzzzzzzz",
"zzzzzzzzzzzzzzczt0azzzzzzzzzzzzza0tzczzzzzzzzzzzzzz",
"zzzzzzzzzzzzzzch=o0xxzzzzzzzzzxx0o=hczzzzzzzzzzzzzz",
"zzzzzzzzzzzzxlt,&=txxzzzzzzzzzxxt=&,tlxzzzzzzzzzzzz",
"zzzzzzzzzzzzcl< ,hzzzzzzzzzzzzzzzh, <lczzzzzzzzzzzz",
"zzzzzzzzzzzzxle<tcczzzzzzzzzzzzzcct<elxzzzzzzzzzzzz",
"zzzzzzzzzzzzzzlllzzzzzzzzzzzzzzzzzlllzzzzzzzzzzzzzz",
"zzzzzcvxzzzzzzxcxzzzzzzzzzzzzzzzzzxcxzzzzzzxvczzzzz",
"zzzzlsufxzzzzzzzzzzzzzzzzzzzzzzzzzzzzzzzzzxfuslzzzz",
"zzzck<#qvczzzzzzzzzzzzzzzzzzzzzzzzzzzzzzzcvq#<kczzz",
"zzzck1@;efzzzzzzzzzzzzzzzzzzzzzzzzzzzzzzzfe;@1kczzz",
"zzzzlge%@eczzzzzzzzzzzzzzzzzzzzzzzzzzzzzce@%eglzzzz",
"zzzzzbk<*yxzzzzzzzzzzzzzzzzzzzzzzzzzzzzzxy*<kbzzzzz",
"zzzzzzlgfkzzzzzzzzzzzzzzzzzzzzzzzzzzzzzzzkfglzzzzzz",
"zzzzzzzcvxzzzzzzzzzzzzzzzzzzzzzzzzzzzzzzzxvczzzzzzz",
"zzzzzzzzzzzzzzzzzzzzzzzzzzzzzzzzzzzzzzzzzzzzzzzzzzz",
"zzzzzzzzzzzzzzzzzzzzzzzzzzzzzzzzzzzzzzzzzzzzzzzzzzz",
"zzzzzzzzzzzzzzzzzzzzzzzzzzzzzzzzzzzzzzzzzzzzzzzzzzz",
"zzzzzzzzzzzzzzzzzzzzzzzzzzzzzzzzzzzzzzzzzzzzzzzzzzz",
"zzzzzzzzzzzzzzzzzzzzzzzzzzzzzzzzzzzzzzzzzzzzzzzzzzz"
};
