/* XPM */
static char * Walk_up_xpm[] = {
"51 51 198 2",
"  	c #00FFE4",
". 	c #141B1B",
"+ 	c #0C141A",
"@ 	c #0B1217",
"# 	c #191D1B",
"$ 	c #1B231D",
"% 	c #16221E",
"& 	c #21261C",
"* 	c #2D311D",
"= 	c #3A3D1E",
"- 	c #36391E",
"; 	c #32361E",
"> 	c #464920",
", 	c #51501F",
"' 	c #646322",
") 	c #49481E",
"! 	c #101415",
"~ 	c #101518",
"{ 	c #43451F",
"] 	c #6B6A24",
"^ 	c #838127",
"/ 	c #959229",
"( 	c #8F8A26",
"_ 	c #7B812D",
": 	c #262C1D",
"< 	c #7D7A25",
"[ 	c #9C9729",
"} 	c #A9A229",
"| 	c #9EA02F",
"1 	c #374628",
"2 	c #1D2A22",
"3 	c #1A2623",
"4 	c #292D1D",
"5 	c #222E22",
"6 	c #535420",
"7 	c #817D24",
"8 	c #ACA92D",
"9 	c #A3A631",
"0 	c #919F38",
"a 	c #768C3A",
"b 	c #617736",
"c 	c #415731",
"d 	c #324C32",
"e 	c #27412F",
"f 	c #2D452E",
"g 	c #4D4E21",
"h 	c #4F5020",
"i 	c #A19C2A",
"j 	c #7B933D",
"k 	c #648A46",
"l 	c #587239",
"m 	c #43683F",
"n 	c #3E623C",
"o 	c #3C6346",
"p 	c #42663D",
"q 	c #4F6B39",
"r 	c #777727",
"s 	c #737124",
"t 	c #949B33",
"u 	c #59874B",
"v 	c #5B8547",
"w 	c #517E4A",
"x 	c #55864C",
"y 	c #5B8446",
"z 	c #668741",
"A 	c #8F942F",
"B 	c #9D9D2E",
"C 	c #A5A12A",
"D 	c #928D27",
"E 	c #34372B",
"F 	c #879537",
"G 	c #76913E",
"H 	c #5A894B",
"I 	c #6F9144",
"J 	c #718F41",
"K 	c #799540",
"L 	c #82953A",
"M 	c #989C30",
"N 	c #B0A829",
"O 	c #ADA327",
"P 	c #B1A425",
"Q 	c #5B5B21",
"R 	c #6F883C",
"S 	c #8B9B38",
"T 	c #7C9840",
"U 	c #898B2C",
"V 	c #57884D",
"W 	c #628B48",
"X 	c #8A9736",
"Y 	c #6D8E43",
"Z 	c #575923",
"` 	c #152322",
" .	c #8D9935",
"..	c #616B2B",
"+.	c #2E4931",
"@.	c #243A2A",
"#.	c #395938",
"$.	c #223226",
"%.	c #477144",
"&.	c #355235",
"*.	c #46481F",
"=.	c #6C772E",
"-.	c #4B764D",
";.	c #3E411F",
">.	c #4A582B",
",.	c #4A7344",
"'.	c #4E7B4D",
").	c #719143",
"!.	c #293D2B",
"~.	c #395837",
"{.	c #466D41",
"].	c #4E7A47",
"^.	c #0B191A",
"/.	c #071819",
"(.	c #1E322A",
"_.	c #375748",
":.	c #3F7050",
"<.	c #426D50",
"[.	c #437150",
"}.	c #436D4F",
"|.	c #29433C",
"1.	c #366252",
"2.	c #3A6251",
"3.	c #395F51",
"4.	c #2B473E",
"5.	c #2C211E",
"6.	c #34231F",
"7.	c #2A2B27",
"8.	c #364E47",
"9.	c #345B52",
"0.	c #325750",
"a.	c #36463D",
"b.	c #482822",
"c.	c #552C24",
"d.	c #5D2D25",
"e.	c #612C24",
"f.	c #59362B",
"g.	c #54473A",
"h.	c #4E523E",
"i.	c #3E6A50",
"j.	c #563D30",
"k.	c #793528",
"l.	c #953D2D",
"m.	c #9C3D2D",
"n.	c #A03B2C",
"o.	c #8A4A36",
"p.	c #775A3C",
"q.	c #5B6B49",
"r.	c #47744F",
"s.	c #5B734A",
"t.	c #6A6445",
"u.	c #A7402E",
"v.	c #88382A",
"w.	c #3D2520",
"x.	c #B6422F",
"y.	c #D04A33",
"z.	c #C44933",
"A.	c #B74733",
"B.	c #91643F",
"C.	c #697548",
"D.	c #547C44",
"E.	c #A6553B",
"F.	c #C2553A",
"G.	c #CD4A34",
"H.	c #CD4732",
"I.	c #793327",
"J.	c #E54E35",
"K.	c #DB4D35",
"L.	c #996440",
"M.	c #B2573B",
"N.	c #D45037",
"O.	c #EA4F36",
"P.	c #8F5942",
"Q.	c #846743",
"R.	c #55584A",
"S.	c #46584A",
"T.	c #2F5B53",
"U.	c #6E5445",
"V.	c #AE422F",
"W.	c #754D40",
"X.	c #2F514B",
"Y.	c #2E4E48",
"Z.	c #31534C",
"`.	c #693329",
" +	c #723327",
".+	c #623E34",
"++	c #2C4B46",
"@+	c #294641",
"#+	c #253E3A",
"$+	c #223733",
"%+	c #4E4A41",
"&+	c #372420",
"*+	c #3F241F",
"=+	c #3D2C26",
"-+	c #363F37",
";+	c #1D2C2A",
">+	c #243A35",
",+	c #1E3734",
"      . . . . + @ @ + @ + +                                                                           ",
"      . . . . # $ $ $ $ % #                                                                           ",
"      . . $ & * = = - ; - -                                                                           ",
"        . $ ; > , ' ' ' , ) ; !   @ ~ ~ + @ @ @ + + + + + + + + + + @ @ + + +                         ",
"      + . & { ] ^ / / ( _ , ; $ + ~ . . . . . . . . . . . ~ . . . . . . . . . .                       ",
"      + . : ) < [ } } | ( ' 1 2 3 3 2 $ : : 4 4 : : : : 5 : : : : : : : : : : 4 5                     ",
"    + + + : 6 7 } 8 9 0 a b c d e e f 1 1 g g , h h g g g g g h h h h h g h g ) { *                   ",
". . ~ + + : , 7 i | 0 j k l m n n o p q b r < < < < < < < < < < < < < < < < < s 6 ; #                 ",
". . . . $ * , _ [ t j k u v v v w x y z a A [ i i i i i [ i i i B i i [ i C i D ] { : .               ",
". . $ : E > ] _ F j G H u H k I J I J K L 0 M M } i N O } N P i O O O O O N O [ < Q { - *             ",
"~ # : { Q s r a R I H H u I j F S S S L L T L t | O N N N N } N O 8 O } 8 8 O i D < ] 6 = &           ",
"+ # ; 6 < U F G k u V V W G X B i i M t j Y Y j t i } } i } } i } C } O O } } } i [ ( s g : .         ",
"+ $ - ' D i 0 j k H V u k j M } O P } t G k k J t i } P } i } } O C O C C O } C O O i ^ Z E 2 `       ",
"+ # = ' / 8 9 0 j G W H k j M O N P } M G W v J  .i } } } } } } i } C } C C } } N N C U ..c +.@.2     ",
"+ $ - ' D } 8 C M j R W k j M } P P } t j W W J t i } } } } } i O C O C O C } } } O C  .R l #.+.$.% ~ ",
"+ # ; Z 7 / i [ M F R H k j A | i i B t G Y k K t i } P i } } } C } C O i } } } } } i t K W %.&.$.. ~ ",
". . 4 *.' s s < r =.b y W Y j X t X X L j G j F B i } } } } } } } } } i } } } } P P i t K k -.&.$.` ~ ",
". . & * ;.) ) { > >.q x V W Y J Y J J K j X t M i i } } } i i } i } } } } } } i } } } M K W ,.&.$.# ~ ",
". . . $ & & & & 5 1 c '.H H W v W v k Y L t C i } } } } i } } } } } i } } } } } } i | 0 K W ,.&.$.. ~ ",
". . . . ~ . % 3 $.+.p w V W k k k k Y G S i } } } } } i } } } } } } } } } i } } i B t L ).H ,.&.$.# ~ ",
"    . + + . 2 !.&.#.%.x v Y j L L L L  .M } O P P } } } P } } } } } } P } P } i | X j J k H %.&.$.# ~ ",
"      ~ . 3 e ~.{.'.'.x W G X M B B M i C i } } } } } } } } i } } } i } } } } i  .j k W H H ,.&.$.` ~ ",
"      ~ . $ f n x V V V W G S M B i B M M i M M B B B B B B i i M i i | i | i t L Y H x H x ,.&.$.# ~ ",
"        . 2 +.m x V V V W Y L X X X X X X X S X L X L X X L X S X X L L X X L j J k x x V x ,.&.$.. ~ ",
"      ~ . 2 f p w V V V H W k J J Y Y Y Y Y Y Y J Y Y Y Y Y Y Y k I Y J Y Y Y Y k H x V x x ,.&.@.. ~ ",
"      ! . 2 f p x V V V x x H x u H H x H H H V H v x x H H v v x V H H H H H x H x x V H H ,.&.@.. ~ ",
"      + . $ f p x x V x x x x x x x x x x x x x x x x x x x x x x x x x x x x x x x x V H x %.~.$.. ~ ",
"      ~ . 5 f p x V H x x x x x x x x x x x x x x x x x x x x x x x x x x x x x x x x V V x ,.&.$.# ~ ",
"      ~ . 2 f p x x V V x x x x x x x x x x x V V x x x x x x x x x x x V x x x x x x H V V ,.&.@.. ~ ",
"      ! . 2 f p x V H x H x x x x x x x V x x x x x x V x x x x x x V x x x x x x x x V H V ,.&.$.$ ~ ",
"      ~ ~ 2 f p x V H V x x H x x x x x x x x x x x V x x x x x H x x x x x H x x x x V V H ].&.$.# ~ ",
"      ! . 5 f p x V H x x x x x x x x x x V x x V x x x V x x x x x x x H x x x x V V V V H ,.&.$.. ~ ",
"        . 2 e p ,.x x x u x x x x x x x x x x x x x x x x x x x x x x x x u x x V x x x x w m &.$.. ~ ",
"        . 2 !.d n q ,.x u V V V H x H x x H x x H x x H H x x H x H H x x x x V V V V w ,.p &.f $.` ~ ",
"            5 @.f &.{.x V H V V H V V V H x x H x x x H x x H x V x x V x u u u H H V ,.#.+.!.$.      ",
"              $ 2 !.#.].x V x x x x x V x x x x x x x x x x x x x x x x x x x x V V w m d $.$ $       ",
"              + % 5 +.n %.].'.'.'.'.'.'.'.'.'.'.'.'.'.'.'.'.w '.'.'.w '.'.'.'.-.-.%.m &.@.% ^.        ",
"              @ /.% (.e &._.o :.<.<.[.[.<.<.<.<.<.<.<.<.<.<.<.<.<.<.}.}.[.<.}.}.o #.+.@.$ . ^.        ",
"              . . % $ 2 @.|._.1.2.2.2.2.2.2.2.2.2.2.2.2.2.2.2.2.2.2.2.2.2.2.2.3.4.e $.$ % ^.. .       ",
"              5.5.5.5.6.7.f 8.3.3.3.9.9.3.2.3.3.2.3.3.2.3.2.3.2.2.3.9.9.3.3.2.0.a.!.5.5.5.5.5.5.      ",
"            b.c.d.e.e.e.f.g.h.i.1.2.1.9.2.i.<.<.<.<.<.<.<.<.<.<.<.i.3.9.9.2.i.<.h.j.d.e.e.d.c.b.6.    ",
"        . 7.c.k.l.m.n.m.o.p.q.].[.1.9.2.<.r.'.'.'.'.'.'.-.'.'.'.r.<.2.9.1.i.[.s.t.o.o.u.n.m.v.e.w.# ^.",
"        . 5.d.l.x.y.y.z.A.B.C.D.[.i.3.2.<.'.'.x '.'.x '.'.x V x '.r.i.3.2.[.'.C.t.E.F.G.H.z.n.I.w.# ^.",
"      /.. 5.d.m.y.J.J.K.F.B.C.'.[.2.9.2.<.r.'.'.'.'.'.'.'.'.'.'.-.<.2.1.1.i.r.s.L.M.N.J.J.K.x.v.w.# ^.",
"      /.. 5.d.m.y.J.O.J.F.P.t.}.2.1.9.3.2.<.<.<.r.[.[.[.<.<.<.<.<.i.3.9.9.1.i.q.Q.M.N.J.O.K.x.I.w.# ^.",
"      /.. 5.d.m.z.K.K.K.M.P.R.S.T.9.9.9.9.9.3.9.3.2.9.S.9.9.2.3.3.3.9.9.9.T.1.S.U.E.z.K.K.y.V.I.w.# ^.",
"        . 5.d.v.n.A.n.A.m.W.R.9.T.T.9.9.9.9.0.0.X.Y.Z.X.X.X.Z.0.9.9.9.9.9.T.0.S.U.o.u.x.x.V.l.`.w.# ^.",
"          5.b.e. +k.k.k..+g.S.9.T.9.9.9.9.0.Z.++@+#+$+#+#+#+@+X.0.9.9.0.9.T.9._.%+.+ +I.I. + +c.&+#   ",
"            &+&+w.*+*+w.=+-+8.0.9.9.9.9.9.9.0.@+$+;+3 3 ;+$+#+Y.0.9.9.9.9.9.9.0.a.=+=+*+*+*+w.&+      ",
"              # # # # # 5 >+++0.9.9.9.9.9.9.X.@+;+# . ~ . 3 #+++9.9.9.9.9.9.9.X.@+;+` # # # # #       ",
"              ^.^./.+ ^.` ,+++0.9.9.9.9.9.9.X.#+;+. ~ ~ ~ 3 $+++9.9.9.9.9.9.9.X.@+;++ + + + +         "};
