/* XPM */
static char * Walk_down_xpm[] = {
"51 51 230 2",
"  	c #00FFE4",
". 	c #111518",
"+ 	c #0A1319",
"@ 	c #141B1B",
"# 	c #16221E",
"$ 	c #1B1E1C",
"% 	c #1D2A22",
"& 	c #233326",
"* 	c #19241F",
"= 	c #081417",
"- 	c #2E452E",
"; 	c #2F482F",
"> 	c #385535",
", 	c #365335",
"' 	c #0C191A",
") 	c #111517",
"! 	c #3E613C",
"~ 	c #4B7444",
"{ 	c #4E7A47",
"] 	c #44683E",
"^ 	c #3A5837",
"/ 	c #272C1D",
"( 	c #262A1D",
"_ 	c #292A24",
": 	c #31442C",
"< 	c #5C8749",
"[ 	c #588B51",
"} 	c #5B8A4C",
"| 	c #54834C",
"1 	c #47481F",
"2 	c #4D4F20",
"3 	c #4E5021",
"4 	c #565A24",
"5 	c #536E38",
"6 	c #5C8546",
"7 	c #548850",
"8 	c #628D49",
"9 	c #333A1C",
"0 	c #747528",
"a 	c #7C7925",
"b 	c #8C712D",
"c 	c #758C3B",
"d 	c #5B753A",
"e 	c #466C41",
"f 	c #67661E",
"g 	c #938E27",
"h 	c #9E9C2D",
"i 	c #A19C2A",
"j 	c #9C9428",
"k 	c #8B972F",
"l 	c #7C943D",
"m 	c #638A46",
"n 	c #43663D",
"o 	c #484526",
"p 	c #B0A829",
"q 	c #ADA327",
"r 	c #999D31",
"s 	c #4B764D",
"t 	c #324C32",
"u 	c #293E2B",
"v 	c #1A2523",
"w 	c #3C3E1C",
"x 	c #696925",
"y 	c #A9A229",
"z 	c #786B24",
"A 	c #A6A12A",
"B 	c #567947",
"C 	c #152321",
"D 	c #879537",
"E 	c #73913E",
"F 	c #253A2A",
"G 	c #1B2B29",
"H 	c #495529",
"I 	c #6A6F34",
"J 	c #8A892A",
"K 	c #9EA12D",
"L 	c #939C33",
"M 	c #475737",
"N 	c #6A833B",
"O 	c #7B9640",
"P 	c #517E4A",
"Q 	c #22332B",
"R 	c #4A6537",
"S 	c #6A9045",
"T 	c #749341",
"U 	c #8C9A33",
"V 	c #AB952A",
"W 	c #718F41",
"X 	c #688745",
"Y 	c #A39529",
"Z 	c #989027",
"` 	c #B49033",
" .	c #9B9538",
"..	c #4A7C50",
"+.	c #677749",
"@.	c #A9792B",
"#.	c #987527",
"$.	c #B97C2D",
"%.	c #87734A",
"&.	c #477951",
"*.	c #4F8250",
"=.	c #4D7B4E",
"-.	c #3F7051",
";.	c #466849",
">.	c #69684C",
",.	c #865A36",
"'.	c #B46A35",
").	c #AF5C2D",
"!.	c #854B2B",
"~.	c #57382B",
"{.	c #65452A",
"].	c #C96434",
"^.	c #D75839",
"/.	c #984F2B",
"(.	c #734F2F",
"_.	c #59441D",
":.	c #3F421F",
"<.	c #443526",
"[.	c #785637",
"}.	c #58694C",
"|.	c #3D6C51",
"1.	c #455D53",
"2.	c #655A4C",
"3.	c #8D5847",
"4.	c #C94D34",
"5.	c #B74C33",
"6.	c #1C302E",
"7.	c #442B22",
"8.	c #CE4E34",
"9.	c #653A29",
"0.	c #31291E",
"a.	c #373427",
"b.	c #A44831",
"c.	c #B85438",
"d.	c #A85A39",
"e.	c #555A4B",
"f.	c #3A6251",
"g.	c #447551",
"h.	c #325751",
"i.	c #9F6A46",
"j.	c #AF5A47",
"k.	c #C75B41",
"l.	c #745755",
"m.	c #4B5451",
"n.	c #303C47",
"o.	c #171E23",
"p.	c #372822",
"q.	c #79392A",
"r.	c #ED633E",
"s.	c #E3623D",
"t.	c #5D2C24",
"u.	c #2B1F1E",
"v.	c #35504D",
"w.	c #BC6A44",
"x.	c #345B52",
"y.	c #366251",
"z.	c #D4714A",
"A.	c #D0856E",
"B.	c #B58F8B",
"C.	c #918D95",
"D.	c #626A75",
"E.	c #E87646",
"F.	c #F87B48",
"G.	c #DB643E",
"H.	c #727784",
"I.	c #C77A45",
"J.	c #4A6650",
"K.	c #D78348",
"L.	c #E48D58",
"M.	c #EFB88F",
"N.	c #D7CEBC",
"O.	c #C4BCBF",
"P.	c #EA984A",
"Q.	c #F68C4D",
"R.	c #E7874B",
"S.	c #AA673C",
"T.	c #2A3437",
"U.	c #B0AFAB",
"V.	c #E8CDB4",
"W.	c #ECAA74",
"X.	c #546150",
"Y.	c #6E714D",
"Z.	c #9B774A",
"`.	c #D1924C",
" +	c #E4A868",
".+	c #B0AD8B",
"++	c #50462C",
"@+	c #CD953D",
"#+	c #433A2C",
"$+	c #BE8F44",
"%+	c #416D51",
"&+	c #8D874B",
"*+	c #DFC37E",
"=+	c #D6C78B",
"-+	c #ACA873",
";+	c #CDA53F",
">+	c #CDAD50",
",+	c #A4A031",
"'+	c #BCA134",
")+	c #BCB152",
"!+	c #ADA74B",
"~+	c #968C2B",
"{+	c #A49C33",
"]+	c #3C6549",
"^+	c #436B4E",
"/+	c #375848",
"(+	c #2A4539",
"_+	c #2C4B45",
":+	c #395D51",
"<+	c #2C211E",
"[+	c #39473C",
"}+	c #612A23",
"|+	c #542A23",
"1+	c #88372A",
"2+	c #A0392B",
"3+	c #953C2C",
"4+	c #864932",
"5+	c #46734D",
"6+	c #9C3A2B",
"7+	c #846847",
"8+	c #94643E",
"9+	c #E65F3E",
"0+	c #A57449",
"a+	c #BD7948",
"b+	c #395A3A",
"c+	c #080F19",
"d+	c #31524B",
"e+	c #243A34",
"f+	c #2F514B",
"g+	c #233A38",
"                                                                          . + . . @ . . . @ @ @       ",
"                                                                          @ # @ $ @ @ @ @ @ @ @       ",
"                                                                          % & & & & & % * $ @ @       ",
"                        + + + + + + + + + + + + + + + + + + + + = +   = % - ; > > , , - & # @         ",
"                      @ @ @ @ @ @ . @ @ ' @ @ @ @ @ @ @ @ @ @ . ) ) ) # & , ! ~ { ~ ] ^ - * @ .       ",
"                    / / ( / ( / / _ / / ( ( / / ( / ( / _ / / / / / / / : ^ ~ < [ } | ] - % . +       ",
"                  / 1 1 2 3 3 3 3 3 3 2 2 2 3 1 2 2 2 2 2 2 2 2 2 1 2 2 4 5 6 7 [ 8 [ ] - * @ ) .     ",
"                $ 9 3 0 a a a a a a a a a a a a a a a a a a a a a a b a c d 6 7 [ [ 7 e - % ) ) @ @ @ ",
"              $ ( 1 f g h i i i j h h j i j i i j i j h i j h i j i i h k l m < | | { n ; % # @ @ @ @ ",
"            / 9 o 4 a j p p p q p q p p p q q p q q p q q p p q p q p q r l 8 | s ~ n ^ t u & v # @ . ",
"          ( w 3 x a g i y p q q y p p y q y q q p q p q q p q y q p q q r l 8 { ! ^ ; ; , > , u % @ @ ",
"        $ / 1 z g j i A A q q y q A A q A q i y A A A y A A A q A q q A r l m B ! - & - ^ ] n t & $ . ",
"      C % u 4 c i q q A A y q y A A q A i y y y y y y i A A y y q y q y r D E d ! - F - ! { { > & @ . ",
"    G F ; H I J A p q q y A i A A y q A y y y y i y y y q A y A y i A i K L l c d M , ! ~ | { ^ & $ . ",
". # & ; ! 5 N k A q q A y i y y i q i y q y y y q y y y y y y A A q y A A A r k c d 5 { | < ~ > & @ . ",
". @ & t ~ 6 O L A q q A A q y y y A y y i y y i y y q i y y i y q A y y A A y h c N | { P { ] t & # . ",
". @ Q , ~ 8 O L A q y y A y y y y i q y A q A A A q q A A i q q y A A q q q q h c d R ! ! ! > u % $ . ",
". @ & , ~ 8 O L A q q y y y A A y y y A A A A q q i A i q A A A A y A A q q q j a 4 : u u u F & # @ @ ",
". @ Q t ~ m O L h A y y A A y y y y i q A y y y A A A q A A q i A y y y y q y g 0 : ( # * v # @ @ @ @ ",
". # Q , ~ < S D r h i A y y y q y q y y y y A y A q q A q q q q y y y y A K r k x H F C @ @ @ @ @ @ @ ",
". # & , ~ < 8 T l U r K A p q q q q q q A A y A A A y q q q p q q q y A r L D c d 5 , u % @ ) @ @     ",
". @ Q , ~ } } m N E U K V q A q y y q q A q q V A y y q y y y y q q y A r D W m 6 { ~ ^ u * @ +       ",
". @ & , ~ | 7 7 7 X D Y V Y Z g g g g Z Y Y V ` i V Y Y Z g g g g Z V V  .c X P | 7 | ! - % @ )       ",
". $ & , ~ | ....s +.b @.@.#.z x x x x a #.@.$.` $.$.#.b 0 x f f f b @.@.#.%.B &.*.| | n ; * @         ",
". # & , ~ | =.-.;.>.,.'.).!.~.9 9 9 1 {.!.).].^.].]./.(._.:.9 9 <.{./.).'.[.}.|.&.*.| ] - v . +       ",
". @ & , ~ | &.|.1.2.3.4.5.!.~.6.* # * 7.(.5.8.^.^.4./.9.0.* # ( a.9.b.c.d.3.e.f.-.=.{ ] - _ @ )       ",
". $ & , ~ | g.f.h.2.i.j.k.j.l.m.n.G o.p.q.5.k.r.s.].b.t.u.o.6.v.2.3.w.k.j.3.m.x.|...P ] - % @ )       ",
". # & > ~ *.&.y.m.2.i.z.z.A.B.C.D.n.o.p.q.].E.F.r.G.d.9.u.6.m.H.C.B.A.z.I.3.e.y.|.=.P ] ; * . +       ",
") # & > ~ *.g.|.J.>.i.K.L.M.N.O.C.m.Q 7.!.].P.Q.Q.R.S.{._ T.D.U.N.V.W.L.I.%.X.x.|...| n : % @ )       ",
") @ & > ~ { =.|.J.Y.Z.`. +M.V.N..+D.o ++!.@+P.P.P.K.@.{.#+m.%.O.V.V.W.L.$+%.}.%+-.*.| n - % @ )       ",
". @ & > ~ 7 *.g.s +.&+$+P.*+=+=+-+%.x z #.` @+@+`.;+` b x I &+.+=+*+>+`.$+Y.B s ..*.| n - % @ )       ",
". # & > ~ | | *.B X L ,+'+;+)+)+!+ .J J Z q ;+'+;+q ` ~+~+J !+)+)+)+>+'+{+&+6 | *.| | n - % . .       ",
". @ & , ] | | | | E l r A A ,+,+{+h h h h i i {+A A h h h h r ,+,+,+A {+U l 8 | | | { ! - * @         ",
". @ & - ^ ! ~ | } 8 l l k k k U k L L L U U U U D U U U L L L k k k U U l T 8 | | ] ! , F * @         ",
"      & u ; ! { | 8 S E E E E E E E E T T T T E T T T T O E E E E E E E E 8 } | ] , - F &             ",
"      @ # & ; ! | | < < < < < 6 < < m < } < < < < < < < < < 6 < < 6 | < < } | { ^ - * #               ",
"        + * F , ! ~ s s =.=.=.=...=.=...=...=.=.=.=.=.=.=.=.=.=.=.=.=.=.s { e ! ; % @ )               ",
"        = @ * F t , ]+|.|.|.%+%+%+%+%+%+%+%+%+%+|.|.|.%+|.%+%+%+-.^+%+|.]+/+(+- & # ' =               ",
"      @ @ @ # * 6.F _+/+f.f.f.f.f.f.:+f.:+f.f.f.f.f.:+y.:+f.f.f.y.f.f.f./+(+F _ # # @ @               ",
"      <+<+<+<+<+_ u [+/+f.y.y.x.x.:+f.f.f.:+:+f.f.f.f.f.f.:+x.x.:+x.y.:+/+u _ _ <+<+<+<+              ",
"    <+7.t.}+}+}+t.~.e.1.]+f.x.x.:+|.^+%+%+%+%+%+%+%+%+%+%+|.f.x.x.x.f.;.e.++~.|+t.t.}+|+7.            ",
"= u.p.}+1+2+2+2+3+4+I }.5+|.f.x.f.^+s =.=.=.=.=.P =.=.P s s %+:+x.f.g.s }.2.3+3+6+6+1+q.|+u.@         ",
"' $ 7.q.b.4.8.8.c.d.7++.=.-.f.:+f.s P P P P P P P P | P P ..%+f.f.|.g.P +.8+c.4.8.8.4./.t.<+@         ",
"= $ 7.q.5.9+r.r.z.'.%.+.g.|.y.x.|.%+s s ~ e e n e e e s s s %+f.x.y.^+B +.0+].E.r.r.^.b.9.<+@ =       ",
"' $ <.4+].E.Q.F.E.a+%.}.^+y.y.x.f.|.%+;.b+t : - : ; , /+%+^+f.:+x.y.y.%+Y.Z.z.E.F.Q.E.S.{.p.@ c+      ",
"= $ <.[.I.R.Q.Q.L.a+%.J.:+h.h.x.x.x.x.d+(+Q % # v _ e+(+h.:+:+x.x.x.x.f.>.Z.K.R.Q.Q.E.S.{._ ' =       ",
"+ $ <.(.S.I.K.K.a+Z.>.J.h.h.x.x.x.x.h._+e+v @ ) ) o.6.(+f+h.x.x.x.h.x.x.X.Y.$+].I.z.a+8+{.p.@         ",
"  $ a.{.[.[.,.,.[.[.e.x.h.h.x.x.x.x.h._+g+C @ ) ) @ G g+h.x.x.x.x.h.x.x.1.e.[.,.8+,.[.(.~._           ",
"      <.<.<.<.<.<.o v.h.x.x.x.x.x.x.h._+T.v ' . ) @ G g+d+x.x.x.x.x.x.x.d+[+#+#+<.<.<.<.a.            ",
"      $ $ $ $ $ v 6.g+v.x.x.x.x.x.x.x._+g+v @ . @ @ 6.(+d+x.x.x.x.x.x.h._+T._ * $ # # $               ",
"        = = = = ' G g+f+x.:+x.x.x.x.x._+g+v @ . ) # G n.f+x.x.x.x.x.x.h._+6.C c+= = = =               "};
