/* XPM */
static char * Walk_left_xpm[] = {
"51 51 220 2",
"  	c #00FFE4",
". 	c #111618",
"+ 	c #101415",
"@ 	c #151C1C",
"# 	c #17211E",
"$ 	c #223326",
"% 	c #1E312C",
"& 	c #0B131A",
"* 	c #080F18",
"= 	c #1C2D2B",
"- 	c #2B422D",
"; 	c #314C32",
"> 	c #355235",
", 	c #2E4B33",
"' 	c #253A2A",
") 	c #1C2A23",
"! 	c #47683C",
"~ 	c #4A7344",
"{ 	c #3F633D",
"] 	c #272C1D",
"^ 	c #282E1E",
"/ 	c #282924",
"( 	c #2C3527",
"_ 	c #36482B",
": 	c #4D7C4E",
"< 	c #5B874A",
"[ 	c #5A894B",
"} 	c #628C48",
"| 	c #679149",
"1 	c #5C8546",
"2 	c #4F703D",
"3 	c #1A231E",
"4 	c #33381C",
"5 	c #48481F",
"6 	c #4E5121",
"7 	c #4C4E20",
"8 	c #56652E",
"9 	c #56864C",
"0 	c #739342",
"a 	c #7A933D",
"b 	c #7A9540",
"c 	c #627936",
"d 	c #464824",
"e 	c #1A2522",
"f 	c #0A161A",
"g 	c #66661E",
"h 	c #7D7A25",
"i 	c #817F25",
"j 	c #70772C",
"k 	c #66833D",
"l 	c #889A39",
"m 	c #99A033",
"n 	c #939B33",
"o 	c #757727",
"p 	c #49582C",
"q 	c #233529",
"r 	c #385636",
"s 	c #575A23",
"t 	c #89882A",
"u 	c #969128",
"v 	c #A5A12B",
"w 	c #9D9C2D",
"x 	c #9C9629",
"y 	c #A19D2B",
"z 	c #8A9635",
"A 	c #75913E",
"B 	c #638A46",
"C 	c #999D30",
"D 	c #43643A",
"E 	c #1A1D1B",
"F 	c #2A331E",
"G 	c #3E461F",
"H 	c #766B26",
"I 	c #958827",
"J 	c #ADA327",
"K 	c #B3A529",
"L 	c #A9A229",
"M 	c #839539",
"N 	c #879637",
"O 	c #778937",
"P 	c #3A5A39",
"Q 	c #8D9935",
"R 	c #7D9335",
"S 	c #58763C",
"T 	c #435936",
"U 	c #38593A",
"V 	c #2D4630",
"W 	c #212E23",
"X 	c #393724",
"Y 	c #537C45",
"Z 	c #456C43",
"` 	c #293E2B",
" .	c #A69929",
"..	c #527C4A",
"+.	c #7C802B",
"@.	c #6D8E42",
"#.	c #7D8C39",
"$.	c #8F992F",
"%.	c #948F27",
"&.	c #6D8C3D",
"*.	c #56884D",
"=.	c #688645",
"-.	c #4C4634",
";.	c #7C5333",
">.	c #916D35",
",.	c #79683A",
"'.	c #686724",
").	c #B77D2E",
"!.	c #AB6B30",
"~.	c #878835",
"{.	c #4A2C23",
"].	c #6F3E32",
"^.	c #9C462D",
"/.	c #954F32",
"(.	c #57452B",
"_.	c #4F371E",
":.	c #3B3E1E",
"<.	c #875025",
"[.	c #AF5134",
"}.	c #756842",
"|.	c #5B6C47",
"1.	c #5A7843",
"2.	c #24231D",
"3.	c #552D24",
"4.	c #893D2C",
"5.	c #AE572D",
"6.	c #352A22",
"7.	c #8A402D",
"8.	c #B84A36",
"9.	c #9F4E47",
"0.	c #635549",
"a.	c #46594E",
"b.	c #3F6D51",
"c.	c #49764D",
"d.	c #6B5029",
"e.	c #C24933",
"f.	c #B23D2E",
"g.	c #772C24",
"h.	c #3C221D",
"i.	c #2A4641",
"j.	c #4F5459",
"k.	c #725253",
"l.	c #3A5C51",
"m.	c #355B51",
"n.	c #437151",
"o.	c #8E6326",
"p.	c #391D1E",
"q.	c #191E23",
"r.	c #313E48",
"s.	c #5F6976",
"t.	c #8D8E96",
"u.	c #AA868B",
"v.	c #C36F6A",
"w.	c #CE5548",
"x.	c #356452",
"y.	c #C46830",
"z.	c #CA5436",
"A.	c #223431",
"B.	c #CEB7B9",
"C.	c #DC9584",
"D.	c #CD6953",
"E.	c #B7962B",
"F.	c #CD7537",
"G.	c #6A705D",
"H.	c #A6A897",
"I.	c #D6CCBB",
"J.	c #E3C3B0",
"K.	c #8D6842",
"L.	c #5E5647",
"M.	c #426E51",
"N.	c #C38F2D",
"O.	c #83844B",
"P.	c #AFAB73",
"Q.	c #CDC38C",
"R.	c #BE9C6D",
"S.	c #AF7546",
"T.	c #456B4A",
"U.	c #AC862A",
"V.	c #979837",
"W.	c #B0AA50",
"X.	c #8C9848",
"Y.	c #677848",
"Z.	c #47754B",
"`.	c #3D6349",
" +	c #3D644A",
".+	c #29453A",
"++	c #2F514B",
"@+	c #3A6252",
"#+	c #365849",
"$+	c #2C3C36",
"%+	c #233A35",
"&+	c #32544C",
"*+	c #325750",
"=+	c #2C4A43",
"-+	c #2E4F49",
";+	c #29433D",
">+	c #584B44",
",+	c #694E44",
"'+	c #755146",
")+	c #274742",
"!+	c #1C2D30",
"~+	c #463629",
"{+	c #944A3C",
"]+	c #AA4C3A",
"^+	c #553828",
"/+	c #355539",
"(+	c #162120",
"_+	c #D25538",
":+	c #E8633D",
"<+	c #F1663E",
"[+	c #F87C47",
"}+	c #D97744",
"|+	c #975639",
"1+	c #38483B",
"2+	c #243D39",
"3+	c #CD7D46",
"4+	c #EE894C",
"5+	c #F58D4D",
"6+	c #D38248",
"7+	c #895B39",
"                                                      . . . . . . . . + .                             ",
"                                                      @ @ # # @ @ # # @ #                             ",
"                                                      $ $ $ $ $ % % $ $ $ $                           ",
"                                & & & & & & & * * . = - ; > > > > > > > , ' ) @ . .                   ",
"                            . @ @ . @ . @ . @ + . @ $ > ! ~ ~ ~ ~ ~ ~ ~ { ; ) @ . @ @ @               ",
"                          ] ] ^ ] ] ^ ^ ^ / ] ] ] ( _ { : < [ [ } | } 1 2 _ $ @ @ 3 3 )               ",
"                        ] 4 5 5 6 7 7 7 6 5 6 7 5 6 8 2 9 [ | 0 0 a b a c d ] # e ' - - '             ",
"                      f ] 7 g h h i h h h h h h h h j k 1 [ 0 l m m m n o p ^ e q > { r - 3 .         ",
"                    @ 3 4 s t u v v w w x v x y y x z A B B a n v v v C h s 4 ) - { ~ D ; ) E @       ",
"                  ] F G 7 H I J K K J K J J J L J L m M A A N w L L v n O 8 _ - , P { P ; - q $       ",
"                E 4 7 g o t w L J J L L J J J J J L v m Q Q w y y C Q R k S T U , , V ; > r > - W 3 . ",
"              f 3 X g i u y v L L L L L L L L L L L v v y w v v y n a B B 9 Y Z r ` $ - P ! ! > $ @ . ",
"            # ) ( d j u L J L L L L v L L  .J L L L L L L L J L y l A < 9 [ B 1 8 _ _ _ D ..~ r $ # . ",
"          e % - > 8 +.x J K L L v L L L L L L L L y L L L L J L y l @.< < | A #.j 8 s 8 S 1 ~ > q @ . ",
"        @ 3 - U ! c M w L J L L v L v L y L L y y L L L L J J L w l @.1 } A z $.%.I t +.&.1 ~ > $ # . ",
"        @ e - { 1 &.N w L L L L L L v L L L L L L L L L L  .L L v Q A } @.M C v L y  .n 0 < ~ > $ @ . ",
"      + @ ) - Z [ 0 l y L L L L L L L v L v L L L L x L L L L L y n N #.a Q y J K K J m a } ~ > $ @ . ",
"      f @ ) - Z [ 0 l v J J L L v L L L L L L L L L L L L L L L v w n n n w y L J K L m b B ~ > q @ . ",
"        @ 3 - { 9 @.M m v L L L L L v L L v L v y L L L L y L L v v v v y v v L L L y Q 0 B ~ > $ @ . ",
"        @ ) ` P ! k O z C y L L L L L L L v L L L L L L L L L L L L L J L L L L y C m M 0 < ~ > $ # . ",
"          e q - > D S O M m m L J J J J L L L L J J L L J J L J J J J J J J J v C Q a 0 } < ~ > $ @ . ",
"            3 ) $ V D 1 @.l m J J J L J L L L L L L L L L L J y L L  .L J J L y Q A @.[ [ *.~ > q @ . ",
"              . e q p S =.#.z %.u u u u x  . .y x w C w w w x w w w w w w y C n R @.[ *.[ 9 ~ > $ @ . ",
"              * @ ( -.;.>.,.H '.g g g o i ).).!.~.O O R N N N N N N N N l l N M A 1 *.9 *.9 ~ > $ 3 . ",
"              & + {.].^./.;.(._.4 4 :.(.<.!.[.>.}.|.1.1 =.@.@.@.@.@.@.@.@.@.@.=.} [ 9 *.*.9 ~ > q @ . ",
"              # 2.3.4.5.^.4.{.2.3 e 6.{.7.8.8.9.0.a.b.c.9 1 1 [ 9 9 < < < < *.9 *.9 9 *.[ < ~ > $ @ . ",
"            F 4 5 d.^.e.f.g.h.E = i.j.k.9.e.8.9.0.l.m.n.: 9 *.9 9 9 9 9 9 9 9 9 9 9 9 [ [ 9 ~ > $ @ . ",
"          ] G s g o.5.e.f.g.p.q.r.s.t.u.v.w.8.7.0.l.x.n.9 9 *.9 9 9 9 9 9 9 9 9 9 9 9 *.*.9 ~ > $ 3 . ",
"        @ ] 7 o I ).y.z.^.g.h.A.j.t.B.B.C.D.e.9.0.l.x.b.: 9 9 9 9 9 9 9 9 9 9 9 9 9 *.*.*.*.~ > $ 3 . ",
"      & @ ] 7 h  .E.F.y.5.4._.-.G.H.I.J.C.v.[.K.L.M.b.c.9 9 9 9 9 < 9 *.< 9 9 *.9 9 *.*.*.*.~ r $ @ . ",
"      f @ ] 6 +.J K N.).!.o.d.'.O.P.Q.Q.R.S.K.}.|.T.n.: 9 *.9 9 9 9 9 *.9 9 9 9 9 9 9 *.[ *.~ r $ @ . ",
"      * @ ] 6 h  .K E.E.U.U.I I V.W.W.W.X.O.Y.Y.....: 9 9 9 9 *.9 9 9 9 9 9 9 9 9 9 *.*.[ < ~ > $ # . ",
"        @ ] 5 o %. .y y w w w w y v C V.b B 9 9 9 9 9 9 9 9 9 9 9 9 9 9 *.9 9 9 9 *.9 9 9 Y Z ; $ @ . ",
"        @ ] 5 s j h t Q Q n Q m n $.Q R &.[ *.*.9 9 *.9 9 9 9 < 9 *.9 [ *.*.< 9 *.*.9 ..Z D P - $ @ . ",
"            4 :.5 s S &.0 b b 0 a A &.@.B [ *.9 *.*.*.*.9 < 9 9 9 9 [ 9 9 *.9 [ [ [ 9 ~ P V ` $       ",
"              2.] - T S [ } [ [ 1 [ [ *.< 9 9 9 9 9 9 *.9 9 9 9 9 9 9 9 9 9 9 9 *.*...Z ; $ 3 E       ",
"              & # % ; { ~ ~ Z.9 : : : : : : : : : : : : : : : : 9 : ..: : : ..c.c.~ ! r ` 3 .         ",
"                  ) ' , > `. +b.n.n.M.M.M.M.M.M.Z.n.M.M.b.b.b.M.b.b.n.n.n.n.M.M.`.U > - $ 3           ",
"                    3 ) ' .+++x.@+@+@+@+ +l.@+@+ +@+@+x.x.@+@+@+x.@+@+l.M.@+l.#+, $+$ ) 3             ",
"                    @ @ e %+.+++&+*+m.m.m.@+m.#+++&+&+a.a.a.a.a.a.#+#+&+&+*+l.m..+= 3 @               ",
"                      @ @ = %+r.=+-+*+m.@+M.b.#+;+r.$+>+,+'+'+'+'+>+=+$+)+#+x. +, $ @ .               ",
"                          e ) = %+i.*+l.n.c.T.#+.+!+~+].{+]+]+]+9.].^+q .+U Z ~ /+q E .               ",
"                            @ (+= i.*+@+n.: c./+' ] {.4.]+z._+_+8.4.3./ % /+~ ~ U ' e .               ",
"                            f (+A.i.*+@+n.: T./+% 3 {.4.z.:+<+:+_+4._.] ) , { `./+q q..               ",
"                            @ @ = i.*+@+b.b. +.+) 2.^+/.D.[+[+[+}+|+^+] e )+x.`.1+q 3 .               ",
"                            @ (+= i.&+m.@+x.&+2+= 3 ~+|+3+4+5+5+}+[.^+6.e 2+-+#+;+% @ .               ",
"                            @ @ = 2+=+-+*+*+++2+) 2.~+;.!.3+6+6+S.7+(.( = 2+)+=+2+= (+@               ",
"                              (+= A.2+i.-+*+-+2+= 3 6.(.;.7+o.7+7+,+~+$+%+%+2+%+!+) @                 ",
"                                  e = A.;+&+-+;+= q.2.6.X {.~+~+~+_ 1+i.i.%+= e e                     ",
"                                  @ @ = 2+-+++;+= @ @ @ E E E @ / A.)+++=+2+e q.@                     ",
"                                  . @ e 2+-+++;+$ q.f & f f * f f !+)+*+-+2+e @ +                     "};
