/* XPM */
static char * Walk_right_xpm[] = {
"51 51 217 2",
"  	c #00FFE4",
". 	c #111618",
"+ 	c #101415",
"@ 	c #151C1C",
"# 	c #17211E",
"$ 	c #1C2A23",
"% 	c #223326",
"& 	c #1E312C",
"* 	c #233529",
"= 	c #293E2B",
"- 	c #314C32",
"; 	c #355235",
"> 	c #385636",
", 	c #2B422D",
"' 	c #080F18",
") 	c #0B131A",
"! 	c #36482B",
"~ 	c #3A5A39",
"{ 	c #4A7344",
"] 	c #43643A",
"^ 	c #1A1D1B",
"/ 	c #212E23",
"( 	c #4F703D",
"_ 	c #5C8546",
": 	c #628C48",
"< 	c #5A894B",
"[ 	c #537C45",
"} 	c #2A331E",
"| 	c #272C1D",
"1 	c #282924",
"2 	c #282E1E",
"3 	c #253A2A",
"4 	c #49582C",
"5 	c #627936",
"6 	c #7A9540",
"7 	c #839539",
"8 	c #739342",
"9 	c #679149",
"0 	c #56864C",
"a 	c #4E5121",
"b 	c #48481F",
"c 	c #4C4E20",
"d 	c #33381C",
"e 	c #1A231E",
"f 	c #3F633D",
"g 	c #162120",
"h 	c #757727",
"i 	c #8D9935",
"j 	c #99A033",
"k 	c #7A933D",
"l 	c #5B874A",
"m 	c #66833D",
"n 	c #778937",
"o 	c #7D7A25",
"p 	c #817F25",
"q 	c #686724",
"r 	c #2D4630",
"s 	c #575A23",
"t 	c #9D9C2D",
"u 	c #A5A12B",
"v 	c #A9A229",
"w 	c #A19D2B",
"x 	c #939B33",
"y 	c #688645",
"z 	c #638A46",
"A 	c #75913E",
"B 	c #8A9635",
"C 	c #9C9629",
"D 	c #A69929",
"E 	c #89882A",
"F 	c #24231D",
"G 	c #38593A",
"H 	c #2E4B33",
"I 	c #56652E",
"J 	c #7C802B",
"K 	c #879637",
"L 	c #B3A529",
"M 	c #ADA327",
"N 	c #948F27",
"O 	c #66661E",
"P 	c #3B3E1E",
"Q 	c #355539",
"R 	c #58763C",
"S 	c #6D8C3D",
"T 	c #889A39",
"U 	c #999D30",
"V 	c #8F992F",
"W 	c #47683C",
"X 	c #456C43",
"Y 	c #969128",
"Z 	c #527C4A",
"` 	c #56884D",
" .	c #718F40",
"..	c #464824",
"+.	c #70772C",
"@.	c #7D9335",
"#.	c #6D8E42",
"$.	c #1A2522",
"%.	c #3F6D51",
"&.	c #878835",
"*.	c #5B6C47",
"=.	c #435936",
"-.	c #7D8C39",
";.	c #AC862A",
">.	c #B77D2E",
",.	c #8E6326",
"'.	c #766B26",
").	c #79683A",
"!.	c #756842",
"~.	c #57452B",
"{.	c #916D35",
"].	c #AB6B30",
"^.	c #AE572D",
"/.	c #875025",
"(.	c #7C5333",
"_.	c #954F32",
":.	c #6F3E32",
"<.	c #352A22",
"[.	c #49764D",
"}.	c #3A6252",
"|.	c #456B4A",
"1.	c #635549",
"2.	c #9F4E47",
"3.	c #C24933",
"4.	c #B84A36",
"5.	c #8A402D",
"6.	c #553828",
"7.	c #191E23",
"8.	c #4A2C23",
"9.	c #7E3C28",
"0.	c #9C462D",
"a.	c #893D2C",
"b.	c #552D24",
"c.	c #4D7C4E",
"d.	c #3A5C51",
"e.	c #944A3C",
"f.	c #725253",
"g.	c #4F5459",
"h.	c #313E48",
"i.	c #1C2D30",
"j.	c #391D1E",
"k.	c #772C24",
"l.	c #B23D2E",
"m.	c #6B5029",
"n.	c #437151",
"o.	c #356452",
"p.	c #584B44",
"q.	c #CE5548",
"r.	c #C36F6A",
"s.	c #AA868B",
"t.	c #8D8E96",
"u.	c #5F6976",
"v.	c #3E461F",
"w.	c #CD6953",
"x.	c #DC9584",
"y.	c #E3C3B0",
"z.	c #CEB7B9",
"A.	c #223431",
"B.	c #3C221D",
"C.	c #C46830",
"D.	c #958827",
"E.	c #426E51",
"F.	c #5E5647",
"G.	c #8D6842",
"H.	c #AF5134",
"I.	c #D6CCBB",
"J.	c #A6A897",
"K.	c #6A705D",
"L.	c #4F371E",
"M.	c #CD7537",
"N.	c #B7962B",
"O.	c #AF7546",
"P.	c #83844B",
"Q.	c #BE9C6D",
"R.	c #CFBA88",
"S.	c #CDC38C",
"T.	c #AFAB73",
"U.	c #C38F2D",
"V.	c #677848",
"W.	c #8C9848",
"X.	c #B0AA50",
"Y.	c #3D6349",
"Z.	c #365849",
"`.	c #2C4A43",
" +	c #355B51",
".+	c #3D644A",
"++	c #1C2D2B",
"@+	c #29453A",
"#+	c #32544C",
"$+	c #46594E",
"%+	c #2F514B",
"&+	c #325750",
"*+	c #233A35",
"=+	c #694E44",
"-+	c #755146",
";+	c #2E4F49",
">+	c #274742",
",+	c #2C3C36",
"'+	c #463629",
")+	c #AA4C3A",
"!+	c #D25538",
"~+	c #E8633D",
"{+	c #F87C47",
"]+	c #29433D",
"^+	c #D97744",
"/+	c #243D39",
"(+	c #975639",
"_+	c #F58D4D",
":+	c #EE894C",
"<+	c #CD7D46",
"[+	c #4C4634",
"}+	c #D38248",
"|+	c #895B39",
"1+	c #2A4641",
"2+	c #38483B",
"3+	c #3D3F32",
"4+	c #0A161A",
"                            . . . . . . . . . +                                                       ",
"                            @ @ # @ @ # # @ @ #                                                       ",
"                          $ % % & % * % & % % $                                                       ",
"                  . . @ $ = - ; ; ; ; ; > > - , $ @ ' ' ) ) ) ) ) ) )                                 ",
"              @ @ . . @ $ ! ~ { { { { { { { ] > * ^ . . @ . @ @ @ . @ @ @                             ",
"              $ $ # ^ @ / ; ( _ : : : < < < [ ] ! } | | | | | 1 2 2 | | | |                           ",
"            * , , 3 $ ^ / 4 5 6 7 6 6 8 9 < 0 ( 4 a b c c c c c b a a b b d |                         ",
"        . e , > f ; * g 2 c h i j j j k 8 < l m n o o o o o o o o p p h q c | .                       ",
"      @ # / r ] { f , $ } s p t u v w x k y z A B C u w t t D t u u t t E s d F @                     ",
"      % * , - ~ ] G H , ! I J x u v u t B A A K t v v L M M M M v L M v N O b P } |                   ",
". @ % , ; > ; - , H ; Q ] R S k T t u w U i V x t v M M M v M M M L M v C E h O b d e                 ",
". ^ % ; W X > , * = > X [ 0 _ z k x w v u t t t u v v v v v v v u v v u v w Y E s b e .               ",
". @ % > { Z W ! d ! I _ l < ` l  .i t v M v v v v u v u v v v u v u v v v M M Y h ..3 $ #             ",
". # % > { _ R I I q +.@.A 9 l l #.K u v M M M v v v v v v v v v v v v v v L M C o I - , & e           ",
". # % ; { _ S J E E Y V i 8 l l #.i t v M w M M w v u v u v u v u v v v v M v t 7 5 W G = $ @         ",
". @ % ; { l 6 i D D M u U 7 #.#.A i u v v v v w v v v v v u v v u v v v v M v t K #.0 ] , $.@         ",
". # & ; { : 6 j v L L M w i k A k x w v v w v D v v w v v M v v v v v v v v v w T 8 < %.r $ @ +       ",
". @ % ; { : k j v L M v w t x i U t u v v v v v v v v v v w w v v v u v v M v w T 6 < W , $ @ +       ",
". @ % ; { l 6 i u v v v v u u u u v v v v v v u v v v u v v v v v v v v v v u U K S _ f , $ #         ",
". # % ; { l 8 7 i t w v v v M M v v D v v v v v v v v v u v v v v v v v u u j B n _ W Q , e @         ",
". @ % ; { 0 z 8 k i U u v M M M v M v M v v M M M M M v v v v M M M L v j j 7 A R ] ; , % e           ",
". @ % ; { 0 < : #.A i t v v v v v v v v v v v D v v v D u v v v v v v v U K 8 5 f ! 3 e e             ",
"+ # % ; { 0 ` ` l #.7 x t u t t t t t t t t t t U t C D D D C Y N N Y Y B &.y *.=.3 e .               ",
". ^ % > { 0 ` ` 0 _ A 7 K K K 7 K K K K i K 7 @.-.n &.;.>.;.,.'.O O q q '.).!.).~.1 . )               ",
". # % > ( 0 ` ` 0 l : #.#.#.#.#.#.#.#.#. .#.y l *.*.).{.].^./.~.P d d b ~.(.^._.:.<.@ )               ",
". @ % ; { 0 ` ` 0 0 l l < l 0 0 l < ` ` l < 0 [.}.|.1.2.3.4.5.6.1 7.# F 8.9.0.4.a.b.F e               ",
". # % ; { 0 < ` 0 0 0 0 0 0 0 0 0 0 0 0 ` 0 c.%.}.d.1.e.4.4.2.f.g.h.i.7.j.k.l.3.0.m.b d }             ",
". @ % ; { 0 < ` 0 0 0 0 0 0 0 0 0 0 0 0 ` 0 0 n.o.d.p.2.3.q.r.s.t.u.h.$.j.k.l.3.^.,.q s v.|           ",
". ^ % ; { 0 < ` l 0 0 ` 0 0 0 0 0 0 0 0 ` 0 0 n.}.d.1.a.4.w.x.y.z.t.g.A.B.k.4.3.C.;.D.'.c | @         ",
". @ % ; { 0 < ` 0 0 0 0 0 ` 0 0 0 0 0 0 ` 0 c.[.E.d.F.G.H.r.x.y.I.J.K...L.k.^.C.M.N.D o a | . )       ",
". # % > c.` ` ` 0 0 0 0 0 0 0 0 0 0 0 0 0 0 0 c.n.n.*.!.O.P.Q.R.S.T.P.O O ,.].U.U.L D E a 2 @ )       ",
". @ % > { ` < ` 0 0 ` 0 0 0 0 0 ` 0 0 0 0 0 0 0 Z Z Z V.K.G.W.X.X.X.Y D.D.;.;.N.N.M D o a | . )       ",
". @ % ; W 0 0 0 0 0 ` 0 0 0 0 0 0 0 0 0 0 0 0 0 0 0 0 0 l #.A x j u t t j t u u w t N h b | .         ",
". # % , > ] { [ 0 0 < ` ` 0 ` ` l ` ` 0 0 < 0 ` l ` ` 0 ` < S @.i V x x x x T i E o '.s b | @         ",
"      % = r ~ { 0 < ` ` 0 0 l ` 0 0 ` ` ` 0 l ` ` 0 ` ` ` ` _ S A A A 6 k 6 A S R s b v.d             ",
"      @ e % - W Z 0 ` 0 0 0 0 0 0 0 0 0 0 0 0 0 0 0 0 0 0 ` l l l l l l l l l [ ] ! | e               ",
"        . $.= > W { [.c.c.Z c.c.c.c.c.c.c.c.c.c.c.c.Z c.c.c.c.c.c.c.c.c.[.[.|.f - * @ )               ",
"          # % , ; > Y.|.E.n.n.n.n.E.%.%.%.%.%.E.n.n.E.E.E.E.E.E.%.n.n.%.Y.Z.Q H 3 $                   ",
"            e / & = `.Z.}.}.}.}.d.}.}.}.o.o. +d.}.}.}..+d.}.}.}.}.}.}..+Z.H * $ $                     ",
"              @ # ++@+Z.d.d.#+#+Z.$+$+$+$+$+$+%+#+#+#+ +d.}. + +&+&+&+#+@+*+$ @ @                     ",
"              . @ ++H d..+Z.`.@+h.p.=+-+-+-+=+p.`.@+@+Z.E.E.}.}.&+;+>+>+*+++7..                       ",
"              . ^ * > |.|.G ,+* '+(.e.)+)+)+e.:.'+* @+Z.E.n.n.}.&+`.*+++$ $.                          ",
"              . # 3 ~ { { Q & 1 b.a.4.!+!+3.l.a.8.1 * G |.c.n.E.&+h.A.$.7.                            ",
"              . # 3 G |.X H $ F b.0.!+~+{+~+!+a.8.F * Q |.[.n.}.%+]+& @ .                             ",
"              . 7.* Q .+Y.@+$ F 6.H.^+{+{+{+M._.b.F ++@+.+E.%.}.&+]+& g .                             ",
"              @ @ ++]+#+%+/+$.| 6.(+^+_+_+:+<+_.6.7.$.@+#+}. + +%+]+++g @                             ",
"              @ 7.++/+>+>+/+i.% [+G.O.}+^+<+O.(.'+$.++/+;+&+&+#+`./+++g @                             ",
"                # $.i.*+*+*+*+,+[+m.(.|+|+|+(.~.<.g ++/+;+#+;+]+*+A.++g                               ",
"                    $.$ i.*+>+1+2+3+'+'+'+'+'+2 e ^ ++]+;+%+1+A.++$.                                  ",
"                    @ @ $ *+;+%+1+A.$.^ e ^ ^ ^ @ # ++]+%+;+/+++@ @                                   ",
"                    + @ $.*+;+%+1+i.4+) ' ' ) + . # & @+%+;+/+$ @ +                                   "};
