/* XPM */
static char * Wall_xpm[] = {
"51 51 173 2",
"  	c #00FFE4",
". 	c #0D1415",
"+ 	c #101617",
"@ 	c #1B2222",
"# 	c #1F2825",
"$ 	c #19211F",
"% 	c #181F1F",
"& 	c #161D1D",
"* 	c #3A3F3B",
"= 	c #414C44",
"- 	c #4E4A4A",
"; 	c #4B4447",
"> 	c #3B423D",
", 	c #333B35",
"' 	c #36403D",
") 	c #3B483F",
"! 	c #454343",
"~ 	c #4D4649",
"{ 	c #333534",
"] 	c #5B5C59",
"^ 	c #7A7B74",
"/ 	c #84857C",
"( 	c #898A81",
"_ 	c #7F8278",
": 	c #72766A",
"< 	c #646B5E",
"[ 	c #556254",
"} 	c #565B54",
"| 	c #596255",
"1 	c #76826E",
"2 	c #808A75",
"3 	c #848B7B",
"4 	c #5B5B56",
"5 	c #3D4642",
"6 	c #757770",
"7 	c #A9A89D",
"8 	c #C3C3B3",
"9 	c #C8C6B8",
"0 	c #BBBDAA",
"a 	c #A5AB9A",
"b 	c #919B83",
"c 	c #86917A",
"d 	c #7D8974",
"e 	c #8E987F",
"f 	c #A2A994",
"g 	c #B9BCA7",
"h 	c #C9C8B7",
"i 	c #C1BFB2",
"j 	c #5C635A",
"k 	c #909187",
"l 	c #DDDACC",
"m 	c #E4E1D3",
"n 	c #CBCABA",
"o 	c #ABB29E",
"p 	c #A0A791",
"q 	c #9CA48D",
"r 	c #D3D1C2",
"s 	c #E1DDCD",
"t 	c #929389",
"u 	c #60635D",
"v 	c #B2B3A4",
"w 	c #D0CDBF",
"x 	c #EDEADE",
"y 	c #F0EEE5",
"z 	c #ECEDE9",
"A 	c #E9E7DE",
"B 	c #D9DBD1",
"C 	c #CED1C5",
"D 	c #C3C9BC",
"E 	c #BDC3B4",
"F 	c #D8D5C6",
"G 	c #D1CEC0",
"H 	c #F3F2ED",
"I 	c #F7F8F6",
"J 	c #F4F4F2",
"K 	c #E3E4DC",
"L 	c #B6B8A5",
"M 	c #FEFEFE",
"N 	c #CCCFC2",
"O 	c #BCC5BA",
"P 	c #9CAC9D",
"Q 	c #748472",
"R 	c #ECECE6",
"S 	c #B7B7A8",
"T 	c #ADB3A1",
"U 	c #96A390",
"V 	c #F8F8F5",
"W 	c #DCE2DD",
"X 	c #929E89",
"Y 	c #B0C1B7",
"Z 	c #425046",
"` 	c #2F3934",
" .	c #9CA895",
"..	c #8C967E",
"+.	c #95A28E",
"@.	c #A1B3A6",
"#.	c #9DB3AB",
"$.	c #7F9385",
"%.	c #576858",
"&.	c #6E8077",
"*.	c #27312C",
"=.	c #B3BCAE",
"-.	c #CDD4CB",
";.	c #D6DBD4",
">.	c #798C7E",
",.	c #A5BBB2",
"'.	c #4E5D52",
").	c #B6C6BE",
"!.	c #BDCDC7",
"~.	c #A8BDB5",
"{.	c #9BA694",
"].	c #A3B5A9",
"^.	c #9EB1A4",
"/.	c #A5B9AF",
"(.	c #76897C",
"_.	c #8E9880",
":.	c #84998E",
"<.	c #5E705F",
"[.	c #252D2B",
"}.	c #8E9781",
"|.	c #9FB5B0",
"1.	c #28322D",
"2.	c #ABC2BC",
"3.	c #A1B7B0",
"4.	c #72857A",
"5.	c #566758",
"6.	c #5D6D5D",
"7.	c #3D4A43",
"8.	c #8A9889",
"9.	c #8DA297",
"0.	c #5F7160",
"a.	c #617462",
"b.	c #A9BFB8",
"c.	c #96ACA4",
"d.	c #667868",
"e.	c #101718",
"f.	c #3E4948",
"g.	c #B0C7C2",
"h.	c #99ADA8",
"i.	c #8FA49B",
"j.	c #90A59C",
"k.	c #B2CAC4",
"l.	c #899D93",
"m.	c #AEC6C0",
"n.	c #81968A",
"o.	c #7B8E82",
"p.	c #374240",
"q.	c #6C7C79",
"r.	c #B6CEC8",
"s.	c #667866",
"t.	c #869792",
"u.	c #5F6D69",
"v.	c #687966",
"w.	c #64736D",
"x.	c #95A5A1",
"y.	c #333D3B",
"z.	c #767C7B",
"A.	c #4D5353",
"B.	c #2C3532",
"C.	c #6B7C6C",
"D.	c #6C7F70",
"E.	c #5A5758",
"F.	c #2A2C2C",
"G.	c #504D4D",
"H.	c #222626",
"I.	c #423E40",
"J.	c #383638",
"K.	c #242728",
"L.	c #413D3F",
"M.	c #535350",
"N.	c #646D62",
"O.	c #6D7466",
"P.	c #52514F",
"            . . . . . . . . . . . . + . . . . + . + . . . . + . . . . . . . . . . . . . .             ",
"            @ @ @ # @ @ $ % $ $ $ $ $ $ $ & $ $ $ $ $ & $ $ $ $ $ & $ $ $ $ @ @ @ @ @ $ @             ",
"            * = - = = ; > * , , , , , , , , , ' , , , , , , > , , , , ' > , ) ! - ~ ; = >             ",
"        . { ] ^ / ( ( _ : < [ } [ [ | | | [ [ | | | | | | | [ [ [ [ [ [ [ < 1 2 3 3 2 2 4 { +         ",
"      . @ 5 6 7 8 9 8 0 a b 3 2 2 2 2 2 2 2 2 2 2 c 2 2 2 c 2 2 2 2 2 d c e f g 8 h i 7 6 ! $ .       ",
"      { ! j k 8 l m m l n 0 o f p p p p p p q q p p p p e p p p p p p p p o h r s s s h t u ! {       ",
". @ > j 6 t v w m x y z A B C D 8 E g 0 E i g 8 g g g 0 0 g g g E g g g E 8 n F s s s w v t ^ u > @ . ",
". @ ; ^ 7 i n G l A H I I J z K F n h n h n h n n w n n w n n w n n n n n n r F w s w w w i 7 ^ ; # . ",
". @ = _ L w w h r K J M M M M z l n h h h n h h n n h h h h h h n n n n n n n N N D O E h D P Q = @ . ",
". % > 6 a 0 g L 8 l J M M M M R w i L v L L S L g g L g g g L g T g L T L E E E E g P U f P e 1 * @ . ",
"+ @ > < e p q q T N z M M M V W E p X q q q q q e p p p q q q q p p p e q P Y Y Y U Q Q d d Q Z ` $ . ",
". $ , | 2 e e e  .D W I M I R C v b ....e e e ..e e e e e e e e e e e e e +.@.Y #.$.1 %.&.1 %.Z *.$ . ",
"+ $ , | d ......q =.-.W W ;.N =.f b c c ....c ..c ..c ..........e e d e >.+.@.,.#.$.Q &.'.%.'.) *.% + ",
". $ * | 2 ..e e +.@.).!.O ~.o {.b b ..e ........e ..............e e e e e U @.,.#.$.&.%.1 %.%.) *.% + ",
". $ , | 2 e e e X P ~.~.].{.X e e ..e e ....e ....e ..e ........e e e e e  .^.,.#.>.&.%.1 '.&.Z *.% + ",
"+ $ , | 2 ..e e X P /.,.^.X ..c c ..e e e ....e ......e ........>.e e e e U #.,.#.(.&.1 %.1 Z ) *.$ + ",
". $ ' u 2 b b e X P /.,.^.+.e c e ....e ...._....._....._._..._.........e U ^.Y ^.:.&.<.1 '.'.Z [.$ + ",
". $ , | 2 e e }.+.P ,.~.^.+.b c e e ......}..._._...}...................e U ^.|.#.$.Q <.'.1 %.) 1.$ + ",
"+ $ , | 2 e e e X P ,.~.@.+._.......e }._....._....._._..._._..........._.U #.2.3.$.&.<.&.%.%.) 1.$ + ",
". $ , | 2 e b e X P ,.,.^.U }.....}........._....._....._....._........._.U ^.2.#.$.Q <.%.1 %.Z [.$ + ",
"+ $ , | 2 e b e X P ,.,.^.U _.......}...e .._..._...}.......}...e ......e U ^./.#.$.&.<.<.<.%.Z 1.& + ",
". $ ' | 2 e e e +.P ,.,.@.U _.e ..........}..._......._..._.............e U ^./.,.$.&.<.<.<.%.) 1.$ + ",
". $ , | d e e e +.P ,.,.^.U e ........}...e ...._..........._...e e ....e U @.2.3.$.4.%.<.%.5.) *.$ + ",
". $ ' | 2 b e e X ^.,.,.@.+.e ....e e ..}...}..._..._..._._..._.e e ..e b U P 2.#.$.&.&.<.1 5.) 1.$ + ",
". $ , | 2 e e e X P ,.,.@.+.e e c e e e ............e e e ................+.^.2.#.$.&.<.<.<.6.7.1.& + ",
"+ $ > | 2 e e e X P ,.,.@.+.e c ......c ............c ..............c ..e +.^.,.#.$.1 6.<.<.%.7.1.$ + ",
". $ ' | c e e e X P ,.2.^.U _.......e e ..........c e ..................e U ^.,.#.$.&.<.<.<.%.7.1.$ + ",
". $ , | 2 e e e +.^.,.,.]. .X 8.b X b X X b +.8.8.+.+.b X X X b X X b b X  .].2.3.9.(.0.1 a.%.7.*.& + ",
"+ $ , | 2 e q {.P /.,.,.,.^.P P P P P P P P P P P P P P P P P P P P P P P #.,.b.3.c.$.$.Q d.5.7.*.& e.",
". $ , [ 2 q  .@.,.2.2.2.~.,././././././.,.,./././././.,././././.,.3./././.,.2.2.b.,.#.c.$.&.5.) *.@ e.",
". $ ' | c U @.Y 2.2.2.2.b.,.,.,.,.,./.,.,.,.|.,.,.,.,.,.,.,././.,.,.,.3.,.,.b.b.2.2.b.3.9.(.0.f.1.$ + ",
"+ $ ' <.8.P /.2.2.g.2.2.|.h.i.i.i.j.j.j.j.i.i.i.i.i.i.i.i.i.j.i.i.j.i.j.j.c.3.b.k.g.2.b.h.l.4.'.` $ . ",
". $ ) d.i.,.2.2.m.m.m.b.c.n.o.4.o.(.(.o.(.(.o.(.o.o.(.(.o.(.(.o.(.(.4.4.Q $.c.b.2.g.2.2.b.#.$.&.p.$ . ",
". $ 5 q.h.m.2.2.2.2.2.#.l.4.d.0.0.0.0.d.0.0.0.0.0.0.0.0.0.0.0.0.0.&.0.<.&.Q 9.#.b.2.2.2.2.2.c.&.5 $ . ",
". @ f.4.#.g.k.2.2.,.h.9.>.&.<.<.6.%.6.6.0.6.6.6.6.6.0.0.6.<.6.6.6.6.<.<.<.&.>.9.#.,.b.2.k.k.#.o.f.@ . ",
". @ f.q.|.k.r.m.,.c.$.(.&.0.<.6.0.0.%.6.0.0.0.6.6.0.0.0.<.6.6.6.6.<.6.<.<.<.Q 4.$.c.b.k.r.k.#.&.f.$ . ",
". @ f.q.h.m.g.2.#.9.(.s.<.<.<.<.6.0.0.0.0.6.0.0.0.0.0.0.0.0.0.0.<.<.<.0.0.0.<.&.o.t.h.2.m.b.h.q.f.@ . ",
". $ p.u.l.h.#.h.9.$.Q v.a.<.<.a.0.0.0.0.0.0.0.0.0.0.0.0.0.0.0.0.<.<.0.0.0.<.<.<.w.o.t.x.h.c.$.u.y.@ . ",
". $ , 5.4.$.n.$.>.>.d 1 1 v.a.<.0.0.0.0.0.0.0.0.0.0.0.0.0.0.0.0.<.<.<.0.0.<.<.<.u.w.z.z.z.z.w.A.B.$ + ",
"+ $ B.Z u.C.D.C.Q d 2 d 1 v.<.<.0.0.0.0.0.0.0.0.0.0.0.0.0.0.0.0.<.<.<.<.0.0.<.<.0.j ] E.E.E.A.p.F.$ e.",
"e.$ 1.) %.0.<.<.a.Q c c d s.<.6.0.0.0.0.0.0.0.0.0.0.0.0.0.0.0.0.0.0.0.0.0.0.0.0.j } - - ; G.; { H.& + ",
"e.$ 1.Z %.0.<.<.s.1 c ..d 1 <.<.0.0.0.0.0.0.0.0.0.0.0.0.0.0.0.0.0.0.0.0.0.0.a.0.j } - ~ ; ~ I.{ H.& e.",
"e.$ *.7.%.a.<.<.s.1 c c 1 1 <.<.0.0.0.0.0.0.0.0.0.0.0.0.0.0.0.0.0.0.0.0.0.0.0.0.6.} G.; G.~ ; J.K.% e.",
"+ $ *.) '.%.%.<.s.1 c c Q 1 <.<.0.0.0.0.0.0.0.0.0.0.0.0.0.0.0.0.0.0.0.0.0.0.0.0.j } A.~ ; I.L.{ K.$ e.",
"+ $ [.` ) Z '.6.v.d c c d 1 6.6.0.0.0.0.0.0.0.0.0.0.a.0.0.a.0.0.0.0.0.a.0.0.0.0.6.4 G.~ I.J.{ F.K.% + ",
"      # [., 7.%.v.d c ..d 1 <.<.0.0.0.0.0.0.0.0.0.0.0.0.0.0.0.0.0.0.0.0.0.0.0.0.6.] G.; J.F.H.@       ",
"      e.$ *.) [ a.1 2 2 1 s.<.%.0.0.6.0.0.0.0.6.6.6.0.6.6.6.6.6.0.0.0.0.6.0.6.6.j } G.I.{ K.& e.      ",
"        e.*.> M.j N.O.O.< 6.[ 5.[ ] } [ ] } [ ] | | ] | | ] | | } | | | ] | | | 4 M.G.I.J.K.&         ",
"            = P.M.E.E.4 4 4 P.P.P.M.P.P.P.P.P.M.P.P.M.P.P.P.P.P.A.M.M.M.M.M.M.M.P.P.~ ~ I.            ",
"            - - G.G.G.G.G.G.G.~ G.G.~ G.G.G.G.G.~ G.G.G.G.G.~ G.- - - - - - - - - - ~ - -             ",
"            G.~ ; ; ; ; ; ; ~ ~ ~ ~ ~ ~ ~ ~ ~ ~ ~ ~ ~ ~ ~ ~ ~ ~ ~ ~ ~ ~ ~ ~ ~ ~ ~ - ~ - -             "};
