/* XPM */
static char * Weapon_xpm[] = {
"51 51 182 2",
"  	c #00FFE4",
". 	c #23858C",
"+ 	c #02FBE1",
"@ 	c #11E0CC",
"# 	c #356BA3",
"$ 	c #15D4C3",
"% 	c #23A7A9",
"& 	c #3A79B7",
"* 	c #429E9F",
"= 	c #06F6DD",
"- 	c #397DB8",
"; 	c #6F85A0",
"> 	c #8798A6",
", 	c #09F1D9",
"' 	c #19C5B8",
") 	c #3D83C5",
"! 	c #9BACB8",
"~ 	c #BCCCD5",
"{ 	c #1BBDB2",
"] 	c #07F4DB",
"^ 	c #2A859A",
"/ 	c #4A78AB",
"( 	c #B8C9D1",
"_ 	c #D8E7F0",
": 	c #638E9A",
"< 	c #05F7DE",
"[ 	c #266E7F",
"} 	c #317BA2",
"| 	c #2F999A",
"1 	c #1CB8AE",
"2 	c #15D3C2",
"3 	c #0CEBD5",
"4 	c #10E3CE",
"5 	c #728597",
"6 	c #BFCFD8",
"7 	c #BCCBD6",
"8 	c #18C9BB",
"9 	c #01FEE3",
"0 	c #0DEBD4",
"a 	c #13DAC8",
"b 	c #18CABB",
"c 	c #1EB0A9",
"d 	c #239597",
"e 	c #12DFCB",
"f 	c #3B7FBE",
"g 	c #5A799F",
"h 	c #B1C2CB",
"i 	c #BDCCD7",
"j 	c #9CAAB8",
"k 	c #14D8C6",
"l 	c #68949E",
"m 	c #BCCDD5",
"n 	c #96A4B3",
"o 	c #02FCE2",
"p 	c #306190",
"q 	c #3A7AB8",
"r 	c #3977B4",
"s 	c #3976B2",
"t 	c #259CA2",
"u 	c #1AC1B5",
"v 	c #3F87CB",
"w 	c #7F91A4",
"x 	c #C4D4DD",
"y 	c #DBEAF3",
"z 	c #729DA6",
"A 	c #17D0C0",
"B 	c #28ACA6",
"C 	c #A1B1BD",
"D 	c #D0E0E8",
"E 	c #BFCDD9",
"F 	c #1BBEB3",
"G 	c #03FBE1",
"H 	c #19C4B7",
"I 	c #8B9AAA",
"J 	c #A8B6C4",
"K 	c #BAC9D4",
"L 	c #C6D5E0",
"M 	c #6597A0",
"N 	c #04F9E0",
"O 	c #279BA5",
"P 	c #3C7EBE",
"Q 	c #9EAEBA",
"R 	c #CDDDE6",
"S 	c #DAE9F2",
"T 	c #C5D3DE",
"U 	c #D1E0EA",
"V 	c #DDECF5",
"W 	c #C1D0DB",
"X 	c #96A4B4",
"Y 	c #BBC9D5",
"Z 	c #869DAB",
"` 	c #0BEED7",
" .	c #307EA3",
"..	c #3B6C85",
"+.	c #8697A6",
"@.	c #CDDCE5",
"#.	c #DCEBF4",
"$.	c #BBCAD5",
"%.	c #B6C4D0",
"&.	c #BFCED9",
"*.	c #AEBCC9",
"=.	c #94A2B2",
"-.	c #12DDCA",
";.	c #08F3DB",
">.	c #0EE7D2",
",.	c #8797A6",
"'.	c #C5D5DE",
").	c #C3D2DC",
"!.	c #1BBFB3",
"~.	c #19C7B9",
"{.	c #BAC8D4",
"].	c #B0BECB",
"^.	c #18C8BA",
"/.	c #0DE9D3",
"(.	c #10E3CF",
"_.	c #65939D",
":.	c #BBCCD4",
"<.	c #ACBAC7",
"[.	c #0DEAD4",
"}.	c #04FAE0",
"|.	c #97A6B5",
"1.	c #77A0A9",
"2.	c #19C8BA",
"3.	c #94A5B1",
"4.	c #CBDBE3",
"5.	c #CCDAE5",
"6.	c #39AAA6",
"7.	c #0EE8D2",
"8.	c #27AEA8",
"9.	c #C5D4DF",
"0.	c #9FAEBC",
"a.	c #7D8E9E",
"b.	c #A2B1BE",
"c.	c #BECDD8",
"d.	c #D9E8F1",
"e.	c #CDDCE6",
"f.	c #B2C0CC",
"g.	c #CBDAE4",
"h.	c #9EADBB",
"i.	c #406D87",
"j.	c #307DA3",
"k.	c #0AEED7",
"l.	c #718D9B",
"m.	c #C2D3DB",
"n.	c #B7C5D1",
"o.	c #ADBBC8",
"p.	c #D4E2EC",
"q.	c #B8C7D3",
"r.	c #3D81C2",
"s.	c #4E8993",
"t.	c #A7B8C2",
"u.	c #B5C4CF",
"v.	c #ACBBC8",
"w.	c #8C9BAB",
"x.	c #96ABB8",
"y.	c #14D9C7",
"z.	c #599CA1",
"A.	c #D9E7F1",
"B.	c #93A4B6",
"C.	c #259DA3",
"D.	c #3978B5",
"E.	c #2F5F8E",
"F.	c #3BA6A4",
"G.	c #13DCC9",
"H.	c #9AA8B7",
"I.	c #6A85A7",
"J.	c #239497",
"K.	c #BCCBD7",
"L.	c #799AA6",
"M.	c #0BEDD6",
"N.	c #359B9C",
"O.	c #307BA1",
"P.	c #577EAC",
"Q.	c #298195",
"R.	c #CFDEE8",
"S.	c #BECCD8",
"T.	c #A0AEBC",
"U.	c #889AB0",
"V.	c #397BB5",
"W.	c #50A4A5",
"X.	c #3F78B2",
"Y.	c #3469A0",
"                                                                                                      ",
"                                                                                                      ",
"                                                                                                      ",
"                                                                                                      ",
"                                                                                                      ",
"                                                                                                      ",
"                                                                                                      ",
"                                                                                                      ",
"                                                                                                      ",
"                                                                                                      ",
"                                                                                                      ",
"                                                                                                      ",
"                                                                                                      ",
"                                                  . +                                                 ",
"                                                @ # $                                                 ",
"                                                % & *                                                 ",
"                                              = - ; > ,                                               ",
"                                              ' ) ! ~ {                                               ",
"                              ]               ^ / ( _ :                                               ",
"                            < [ } | 1 2 3     4 5 6 7 8     9 0 a b c d e                             ",
"                              4 f g h i j k     l m n o   9 p q r s r t                               ",
"                                u v w x y z A B C D E F G H I J K L M N                               ",
"                                  O P Q R S T U V V V W X Y V V V Z `                                 ",
"                                  ]  ...+.@.#.V $.n %.V V V &.*.=.-.                                  ",
"                                    ;.  >.,.'.).!.  ~.{.V ].^./.(.                                    ",
"                                          _.:.<.[.  }.|.V 1.                                          ",
"                                    (./.2.3.4.5.6.7.8.9.V 0.>.  ;.                                    ",
"                                  -.a.b.c.d.V V e.f.g.V V d.h.i.j.]                                   ",
"                                k.l.m.#.V Y X W V V #.n.o.p.V q.r.O                                   ",
"                              N s.t.u.v.w.H G F E V x.y.7.z.A.V B.v u                                 ",
"                              C.q q D.D.E.9   o n V F.    G.H.W U I.f 4                               ",
"                            e J.c 8 a [.9     8 K.V L.M.    3 2 1 N.O.[ <                             ",
"                                              : V #.P.Q.              ]                               ",
"                                              { R.S.P '                                               ",
"                                              , T.U.V.=                                               ",
"                                                W.X.%                                                 ",
"                                                $ Y.@                                                 ",
"                                                + .                                                   ",
"                                                                                                      ",
"                                                                                                      ",
"                                                                                                      ",
"                                                                                                      ",
"                                                                                                      ",
"                                                                                                      ",
"                                                                                                      ",
"                                                                                                      ",
"                                                                                                      ",
"                                                                                                      ",
"                                                                                                      ",
"                                                                                                      ",
"                                                                                                      "};
