/* XPM */
static char * Weapon3_xpm[] = {
"51 51 176 2",
"  	c #00FFE4",
". 	c #17CDBE",
"+ 	c #1AC1B5",
"@ 	c #17CEBE",
"# 	c #366EA8",
"$ 	c #18CABC",
"% 	c #03FAE0",
"& 	c #1BBCB1",
"* 	c #17CEBF",
"= 	c #3B7CBB",
"- 	c #768798",
"; 	c #17CFBF",
"> 	c #14D9C7",
", 	c #3184A9",
"' 	c #298899",
") 	c #3B7BBA",
"! 	c #A6B6C1",
"~ 	c #9AAAB8",
"{ 	c #16D3C2",
"] 	c #08F3DB",
"^ 	c #24A3A7",
"/ 	c #3C80C1",
"( 	c #3F71A6",
"_ 	c #1CB8AE",
": 	c #3A7BBA",
"< 	c #D7E6EF",
"[ 	c #899BAA",
"} 	c #08F2DA",
"| 	c #367FB1",
"1 	c #3D81C2",
"2 	c #768AA0",
"3 	c #94A4B1",
"4 	c #12DDCA",
"5 	c #3A7AB9",
"6 	c #A6B7C1",
"7 	c #91A1B0",
"8 	c #4D6E96",
"9 	c #9FAFBA",
"0 	c #BDCED6",
"a 	c #8597A6",
"b 	c #0CEBD4",
"c 	c #20A09D",
"d 	c #93A4B1",
"e 	c #A8B6C3",
"f 	c #12DFCB",
"g 	c #01FDE3",
"h 	c #24ADA7",
"i 	c #ADBEC7",
"j 	c #C6D6DF",
"k 	c #DBEAF3",
"l 	c #58A6A7",
"m 	c #469D9F",
"n 	c #D2E1EA",
"o 	c #DCEBF4",
"p 	c #ABB9C6",
"q 	c #8897A7",
"r 	c #A3B3BE",
"s 	c #BECFD7",
"t 	c #B5C4D0",
"u 	c #5DA0A4",
"v 	c #14D8C6",
"w 	c #05F8DE",
"x 	c #14DAC7",
"y 	c #1FB1AA",
"z 	c #52989D",
"A 	c #C1D2DA",
"B 	c #DDECF5",
"C 	c #D6E6EF",
"D 	c #D2E1EB",
"E 	c #2FAEA8",
"F 	c #10E4CF",
"G 	c #1BBDB2",
"H 	c #379195",
"I 	c #8192A1",
"J 	c #B7C8D1",
"K 	c #92A5B2",
"L 	c #23ABA5",
"M 	c #3D9D9D",
"N 	c #C5D5DD",
"O 	c #C3D2DD",
"P 	c #96A4B4",
"Q 	c #B7C6D2",
"R 	c #CDDBE5",
"S 	c #19C5B8",
"T 	c #06F5DD",
"U 	c #1CBBB0",
"V 	c #3373A1",
"W 	c #3B7CBC",
"X 	c #70869F",
"Y 	c #C3D2DC",
"Z 	c #DAE9F2",
"` 	c #CBDBE4",
" .	c #CADAE2",
"..	c #C5D4DE",
"+.	c #22B1AA",
"@.	c #03FBE1",
"#.	c #19C8BA",
"$.	c #B5C3D0",
"%.	c #809DAA",
"&.	c #16D2C1",
"*.	c #1AC3B6",
"=.	c #33699D",
"-.	c #22AAAA",
";.	c #0AEFD8",
">.	c #07F4DC",
",.	c #1FB1AC",
"'.	c #397AB5",
").	c #3B79B6",
"!.	c #91A2B5",
"~.	c #C1CFDA",
"{.	c #BFCDD9",
"].	c #B1BFCB",
"^.	c #0EE8D2",
"/.	c #01FEE3",
"(.	c #95A3B3",
"_.	c #BECCD8",
":.	c #8D9EB2",
"<.	c #3A79B7",
"[.	c #3879B4",
"}.	c #1FB2AC",
"|.	c #0AEFD7",
"1.	c #22A9AA",
"2.	c #33679B",
"3.	c #16D2C2",
"4.	c #809EAA",
"5.	c #CDDCE6",
"6.	c #38A9A5",
"7.	c #0DE9D3",
"8.	c #BDCCD7",
"9.	c #DAEAF3",
"0.	c #CBDAE4",
"a.	c #889AB0",
"b.	c #3977B5",
"c.	c #32719E",
"d.	c #06F5DC",
"e.	c #CDDBE6",
"f.	c #CCDBE5",
"g.	c #AEBCC9",
"h.	c #C4D3DD",
"i.	c #C1D0DB",
"j.	c #46A0A1",
"k.	c #9CAFBC",
"l.	c #BCCBD6",
"m.	c #98A7B6",
"n.	c #47979B",
"o.	c #D4E3EC",
"p.	c #609FA4",
"q.	c #B8C7D2",
"r.	c #9FB0BD",
"s.	c #5CA6A8",
"t.	c #85A3AE",
"u.	c #D3E2EC",
"v.	c #51A2A4",
"w.	c #BAC9D4",
"x.	c #15D4C3",
"y.	c #07F4DB",
"z.	c #90A5B2",
"A.	c #ACBAC7",
"B.	c #209F9D",
"C.	c #92A3B2",
"D.	c #5F7796",
"E.	c #11E0CC",
"F.	c #7DA1AB",
"G.	c #C1CFDB",
"H.	c #B2C0CC",
"I.	c #94A4B6",
"J.	c #367DAF",
"K.	c #14D9C6",
"L.	c #8798A8",
"M.	c #4771A1",
"N.	c #3B7DBD",
"O.	c #A3B2C0",
"P.	c #C5D3DE",
"Q.	c #288898",
"R.	c #8E9CAC",
"S.	c #366EA7",
"                                                                                                      ",
"                                                                                                      ",
"                                                                                                      ",
"                                                                                                      ",
"                                                                                                      ",
"                                                                                                      ",
"                                                                                                      ",
"                                                                                                      ",
"                                                                                                      ",
"                                                                                                      ",
"                                                                                                      ",
"                                                                                                      ",
"                                                                                                      ",
"                                                                                                      ",
"                                        . +                                                           ",
"                                        @ # $                 % &                                     ",
"                                        * = - ;             > , '                                     ",
"                                        ; ) ! ~ {       ] ^ / ( _                                     ",
"                                        ; : ! < [ }   > | 1 2 3 4                                     ",
"                                        ; 5 6 < 7     { 8 9 0 a %                                     ",
"                                        b c d < e f g h i j k l                                       ",
"                                            m n o p q r s t u v                                       ",
"                                w x y v     z A B B o C D E                                           ",
"                          F G H I 9 J K L M r N O P Q B R S     T                                     ",
"                          U V W X Y B B Z `  ...+.@.#.$.B %.&.*.=.-.;.                                ",
"                            >.,.'.).!.~.{.o B ].^.  /.(.B o {._.:.<.[.}.>.                            ",
"                                |.1.2.*.3.4.B 5.6.7.U 8.B o 9.B B 0.a.b.c.U                           ",
"                                    d.    S e.B f.g.h.B i.j.L k.< l.m.n.G F                           ",
"                                          E o.B B B B B p.    v y > w                                 ",
"                                      v u q.B r.s.t.u.B v.                                            ",
"                                      l B B w.x.  y.z.B A.B.b                                         ",
"                                    % C.B i.D.E.    F.B G.W ;                                         ",
"                                    4 H.I.= J.K.  ] L.B O = ;                                         ",
"                                    _ M.N.^ ]       { O.P.: ;                                         ",
"                                    Q., >             ; R.: *                                         ",
"                                    & %                 $ S.@                                         ",
"                                                          + .                                         ",
"                                                                                                      ",
"                                                                                                      ",
"                                                                                                      ",
"                                                                                                      ",
"                                                                                                      ",
"                                                                                                      ",
"                                                                                                      ",
"                                                                                                      ",
"                                                                                                      ",
"                                                                                                      ",
"                                                                                                      ",
"                                                                                                      ",
"                                                                                                      ",
"                                                                                                      "};
