/* XPM */
static char * Weapon2_xpm[] = {
"51 51 179 2",
"  	c #00FFE4",
". 	c #0CECD6",
"+ 	c #20A19E",
"@ 	c #1AC3B7",
"# 	c #12DDCA",
"$ 	c #0DEAD4",
"% 	c #3280A9",
"& 	c #2A92A3",
"* 	c #19C5B8",
"= 	c #3770AA",
"- 	c #1EAFA8",
"; 	c #03FAE0",
"> 	c #0EE7D1",
", 	c #337FAA",
"' 	c #447AB3",
") 	c #2F9798",
"! 	c #10E3CE",
"~ 	c #3D82C4",
"{ 	c #758597",
"] 	c #5B9099",
"^ 	c #10E4CF",
"/ 	c #0FE5D0",
"( 	c #357DAD",
"_ 	c #437BB4",
": 	c #A4B5BF",
"< 	c #2CA9A5",
"[ 	c #02FCE1",
"} 	c #3A7BB7",
"| 	c #7086A0",
"1 	c #C4D4DD",
"2 	c #A1B1BE",
"3 	c #21C4B7",
"4 	c #2C7894",
"5 	c #437CB6",
"6 	c #A3B4BE",
"7 	c #C3D3DC",
"8 	c #2C96AA",
"9 	c #4D7BAE",
"0 	c #BFD0D8",
"a 	c #DDECF5",
"b 	c #51A4A6",
"c 	c #1DB3AB",
"d 	c #A0B0BC",
"e 	c #DBEAF3",
"f 	c #1EB0A9",
"g 	c #1DB5AC",
"h 	c #3B7CBC",
"i 	c #AFC0C9",
"j 	c #DAEAF2",
"k 	c #89A5B0",
"l 	c #0BEDD6",
"m 	c #07F5DC",
"n 	c #50959A",
"o 	c #BACBD3",
"p 	c #CBDAE3",
"q 	c #6C9BA4",
"r 	c #13DCC9",
"s 	c #0EE7D2",
"t 	c #1EAEA7",
"u 	c #77929F",
"v 	c #D4E3EC",
"w 	c #D8E7F0",
"x 	c #A2B0BE",
"y 	c #97A5B4",
"z 	c #B4C5CE",
"A 	c #CBDBE3",
"B 	c #84A2AD",
"C 	c #04F9DF",
"D 	c #18CBBC",
"E 	c #ACBCC6",
"F 	c #DAE9F2",
"G 	c #79A3AB",
"H 	c #0EE8D2",
"I 	c #0CECD5",
"J 	c #18C9BB",
"K 	c #A7B8C2",
"L 	c #D0E0E8",
"M 	c #C1CFDA",
"N 	c #96A4B3",
"O 	c #B6C5D1",
"P 	c #C1CFDB",
"Q 	c #39AAA6",
"R 	c #17CDBE",
"S 	c #267381",
"T 	c #3A78B6",
"U 	c #3A79B7",
"V 	c #3388AF",
"W 	c #1FAFA9",
"X 	c #13DBC8",
"Y 	c #50979C",
"Z 	c #8797A6",
"` 	c #3A9F9E",
" .	c #1CB7AE",
"..	c #7993A1",
"+.	c #BBCCD4",
"@.	c #C1D0DA",
"#.	c #1EB6AD",
"$.	c #01FDE2",
"%.	c #B6C4D0",
"&.	c #C8D6E1",
"*.	c #C4D2DD",
"=.	c #A4B2C0",
"-.	c #7890AE",
";.	c #3C76B1",
">.	c #33669B",
",.	c #229495",
"'.	c #12DFCB",
").	c #49969A",
"!.	c #96A6B3",
"~.	c #BECFD7",
"{.	c #D1E1E9",
"].	c #D1E0EA",
"^.	c #D7E6EF",
"/.	c #B0BECB",
"(.	c #0EE9D3",
"_.	c #D4E3ED",
":.	c #DCEBF4",
"<.	c #B2C0CD",
"[.	c #599EA2",
"}.	c #33679D",
"|.	c #3A7AB8",
"1.	c #6581A4",
"2.	c #A3B2BF",
"3.	c #C7D6E1",
"4.	c #DAE9F3",
"5.	c #CDDCE6",
"6.	c #39A8A5",
"7.	c #C0CFDA",
"8.	c #8FA6B3",
"9.	c #42A1A1",
"0.	c #A0AEBC",
"a.	c #5E9EA3",
"b.	c #13DAC8",
"c.	c #3387AF",
"d.	c #3875B1",
"e.	c #2C7583",
"f.	c #17CEBE",
"g.	c #C1D0DB",
"h.	c #B0BECA",
"i.	c #C6D5E0",
"j.	c #18CABB",
"k.	c #19C5B7",
"l.	c #C5D4DF",
"m.	c #B9C7D3",
"n.	c #70A2A9",
"o.	c #7EA2AC",
"p.	c #CCDBE5",
"q.	c #8BA2B0",
"r.	c #D1DFE9",
"s.	c #D2E1EB",
"t.	c #2BB1AA",
"u.	c #03FBE1",
"v.	c #6D9DA5",
"w.	c #CEDCE7",
"x.	c #3C7FBF",
"y.	c #1DB4AC",
"z.	c #BAC8D4",
"A.	c #19C8BA",
"B.	c #33A9A5",
"C.	c #527FB3",
"D.	c #2C95AB",
"E.	c #C5D3DE",
"F.	c #497AB0",
"G.	c #2A7890",
"H.	c #8497AF",
"I.	c #3A7BB8",
"J.	c #31AAA6",
"K.	c #C5D4DE",
"L.	c #4979AD",
"M.	c #347BAA",
"N.	c #6A9AA3",
"O.	c #8C9AAB",
"P.	c #3D81C2",
"Q.	c #35999A",
"R.	c #4977AB",
"S.	c #337DA8",
"T.	c #366EA7",
"U.	c #2990A0",
"V.	c #327EA6",
"                                                                                                      ",
"                                                                                                      ",
"                                                                                                      ",
"                                                                                                      ",
"                                                                                                      ",
"                                                                                                      ",
"                                                                                                      ",
"                                                                                                      ",
"                                                                                                      ",
"                                                                                                      ",
"                                                                                                      ",
"                                                                                                      ",
"                                                                                                      ",
"                                                                                                      ",
"                                                          . +                                         ",
"                                    @ #                 $ % &                                         ",
"                                    * = - ;           > , ' )                                         ",
"                                    ! ~ { ] ^       / ( _ : <                                         ",
"                                    [ } | 1 2 3     4 5 6 7 -                                         ",
"                                      8 9 0 a b     c d 7 e f                                         ",
"                                      g h i j k l m n o p q r                                         ",
"                                      s t u v w x y z A B C                                           ",
"                                          D E F a a a a G     H * I                                   ",
"                                    s     J K L M N O a P Q R S T U V W X C                           ",
"                                r Y Z `  ...+.@.#.$.J %.a v &.F *.=.-.;.>.,.                          ",
"                            '.).!.~.{.e ].L ^./.(.  $.N a a _.e a :.<.[.'.                            ",
"                          ,.}.|.1.2.3.4.&.v a 5.6.(.#.7.a 8. .9.0.a.r                                 ",
"                          C b.W c.U d.e.f.Q g.a 5.h.i.a i.j.    s                                     ",
"                                  I k.H     G a a a a a l.D                                           ",
"                                          C B a m.n.o.p.a q.t >                                       ",
"                                        r q r.s.t.  u.v.a w.x.y.                                      ",
"                                        f :.a z.A.    B.a a C.D.                                      ",
"                                        - a E.F.G.    3 2 e H.I.[                                     ",
"                                        J.K.L.M./       ^ N.O.P.!                                     ",
"                                        Q.R.S.>           ; - T.k.                                    ",
"                                        U.V.$                 # @                                     ",
"                                        + I                                                           ",
"                                                                                                      ",
"                                                                                                      ",
"                                                                                                      ",
"                                                                                                      ",
"                                                                                                      ",
"                                                                                                      ",
"                                                                                                      ",
"                                                                                                      ",
"                                                                                                      ",
"                                                                                                      ",
"                                                                                                      ",
"                                                                                                      ",
"                                                                                                      ",
"                                                                                                      "};
