/* XPM */
static char * Weapon4_xpm[] = {
"51 51 188 2",
"  	c #00FFE4",
". 	c #01FDE2",
"+ 	c #1BBEB3",
"@ 	c #0EE7D1",
"# 	c #305D8E",
"$ 	c #10E4CF",
"% 	c #17CDBD",
"& 	c #3D82C4",
"* 	c #34848C",
"= 	c #01FDE3",
"- 	c #1FADA8",
"; 	c #3C80C1",
"> 	c #98A9B5",
", 	c #19C6B8",
"' 	c #2E93AD",
") 	c #527CAD",
"! 	c #C0D0D9",
"~ 	c #8CA4B1",
"{ 	c #08F2DA",
"] 	c #0DEAD4",
"^ 	c #1DB7AE",
"/ 	c #229596",
"( 	c #02FCE2",
"_ 	c #3A7BB8",
": 	c #73879F",
"< 	c #C8D8E0",
"[ 	c #CDDCE7",
"} 	c #1CB8AE",
"| 	c #06F5DC",
"1 	c #19C7B9",
"2 	c #2D90A7",
"3 	c #3B7DBD",
"4 	c #3976B2",
"5 	c #17D0C0",
"6 	c #08F3DB",
"7 	c #2B859B",
"8 	c #8D9EAB",
"9 	c #CFDFE8",
"0 	c #B2C0CC",
"a 	c #10E2CE",
"b 	c #0BEDD6",
"c 	c #356FA6",
"d 	c #497AAF",
"e 	c #8192A2",
"f 	c #41818C",
"g 	c #03FAE0",
"h 	c #6C939E",
"i 	c #D6E6EF",
"j 	c #B4C2CE",
"k 	c #12DECA",
"l 	c #61738A",
"m 	c #9AAAB6",
"n 	c #B7C8D1",
"o 	c #A0B0BC",
"p 	c #16D1C1",
"q 	c #0FE6D1",
"r 	c #25949A",
"s 	c #278E9A",
"t 	c #52989C",
"u 	c #64969F",
"v 	c #768E9D",
"w 	c #6A7B8F",
"x 	c #0FE7D1",
"y 	c #6A939E",
"z 	c #D2E2EA",
"A 	c #DAE9F2",
"B 	c #8EA6B3",
"C 	c #31A4A2",
"D 	c #72939F",
"E 	c #B7C7D0",
"F 	c #CADAE2",
"G 	c #D8E7F0",
"H 	c #6A9CA4",
"I 	c #01FEE3",
"J 	c #5577A0",
"K 	c #B8C8D2",
"L 	c #C9D9E2",
"M 	c #749DA6",
"N 	c #19C7BA",
"O 	c #3A9F9E",
"P 	c #A7B8C2",
"Q 	c #CEDEE6",
"R 	c #DDECF5",
"S 	c #D1E1E9",
"T 	c #C2D3DB",
"U 	c #C9D8E1",
"V 	c #9CABB9",
"W 	c #6E98A2",
"X 	c #15D6C5",
"Y 	c #15D5C4",
"Z 	c #377EB4",
"` 	c #4F79AA",
" .	c #C3D2DD",
"..	c #BFCED8",
"+.	c #B7C8D0",
"@.	c #98A7B6",
"#.	c #BAC8D4",
"$.	c #8FA6B3",
"%.	c #0AEFD7",
"&.	c #0FE5D0",
"*.	c #3283AA",
"=.	c #4174AA",
"-.	c #9AA8B7",
";.	c #B9C7D3",
">.	c #CBDAE4",
",.	c #2AAFA8",
"'.	c #04F8DF",
").	c #B5C4D0",
"!.	c #6EA7AC",
"~.	c #1DB2AA",
"{.	c #0DEBD4",
"].	c #16D2C1",
"^.	c #A5B4C2",
"/.	c #B1BFCC",
"(.	c #0EE8D2",
"_.	c #95A3B2",
":.	c #A5B4C1",
"<.	c #6EA8AC",
"[.	c #CDDCE6",
"}.	c #38AAA6",
"|.	c #0CECD5",
"1.	c #1BBFB4",
"2.	c #BBCAD5",
"3.	c #3A72AB",
"4.	c #3284AA",
"5.	c #0FE6D0",
"6.	c #0AEED7",
"7.	c #AAB8C5",
"8.	c #C3D1DC",
"9.	c #D8E7F1",
"0.	c #CAD9E3",
"a.	c #C1D0DB",
"b.	c #377DB2",
"c.	c #15D6C4",
"d.	c #6E98A3",
"e.	c #9CABBA",
"f.	c #D9E8F1",
"g.	c #D9E8F2",
"h.	c #C9D7E2",
"i.	c #DAE9F3",
"j.	c #C6D5DF",
"k.	c #42A2A1",
"l.	c #749DA7",
"m.	c #D0DEE8",
"n.	c #6883A7",
"o.	c #3A7BB9",
"p.	c #CFDDE7",
"q.	c #549BA0",
"r.	c #17CDBE",
"s.	c #589DA1",
"t.	c #D1DFE9",
"u.	c #7EA1AC",
"v.	c #7D8C9E",
"w.	c #8CA0AF",
"x.	c #76A2AA",
"y.	c #63A1A6",
"z.	c #268C96",
"A.	c #DCEBF4",
"B.	c #BCCBD6",
"C.	c #707F94",
"D.	c #05F7DE",
"E.	c #06F6DD",
"F.	c #9DABB9",
"G.	c #80A1AC",
"H.	c #508993",
"I.	c #9FADBC",
"J.	c #5880B0",
"K.	c #3C7EBE",
"L.	c #32669A",
"M.	c #09F1D9",
"N.	c #A5B3C1",
"O.	c #A4B2C0",
"P.	c #2C869F",
"Q.	c #16D0C0",
"R.	c #3873AE",
"S.	c #3A7AB9",
"T.	c #19C6B9",
"U.	c #07F5DC",
"V.	c #1CB8AF",
"W.	c #CCDBE5",
"X.	c #8598AF",
"Y.	c #02FCE1",
"Z.	c #5B83B2",
"`.	c #3C7FC0",
" +	c #1FADA7",
".+	c #3B878F",
"++	c #18CCBD",
"@+	c #0EE6D1",
"                                                                                                      ",
"                                                                                                      ",
"                                                                                                      ",
"                                                                                                      ",
"                                                                                                      ",
"                                                                                                      ",
"                                                                                                      ",
"                                                                                                      ",
"                                                                                                      ",
"                                                                                                      ",
"                                                                                                      ",
"                                                                                                      ",
"                                                                                                      ",
"                                            . +                                                       ",
"                                            @ # $                                                     ",
"                                            % & * =                                                   ",
"                                            - ; > ,                                                   ",
"                                            ' ) ! ~ {           ] ^ /                                 ",
"                                          ( _ : < [ }     | 1 2 3 4 5                                 ",
"                                          6 7 8 9 0 a   b c & d e f =                                 ",
"                                            g h i j k   a l m n o p                                   ",
"                          q r s t u v w x   . y z A B C D E F G H I                                   ",
"                            + 3 J K L L M N O P Q R R S T U V W X                                     ",
"                              Y Z `  .R R ..+.T  .@.#.R R $.%.                                        ",
"                                &.*.=.-.;.R R >.,.'.1 ).R !.                                          ",
"                                  { ~.{.].^.R /.(.    _.R :.].] ~.{                                   ",
"                                          <.R [.}.|.1.2.R R ;.@.3.4.5.                                ",
"                                        6.$.R R >.7.8.R 9.0.R R a.` b.c.                              ",
"                                    X d.e.f.g.h.i.R R j.k.N l.f.R m.n.o.+                             ",
"                                  I H R R p.q.r.s.t.R u..   @ v.w.x.y.z.r q                           ",
"                                  p 2.A.B.C.D.  E.F.R G.g                                             ",
"                                = H.I.J.K.L.M.  |.N.R O.P.6                                           ",
"                                Q.R.S.2 T.U.    V.W.R X._ Y.                                          ",
"                                / ^ ]           { ~ R Z.'                                             ",
"                                                  , ).`. +                                            ",
"                                                  = .+; ++                                            ",
"                                                    $ # @+                                            ",
"                                                      + .                                             ",
"                                                                                                      ",
"                                                                                                      ",
"                                                                                                      ",
"                                                                                                      ",
"                                                                                                      ",
"                                                                                                      ",
"                                                                                                      ",
"                                                                                                      ",
"                                                                                                      ",
"                                                                                                      ",
"                                                                                                      ",
"                                                                                                      ",
"                                                                                                      "};
