/* XPM */
static char * Weapon1_xpm[] = {
"51 51 181 2",
"  	c #00FFE4",
". 	c #0CECD6",
"+ 	c #20A19E",
"@ 	c #1AC3B7",
"# 	c #12DDCA",
"$ 	c #0DEAD4",
"% 	c #3280A9",
"& 	c #2A92A2",
"* 	c #19C5B8",
"= 	c #3770AA",
"- 	c #1EAFA8",
"; 	c #03FAE0",
"> 	c #0EE7D2",
", 	c #337FAA",
"' 	c #437AB3",
") 	c #2F9798",
"! 	c #10E3CE",
"~ 	c #3D82C4",
"{ 	c #758597",
"] 	c #5B9099",
"^ 	c #10E4CF",
"/ 	c #0FE6D0",
"( 	c #357DAD",
"_ 	c #437BB4",
": 	c #A4B5BF",
"< 	c #2CA9A5",
"[ 	c #02FCE1",
"} 	c #3A7BB8",
"| 	c #7086A0",
"1 	c #C4D4DD",
"2 	c #A1B1BE",
"3 	c #21C4B7",
"4 	c #2C7895",
"5 	c #437BB6",
"6 	c #A3B4BF",
"7 	c #C3D3DC",
"8 	c #2C96AB",
"9 	c #4D7BAF",
"0 	c #BFD0D8",
"a 	c #DDECF5",
"b 	c #51A4A6",
"c 	c #1DB3AB",
"d 	c #A0B0BC",
"e 	c #DBEAF3",
"f 	c #1DB0A9",
"g 	c #1DB5AC",
"h 	c #3B7CBB",
"i 	c #AFC0C9",
"j 	c #DAEAF2",
"k 	c #88A4B0",
"l 	c #0BEDD6",
"m 	c #07F5DC",
"n 	c #4F959A",
"o 	c #BACBD3",
"p 	c #CBDAE3",
"q 	c #6C9BA4",
"r 	c #13DCC9",
"s 	c #1EAEA7",
"t 	c #77919F",
"u 	c #D4E3EC",
"v 	c #D8E7F0",
"w 	c #A2B0BE",
"x 	c #97A6B4",
"y 	c #B4C5CE",
"z 	c #CBDBE3",
"A 	c #84A2AD",
"B 	c #04F9DF",
"C 	c #18CBBC",
"D 	c #ACBCC6",
"E 	c #DAE9F2",
"F 	c #79A2AB",
"G 	c #0EE8D2",
"H 	c #0CECD5",
"I 	c #18C9BB",
"J 	c #A7B8C2",
"K 	c #D0E0E9",
"L 	c #C0CFDA",
"M 	c #96A4B3",
"N 	c #B6C5D1",
"O 	c #C1CFDA",
"P 	c #38AAA6",
"Q 	c #17CDBE",
"R 	c #267381",
"S 	c #3A78B6",
"T 	c #3A79B7",
"U 	c #3388AF",
"V 	c #1FAFAA",
"W 	c #13DAC8",
"X 	c #50979C",
"Y 	c #8797A6",
"Z 	c #3A9F9E",
"` 	c #1CB7AE",
" .	c #7994A1",
"..	c #BBCCD4",
"+.	c #C1D0DA",
"@.	c #1EB6AD",
"#.	c #01FDE2",
"$.	c #B6C4D0",
"%.	c #D4E3ED",
"&.	c #C7D6E1",
"*.	c #C4D2DD",
"=.	c #A4B2C0",
"-.	c #7890AE",
";.	c #3B76B1",
">.	c #33669B",
",.	c #229495",
"'.	c #12DFCB",
").	c #49969A",
"!.	c #96A6B3",
"~.	c #BECFD7",
"{.	c #D1E1E9",
"].	c #D1E0EA",
"^.	c #D0E0E8",
"/.	c #D7E6EF",
"(.	c #B0BECB",
"_.	c #0EE9D3",
":.	c #DCEBF4",
"<.	c #B2C0CD",
"[.	c #599EA2",
"}.	c #33679D",
"|.	c #3A7AB8",
"1.	c #6582A4",
"2.	c #A3B2BF",
"3.	c #DAE9F3",
"4.	c #CDDCE6",
"5.	c #38A8A5",
"6.	c #8FA6B3",
"7.	c #42A1A1",
"8.	c #A0AEBC",
"9.	c #5E9EA3",
"0.	c #1FAFA9",
"a.	c #3875B1",
"b.	c #2D7583",
"c.	c #17CEBE",
"d.	c #C1CFDB",
"e.	c #B0BECA",
"f.	c #C6D5E0",
"g.	c #18CABB",
"h.	c #19C4B7",
"i.	c #79A3AB",
"j.	c #C5D4DF",
"k.	c #B9C7D3",
"l.	c #70A2A9",
"m.	c #7EA2AC",
"n.	c #CCDBE5",
"o.	c #8AA2AF",
"p.	c #0EE7D1",
"q.	c #D1DFE9",
"r.	c #D2E1EB",
"s.	c #2BB1AA",
"t.	c #03FBE1",
"u.	c #6D9DA5",
"v.	c #CEDCE7",
"w.	c #3C7FBF",
"x.	c #1DB4AC",
"y.	c #BAC8D4",
"z.	c #19C8BA",
"A.	c #33A9A5",
"B.	c #527FB2",
"C.	c #2C95AB",
"D.	c #C5D3DE",
"E.	c #497AAF",
"F.	c #2A7890",
"G.	c #A1B0BE",
"H.	c #8497AF",
"I.	c #31AAA6",
"J.	c #C5D4DE",
"K.	c #4979AD",
"L.	c #347CAB",
"M.	c #0FE5D0",
"N.	c #6A9AA3",
"O.	c #8C9AAB",
"P.	c #3D81C2",
"Q.	c #35999A",
"R.	c #4977AB",
"S.	c #337DA8",
"T.	c #366EA7",
"U.	c #19C5B7",
"V.	c #2990A0",
"W.	c #327FA7",
"X.	c #20A09E",
"                                                                                                      ",
"                                                                                                      ",
"                                                                                                      ",
"                                                                                                      ",
"                                                                                                      ",
"                                                                                                      ",
"                                                                                                      ",
"                                                                                                      ",
"                                                                                                      ",
"                                                                                                      ",
"                                                                                                      ",
"                                                                                                      ",
"                                                                                                      ",
"                                                                                                      ",
"                                                          . +                                         ",
"                                    @ #                 $ % &                                         ",
"                                    * = - ;           > , ' )                                         ",
"                                    ! ~ { ] ^       / ( _ : <                                         ",
"                                    [ } | 1 2 3     4 5 6 7 -                                         ",
"                                      8 9 0 a b     c d 7 e f                                         ",
"                                      g h i j k l m n o p q r                                         ",
"                                      > s t u v w x y z A B                                           ",
"                                          C D E a a a a F     G * H                                   ",
"                                    >     I J K L M N a O P Q R S T U V W B                           ",
"                                r X Y Z `  ...+.@.#.I $.a %.&.E *.=.-.;.>.,.                          ",
"                            '.).!.~.{.e ].^./.(._.  #.M a a %.e a :.<.[.'.                            ",
"                          ,.}.|.1.2.&.3.&.%.a 4.5._.@.L a 6.` 7.8.9.r                                 ",
"                          B W 0.U |.a.b.c.P d.a 4.e.f.a f.g.    >                                     ",
"                                  H h.G     i.a a a a a j.C                                           ",
"                                          B A a k.l.m.n.a o.s p.                                      ",
"                                        r q q.r.s.  t.u.a v.w.x.                                      ",
"                                        f :.a y.z.    A.a a B.C.                                      ",
"                                        - a D.E.F.    3 G.e H.} [                                     ",
"                                        I.J.K.L.M.      ^ N.O.P.!                                     ",
"                                        Q.R.S.p.          ; - T.U.                                    ",
"                                        V.W.$                 # @                                     ",
"                                        X..                                                           ",
"                                                                                                      ",
"                                                                                                      ",
"                                                                                                      ",
"                                                                                                      ",
"                                                                                                      ",
"                                                                                                      ",
"                                                                                                      ",
"                                                                                                      ",
"                                                                                                      ",
"                                                                                                      ",
"                                                                                                      ",
"                                                                                                      ",
"                                                                                                      ",
"                                                                                                      "};
