/* XPM */
static char *Weapon_resized[] = {
/* columns rows colors chars-per-pixel */
"51 51 105 2 ",
"   c #2E5F8C",
".  c #3A5F91",
"X  c #1F798F",
"o  c #2F608E",
"O  c #33718D",
"+  c #396094",
"@  c #3E659A",
"#  c #336A9D",
"$  c #237493",
"%  c #287396",
"&  c #26799A",
"*  c #347E91",
"=  c #3B6DA4",
"-  c #376FA8",
";  c #2D74A2",
":  c #3271A5",
">  c #4A6D9A",
",  c #557E96",
"<  c #52739F",
"1  c #5E7EA2",
"2  c #1E879B",
"3  c #198E9A",
"4  c #278696",
"5  c #21829C",
"6  c #2A8999",
"7  c #3B8497",
"8  c #1E95A9",
"9  c #1B9DAD",
"0  c #218EA7",
"q  c #2B9DA6",
"w  c #3B9BA7",
"e  c #1FA5AA",
"r  c #19ABAD",
"t  c #16ABB2",
"y  c #0FB8B6",
"u  c #14B2B5",
"i  c #1AB1B2",
"p  c #10B9B7",
"a  c #12BDB9",
"s  c #24A7AC",
"d  c #24AAAF",
"f  c #528C9F",
"g  c #5B8D9F",
"h  c #61879C",
"j  c #4692A2",
"k  c #5A98AA",
"l  c #6783A1",
"z  c #6B86A3",
"x  c #678DA0",
"c  c #6C88A5",
"v  c #6F8CAE",
"b  c #6D93A6",
"n  c #6B9BAE",
"m  c #7194AA",
"M  c #739CAF",
"N  c #7A96B4",
"B  c #779FB2",
"V  c #799EB1",
"C  c #76A0B3",
"Z  c #7BA1B4",
"A  c #0DC3BD",
"S  c #11C0BB",
"D  c #0DC7C0",
"F  c #07CDC3",
"G  c #09CEC3",
"H  c #06D3C6",
"J  c #08D1C6",
"K  c #07D7C9",
"L  c #09D5C8",
"P  c #04DECE",
"I  c #07E0CF",
"U  c #04E6D3",
"Y  c #04EAD6",
"T  c #03EED8",
"R  c #02F4DC",
"E  c #01F8DF",
"W  c #00FFE4",
"Q  c #00FFE8",
"!  c #8A9BAF",
"~  c #889EB2",
"^  c #84A2B5",
"/  c #8CA4BE",
"(  c #8BA8BB",
")  c #96A5B5",
"_  c #91AABB",
"`  c #92AEC0",
"'  c #99ACC2",
"]  c #9CB4C6",
"[  c #A4B5C6",
"{  c #A1B7C9",
"}  c #A5BACB",
"|  c #ABBCCC",
" . c #B4C6D5",
".. c #BACAD9",
"X. c #C1CED7",
"o. c #C1CFD9",
"O. c #C3D2DD",
"+. c #CDDBE4",
"@. c #CFDEE9",
"#. c #D2DEEA",
"$. c #D4E3EC",
"%. c #D9E6F0",
"&. c #DDEBF4",
"*. c #E0EEF6",
"=. c #E2F0F9",
/* pixels */
"W W W W W W W W W W W W W W W W W W W W W W W W W W W W W W W W W W W W W W W W W W W W W W W W W W W ",
"W W W W W W W W W W W W W W W W W W W W W W W W W W W W W W W W W W W W W W W W W W W W W W W W W W W ",
"W W W W W W W W W W W W W W W W W W W W W W W W W W W W W W W W W W W W W W W W W W W W W W W W W W W ",
"W W W W W W W W W W W W W W W W W W W W W W W W W W W W W W W W W W W W W W W W W W W W W W W W W W W ",
"W W W W W W W W W W W W W W W W W W W W W W W W W W W W W W W W W W W W W W W W W W W W W W W W W W W ",
"W W W W W W W W W W W W W W W W W W W W W W W W W W W W W W W W W W W W W W W W W W W W W W W W W W W ",
"W W W W W W W W W W W W W W W W W W W W W W W W W W W W W W W W W W W W W W W W W W W W W W W W W W W ",
"W W W W W W W W W W W W W W W W W W W W W W W W W W W W W W W W W W W W W W W W W W W W W W W W W W W ",
"W W W W W W W W W W W W W W W W W W W W W W W W W W W W W W W W W W W W W W W W W W W W W W W W W W W ",
"W W W W W W W W W W W W W W W W W W W W W W W W W W W W W W W W W W W W W W W W W W W W W W W W W W W ",
"W W W W W W W W W W W W W W W W W W W W W W W W W W W W W W W W W W W W W W W W W W W W W W W W W W W ",
"W W W W W W W W W W W W W W W W W W W W W W W W W W W W W W W W W W W W W W W W W W W W W W W W W W W ",
"W W W W W W W W W W W W W W W W W W W W W W W W W R W W W W W W W W W W W W W W W W W W W W W W W W W ",
"W W W W W W W W W W W W W W W W W W W W W W W W R 3 U W W W W W W W W W W W W W W W W W W W W W W W W ",
"W W W W W W W W W W W W W W W W W W W W W W W W D o y W W W W W W W W W W W W W W W W W W W W W W W W ",
"W W W W W W W W W W W W W W W W W W W W W W W W 0 @ 4 E W W W W W W W W W W W W W W W W W W W W W W W ",
"W W W W W W W W W W W W W W W W W W W W W W W U ; 1 x K W W W W W W W W W W W W W W W W W W W W W W W ",
"W W W W W W W W W W W W W W W W W W W W W W W t = ~ [ d W W W W W W W W W W W W W W W W W W W W W W W ",
"W W W W W W W W W W W W W W R U T W W W W W R 2 > | +.j R W W Q Q W W Q W W W W W W W W W W W W W W W ",
"W W W W W W W W W W W W W W T X % 4 s a G W W A , o.] i W W Y K D u 9 X G W W W W W W W W W W W W W W ",
"W W W W W W W W W W W W W W W D : > ) [ m S Q T f ..B P W Y $ # # > . 2 R W W W W W W W W W W W W W W ",
"W W W W W W W W W W W W W W W W t - c O.#.k u q _ $.] e P r l / { ] 7 U W W W W W W W W W W W W W W W ",
"W W W W W W W W W W W W W W W W R 0 = ! @.@.| ..&.&.&.} Z ] %.=.%.n K W W W W W W W W W W W W W W W W ",
"W W W W W W W W W W W W W W W W W I & O b O.&.&.] M ] &.&.&.} ( m a W W W W W W W W W W W W W W W W W ",
"W W W W W W W W W W W W W W W W W W U Y A b +.| e U r ] &.` r J G W W W W W W W W W W W W W W W W W W ",
"W W W W W W W W W W W W W W W W W W W W R f ..^ H Q P B &.k R Q Q W W W W W W W W W W W W W W W W W W ",
"W W W W W W W W W W W W W W W W W W J J r V @. .q G q  .=.Z A Y Y W W W W W W W W W W W W W W W W W W ",
"W W W W W W W W W W W W W W W W W a h ^ } $.&.&..._  .&.=.@.Z O & K W W W W W W W W W W W W W W W W W ",
"W W W W W W W W W W W W W W W W K g X.*.%.{ V } &.=.$.' ( +.&.` > 8 W W W W W W W W W W W W W W W W W ",
"W W W W W W W W W W W W W W W U * ! ] / z r P s } &.C y F j +.&.N - t W W W W W W W W W W W W W W W W ",
"W W W W W W W W W W W W W W T 2 + = # # $ Y Q P B #.w W Q a m | | < : A W W W W W W W W W W W W W W W ",
"W W W W W W W W W W W W W W G 5 9 t S K Y W W i { %.f F W W L p d 6 % X Y W W W W W W W W W W W W W W ",
"W W W W W W W W W W W W W W W E W W W W W W R j #.@.1 & R W Q W W W T I W W W W W W W W W W W W W W W ",
"W W W W W W W W W W W W W W W W W W W W W W W d ..[ : u W W W W W W W W W W W W W W W W W W W W W W W ",
"W W W W W W W W W W W W W W W W W W W W W W W H B v ; K W W W W W W W W W W W W W W W W W W W W W W W ",
"W W W W W W W W W W W W W W W W W W W W W W W W 4 @ 0 W W W W W W W W W W W W W W W W W W W W W W W W ",
"W W W W W W W W W W W W W W W W W W W W W W W W y   D W W W W W W W W W W W W W W W W W W W W W W W W ",
"W W W W W W W W W W W W W W W W W W W W W W W W Y 3 R W W W W W W W W W W W W W W W W W W W W W W W W ",
"W W W W W W W W W W W W W W W W W W W W W W W W W R W W W W W W W W W W W W W W W W W W W W W W W W W ",
"W W W W W W W W W W W W W W W W W W W W W W W W W W W W W W W W W W W W W W W W W W W W W W W W W W W ",
"W W W W W W W W W W W W W W W W W W W W W W W W W W W W W W W W W W W W W W W W W W W W W W W W W W W ",
"W W W W W W W W W W W W W W W W W W W W W W W W W W W W W W W W W W W W W W W W W W W W W W W W W W W ",
"W W W W W W W W W W W W W W W W W W W W W W W W W W W W W W W W W W W W W W W W W W W W W W W W W W W ",
"W W W W W W W W W W W W W W W W W W W W W W W W W W W W W W W W W W W W W W W W W W W W W W W W W W W ",
"W W W W W W W W W W W W W W W W W W W W W W W W W W W W W W W W W W W W W W W W W W W W W W W W W W W ",
"W W W W W W W W W W W W W W W W W W W W W W W W W W W W W W W W W W W W W W W W W W W W W W W W W W W ",
"W W W W W W W W W W W W W W W W W W W W W W W W W W W W W W W W W W W W W W W W W W W W W W W W W W W ",
"W W W W W W W W W W W W W W W W W W W W W W W W W W W W W W W W W W W W W W W W W W W W W W W W W W W ",
"W W W W W W W W W W W W W W W W W W W W W W W W W W W W W W W W W W W W W W W W W W W W W W W W W W W ",
"W W W W W W W W W W W W W W W W W W W W W W W W W W W W W W W W W W W W W W W W W W W W W W W W W W W ",
"W W W W W W W W W W W W W W W W W W W W W W W W W W W W W W W W W W W W W W W W W W W W W W W W W W W "
};
